<svg width="20" height="20" viewBox="0 0 20 20" fill="none" xmlns="http://www.w3.org/2000/svg">
<path d="M4.69369 15.4498H15.3064C15.5305 15.4498 15.7462 15.5313 15.9099 15.6777C16.0736 15.8242 16.1732 16.0246 16.1885 16.2386C16.2037 16.4526 16.1336 16.6642 15.9922 16.8306C15.8508 16.9969 15.6487 17.1057 15.4267 17.135L15.3064 17.1429H4.69369C4.46962 17.1428 4.25392 17.0613 4.09019 16.9149C3.92646 16.7685 3.8269 16.568 3.81163 16.354C3.79636 16.14 3.86651 15.9285 4.00791 15.7621C4.14932 15.5957 4.35143 15.4869 4.57342 15.4577L4.69369 15.4498H15.3064H4.69369ZM9.87977 1.91269L10 1.90479C10.2138 1.90479 10.4202 1.97888 10.5813 2.11334C10.7424 2.2478 10.8471 2.43354 10.8762 2.63621L10.8844 2.75135V11.4292L13.5435 8.88496C13.6935 8.74146 13.8923 8.65432 14.1038 8.6394C14.3152 8.62448 14.5253 8.68279 14.6956 8.80369L14.7946 8.88496C14.9445 9.02851 15.0356 9.21883 15.0512 9.42125C15.0668 9.62367 15.0058 9.82472 14.8795 9.98775L14.7946 10.0826L10.625 14.0727C10.4753 14.2161 10.2768 14.3032 10.0655 14.3183C9.85435 14.3335 9.64449 14.2755 9.47413 14.1551L9.37508 14.0727L5.20546 10.0826C5.04722 9.93151 4.95459 9.72871 4.94619 9.51494C4.9378 9.30118 5.01425 9.09229 5.1602 8.93029C5.30614 8.76829 5.51074 8.66518 5.73286 8.64169C5.95499 8.6182 6.17817 8.67608 6.35753 8.80369L6.45658 8.88496L9.11565 11.4314V2.75135C9.11566 2.54677 9.19306 2.34913 9.33353 2.19495C9.474 2.04078 9.66804 1.94051 9.87977 1.91269L10 1.90479L9.87977 1.91269Z" fill="#C1C1C1"/>
</svg>
