<svg width="17" height="14" viewBox="0 0 17 14" fill="none" xmlns="http://www.w3.org/2000/svg">
<path d="M15.3 0H1.7C0.76245 0 0 0.784875 0 1.75V12.25C0 13.2151 0.76245 14 1.7 14H15.3C16.2376 14 17 13.2151 17 12.25V1.75C17 0.784875 16.2376 0 15.3 0ZM3.825 2.625C4.16315 2.625 4.48745 2.76328 4.72656 3.00942C4.96567 3.25556 5.1 3.5894 5.1 3.9375C5.1 4.2856 4.96567 4.61944 4.72656 4.86558C4.48745 5.11172 4.16315 5.25 3.825 5.25C3.48685 5.25 3.16255 5.11172 2.92344 4.86558C2.68433 4.61944 2.55 4.2856 2.55 3.9375C2.55 3.5894 2.68433 3.25556 2.92344 3.00942C3.16255 2.76328 3.48685 2.625 3.825 2.625V2.625ZM8.5 11.375H2.55L5.95 7L7.225 8.75L9.775 5.25L14.45 11.375H8.5Z" fill="#7A7A7A"/>
</svg>
