<svg width="20" height="20" viewBox="0 0 20 20" fill="none" xmlns="http://www.w3.org/2000/svg">
<path d="M10.7141 12.7331C10.7141 14.1146 11.8376 15.2381 13.2191 15.2381C14.6005 15.2381 15.7241 14.1146 15.7241 12.7331C15.7241 12.6067 15.7048 12.4853 15.6862 12.3639H15.7141V5.23814H17.1426V3.80957H14.9998C14.8104 3.80957 14.6287 3.88483 14.4947 4.01878C14.3608 4.15273 14.2855 4.33442 14.2855 4.52386V10.476C13.9529 10.3151 13.5885 10.2306 13.2191 10.2289C12.555 10.2294 11.9183 10.4934 11.4487 10.9629C10.979 11.4324 10.7148 12.0691 10.7141 12.7331V12.7331ZM2.85693 4.52386H12.8569V5.95243H2.85693V4.52386Z" fill="#C1C1C1"/>
<path d="M2.85693 7.61902H12.3807V9.14283H2.85693V7.61902ZM2.85693 10.6666H8.97938V12.1904H2.85693V10.6666ZM2.85693 13.7143H8.97938V15.2381H2.85693V13.7143Z" fill="#C1C1C1"/>
</svg>
