<svg width="20" height="20" viewBox="0 0 20 20" fill="none" xmlns="http://www.w3.org/2000/svg">
<path d="M9.99979 1.90479C7.8117 1.90479 6.03154 3.70368 6.03154 5.91481C6.03154 8.12594 7.8117 9.92484 9.99979 9.92484C12.1879 9.92484 13.968 8.12594 13.968 5.91481C13.968 3.70368 12.1879 1.90479 9.99979 1.90479ZM9.99979 8.32083C8.68709 8.32083 7.61884 7.24133 7.61884 5.91481C7.61884 4.58829 8.68709 3.5088 9.99979 3.5088C11.3125 3.5088 12.3807 4.58829 12.3807 5.91481C12.3807 7.24133 11.3125 8.32083 9.99979 8.32083ZM17.1426 17.1429V16.3409C17.1426 13.2459 14.6498 10.7268 11.5871 10.7268H8.41249C5.349 10.7268 2.85693 13.2459 2.85693 16.3409V17.1429H4.44424V16.3409C4.44424 14.1297 6.22439 12.3309 8.41249 12.3309H11.5871C13.7752 12.3309 15.5553 14.1297 15.5553 16.3409V17.1429H17.1426Z" fill="#C1C1C1"/>
</svg>
