<svg width="116" height="116" viewBox="0 0 116 116" fill="none" xmlns="http://www.w3.org/2000/svg">
<g clip-path="url(#clip0_1992_2257)">
<rect width="116" height="116" fill="#5558AF"/>
<rect x="8" y="43" width="100" height="85" rx="10" fill="#323572"/>
<path d="M24.2866 24.8877H22.6313V23.7231H23.9497C24.3354 23.7231 24.6479 23.6646 24.8872 23.5474C25.1265 23.4253 25.3022 23.2544 25.4146 23.0347C25.5269 22.8149 25.583 22.5562 25.583 22.2583C25.583 22.0142 25.5195 21.7896 25.3926 21.5845C25.2705 21.3794 25.0801 21.2158 24.8213 21.0938C24.5625 20.9668 24.2329 20.9033 23.8325 20.9033C23.5298 20.9033 23.2539 20.957 23.0049 21.0645C22.7559 21.1719 22.5581 21.3232 22.4116 21.5186C22.2651 21.709 22.1919 21.9409 22.1919 22.2144H20.002C20.002 21.7456 20.1021 21.3257 20.3022 20.9546C20.5073 20.5786 20.7856 20.2612 21.1372 20.0024C21.4937 19.7388 21.9038 19.5386 22.3677 19.4019C22.8315 19.2651 23.3198 19.1968 23.8325 19.1968C24.4331 19.1968 24.9751 19.2627 25.4585 19.3945C25.9419 19.5215 26.3569 19.7119 26.7036 19.9658C27.0503 20.2197 27.3164 20.5347 27.502 20.9106C27.6875 21.2866 27.7803 21.7236 27.7803 22.2217C27.7803 22.5879 27.6973 22.9321 27.5312 23.2544C27.3652 23.5767 27.1284 23.8599 26.8208 24.104C26.5132 24.3481 26.1445 24.541 25.7148 24.6826C25.2852 24.8193 24.8091 24.8877 24.2866 24.8877ZM22.6313 24.2505H24.2866C24.8677 24.2505 25.3828 24.3115 25.832 24.4336C26.2861 24.5557 26.6694 24.7339 26.9819 24.9683C27.2993 25.2026 27.5386 25.4932 27.6997 25.8398C27.8657 26.1816 27.9487 26.5747 27.9487 27.019C27.9487 27.5171 27.8462 27.959 27.6411 28.3447C27.4409 28.7305 27.1553 29.0576 26.7842 29.3262C26.418 29.5947 25.9834 29.7974 25.4805 29.9341C24.9824 30.0708 24.4331 30.1392 23.8325 30.1392C23.354 30.1392 22.8779 30.0806 22.4043 29.9634C21.9307 29.8413 21.501 29.6558 21.1152 29.4067C20.7295 29.1577 20.4219 28.8379 20.1924 28.4473C19.9629 28.0566 19.8481 27.5879 19.8481 27.041H22.0527C22.0527 27.2998 22.1284 27.5366 22.2798 27.7515C22.4312 27.9614 22.6411 28.1299 22.9097 28.2568C23.1782 28.3789 23.4858 28.4399 23.8325 28.4399C24.2378 28.4399 24.582 28.3765 24.8652 28.2495C25.1533 28.1226 25.3706 27.9492 25.5171 27.7295C25.6685 27.5049 25.7441 27.2583 25.7441 26.9897C25.7441 26.7017 25.7051 26.4575 25.627 26.2573C25.5488 26.0571 25.4341 25.8936 25.2827 25.7666C25.1313 25.6348 24.9434 25.5396 24.7188 25.481C24.499 25.4224 24.2427 25.3931 23.9497 25.3931H22.6313V24.2505ZM33.7202 28.2129V24.6826C33.7202 24.4287 33.6787 24.2114 33.5957 24.0308C33.5127 23.8452 33.3833 23.7012 33.2075 23.5986C33.0366 23.4961 32.8145 23.4448 32.541 23.4448C32.3066 23.4448 32.104 23.4863 31.9331 23.5693C31.7622 23.6475 31.6304 23.7622 31.5376 23.9136C31.4448 24.0601 31.3984 24.2334 31.3984 24.4336H29.2891C29.2891 24.0967 29.3672 23.7769 29.5234 23.4741C29.6797 23.1714 29.9067 22.9053 30.2046 22.6758C30.5024 22.4414 30.8564 22.2583 31.2666 22.1265C31.6816 21.9946 32.1455 21.9287 32.6582 21.9287C33.2734 21.9287 33.8203 22.0312 34.2988 22.2363C34.7773 22.4414 35.1533 22.749 35.4268 23.1592C35.7051 23.5693 35.8442 24.082 35.8442 24.6973V28.0884C35.8442 28.5229 35.8711 28.8794 35.9248 29.1577C35.9785 29.4312 36.0566 29.6704 36.1592 29.8755V30H34.0278C33.9253 29.7852 33.8472 29.5166 33.7935 29.1943C33.7446 28.8672 33.7202 28.54 33.7202 28.2129ZM33.9985 25.1733L34.0132 26.3672H32.834C32.5557 26.3672 32.314 26.3989 32.1089 26.4624C31.9038 26.5259 31.7354 26.6162 31.6035 26.7334C31.4717 26.8457 31.374 26.9775 31.3105 27.1289C31.252 27.2803 31.2227 27.4463 31.2227 27.627C31.2227 27.8076 31.2642 27.9712 31.3472 28.1177C31.4302 28.2593 31.5498 28.3716 31.7061 28.4546C31.8623 28.5327 32.0454 28.5718 32.2554 28.5718C32.5728 28.5718 32.8486 28.5083 33.083 28.3813C33.3174 28.2544 33.498 28.0981 33.625 27.9126C33.7568 27.7271 33.8252 27.5513 33.8301 27.3853L34.3867 28.2788C34.3086 28.479 34.2012 28.6865 34.0645 28.9014C33.9326 29.1162 33.7642 29.3188 33.5591 29.5093C33.354 29.6948 33.1074 29.8486 32.8193 29.9707C32.5312 30.0879 32.1895 30.1465 31.7939 30.1465C31.291 30.1465 30.8345 30.0464 30.4243 29.8462C30.019 29.6411 29.6968 29.3604 29.4575 29.0039C29.2231 28.6426 29.106 28.2324 29.106 27.7734C29.106 27.3584 29.1841 26.9897 29.3403 26.6675C29.4966 26.3452 29.7261 26.0742 30.0288 25.8545C30.3364 25.6299 30.7197 25.4614 31.1787 25.3491C31.6377 25.2319 32.1699 25.1733 32.7754 25.1733H33.9985ZM42.8608 22.0752V23.7305H39.5649V30H37.4556V22.0752H42.8608ZM45.8784 23.5986V33.0469H43.769V22.0752H45.7246L45.8784 23.5986ZM50.8955 25.9497V26.1035C50.8955 26.6797 50.8271 27.2144 50.6904 27.7075C50.5586 28.2007 50.3633 28.6304 50.1045 28.9966C49.8457 29.3579 49.5234 29.6411 49.1377 29.8462C48.7568 30.0464 48.3174 30.1465 47.8193 30.1465C47.3359 30.1465 46.916 30.0488 46.5596 29.8535C46.2031 29.6582 45.9028 29.3848 45.6587 29.0332C45.4194 28.6768 45.2266 28.2642 45.0801 27.7954C44.9336 27.3267 44.8213 26.8237 44.7432 26.2866V25.8838C44.8213 25.3076 44.9336 24.7803 45.0801 24.3018C45.2266 23.8184 45.4194 23.4009 45.6587 23.0493C45.9028 22.6929 46.2007 22.417 46.5522 22.2217C46.9087 22.0264 47.3262 21.9287 47.8047 21.9287C48.3076 21.9287 48.7495 22.0239 49.1304 22.2144C49.5161 22.4048 49.8384 22.6782 50.0972 23.0347C50.3608 23.3911 50.5586 23.8159 50.6904 24.3091C50.8271 24.8022 50.8955 25.3491 50.8955 25.9497ZM48.7788 26.1035V25.9497C48.7788 25.6128 48.7495 25.3027 48.6909 25.0195C48.6372 24.7314 48.5493 24.48 48.4272 24.2651C48.3101 24.0503 48.1538 23.8843 47.9585 23.7671C47.7681 23.645 47.5361 23.584 47.2627 23.584C46.9746 23.584 46.728 23.6304 46.5229 23.7231C46.3228 23.8159 46.1592 23.9502 46.0322 24.126C45.9053 24.3018 45.8101 24.5117 45.7466 24.7559C45.6831 25 45.644 25.2759 45.6294 25.5835V26.6016C45.6538 26.9629 45.7222 27.2876 45.8345 27.5757C45.9468 27.8589 46.1201 28.0835 46.3545 28.2495C46.5889 28.4155 46.8965 28.4985 47.2773 28.4985C47.5557 28.4985 47.79 28.4375 47.9805 28.3154C48.1709 28.1885 48.3247 28.0151 48.4419 27.7954C48.564 27.5757 48.6494 27.3218 48.6982 27.0337C48.752 26.7456 48.7788 26.4355 48.7788 26.1035ZM54.4697 29.1064L56.5718 22.0752H58.835L55.6489 31.1938C55.5806 31.394 55.4878 31.6089 55.3706 31.8384C55.2583 32.0679 55.1045 32.2852 54.9092 32.4902C54.7188 32.7002 54.4771 32.8711 54.1841 33.0029C53.896 33.1348 53.542 33.2007 53.1221 33.2007C52.9219 33.2007 52.7583 33.1885 52.6313 33.1641C52.5044 33.1396 52.353 33.1055 52.1772 33.0615V31.5161C52.231 31.5161 52.2871 31.5161 52.3457 31.5161C52.4043 31.521 52.4604 31.5234 52.5142 31.5234C52.7925 31.5234 53.0195 31.4917 53.1953 31.4282C53.3711 31.3647 53.5127 31.2671 53.6201 31.1353C53.7275 31.0083 53.813 30.8423 53.8765 30.6372L54.4697 29.1064ZM53.5908 22.0752L55.312 27.8174L55.6123 30.0513L54.1768 30.2051L51.3276 22.0752H53.5908ZM62.4751 27.0117L59.1792 22.0752H61.7939L63.4785 25.0635H64.9946L64.7383 27.0117H62.4751ZM63.5078 26.6528L61.6987 30H59.1572L61.7866 25.6348L63.5078 26.6528ZM66.3643 22.0752V30H64.2549V22.0752H66.3643ZM71.4619 22.0752L68.166 27.0117H65.9028L65.6465 25.0635H67.1626L68.8398 22.0752H71.4619ZM68.9351 30L67.126 26.6528L68.9131 25.6348L71.5278 30H68.9351ZM76.0542 30.1465C75.439 30.1465 74.8872 30.0488 74.3989 29.8535C73.9106 29.6533 73.4956 29.3774 73.1538 29.0259C72.8169 28.6743 72.5581 28.2666 72.3774 27.8027C72.1968 27.334 72.1064 26.8359 72.1064 26.3086V26.0156C72.1064 25.415 72.1919 24.8657 72.3628 24.3677C72.5337 23.8696 72.7778 23.4375 73.0952 23.0713C73.4175 22.7051 73.8081 22.4243 74.2671 22.229C74.7261 22.0288 75.2437 21.9287 75.8198 21.9287C76.3813 21.9287 76.8794 22.0215 77.314 22.207C77.7485 22.3926 78.1123 22.6562 78.4053 22.998C78.7031 23.3398 78.9277 23.75 79.0791 24.2285C79.2305 24.7021 79.3062 25.2295 79.3062 25.8105V26.6895H73.0073V25.2832H77.2334V25.1221C77.2334 24.8291 77.1797 24.5679 77.0723 24.3384C76.9697 24.104 76.8135 23.9185 76.6035 23.7817C76.3936 23.645 76.125 23.5767 75.7979 23.5767C75.5195 23.5767 75.2803 23.6377 75.0801 23.7598C74.8799 23.8818 74.7163 24.0527 74.5894 24.2725C74.4673 24.4922 74.3745 24.751 74.311 25.0488C74.2524 25.3418 74.2231 25.6641 74.2231 26.0156V26.3086C74.2231 26.626 74.2671 26.9189 74.355 27.1875C74.4478 27.4561 74.5771 27.688 74.7432 27.8833C74.9141 28.0786 75.1191 28.23 75.3584 28.3374C75.6025 28.4448 75.8784 28.4985 76.186 28.4985C76.5669 28.4985 76.9209 28.4253 77.248 28.2788C77.5801 28.1274 77.8657 27.9004 78.105 27.5977L79.1304 28.7109C78.9644 28.9502 78.7373 29.1797 78.4492 29.3994C78.166 29.6191 77.8242 29.7998 77.4238 29.9414C77.0234 30.0781 76.5669 30.1465 76.0542 30.1465ZM85.9346 25.2759V26.9165H81.9062V25.2759H85.9346ZM82.6094 22.0752V30H80.5V22.0752H82.6094ZM87.3628 22.0752V30H85.2461V22.0752H87.3628ZM88.6665 26.1182V25.9644C88.6665 25.3833 88.7495 24.8486 88.9155 24.3604C89.0815 23.8672 89.3232 23.4399 89.6406 23.0786C89.958 22.7173 90.3486 22.4365 90.8125 22.2363C91.2764 22.0312 91.8086 21.9287 92.4092 21.9287C93.0098 21.9287 93.5444 22.0312 94.0132 22.2363C94.4819 22.4365 94.875 22.7173 95.1924 23.0786C95.5146 23.4399 95.7588 23.8672 95.9248 24.3604C96.0908 24.8486 96.1738 25.3833 96.1738 25.9644V26.1182C96.1738 26.6943 96.0908 27.229 95.9248 27.7222C95.7588 28.2104 95.5146 28.6377 95.1924 29.0039C94.875 29.3652 94.4844 29.646 94.0205 29.8462C93.5566 30.0464 93.0244 30.1465 92.4238 30.1465C91.8232 30.1465 91.2886 30.0464 90.8198 29.8462C90.356 29.646 89.9629 29.3652 89.6406 29.0039C89.3232 28.6377 89.0815 28.2104 88.9155 27.7222C88.7495 27.229 88.6665 26.6943 88.6665 26.1182ZM90.7759 25.9644V26.1182C90.7759 26.4502 90.8052 26.7603 90.8638 27.0483C90.9224 27.3364 91.0151 27.5903 91.1421 27.8101C91.2739 28.0249 91.4448 28.1934 91.6548 28.3154C91.8647 28.4375 92.1211 28.4985 92.4238 28.4985C92.7168 28.4985 92.9683 28.4375 93.1782 28.3154C93.3882 28.1934 93.5566 28.0249 93.6836 27.8101C93.8105 27.5903 93.9033 27.3364 93.9619 27.0483C94.0254 26.7603 94.0571 26.4502 94.0571 26.1182V25.9644C94.0571 25.6421 94.0254 25.3394 93.9619 25.0562C93.9033 24.7681 93.8081 24.5142 93.6763 24.2944C93.5493 24.0698 93.3809 23.894 93.1709 23.7671C92.9609 23.6401 92.707 23.5767 92.4092 23.5767C92.1113 23.5767 91.8574 23.6401 91.6475 23.7671C91.4424 23.894 91.2739 24.0698 91.1421 24.2944C91.0151 24.5142 90.9224 24.7681 90.8638 25.0562C90.8052 25.3394 90.7759 25.6421 90.7759 25.9644Z" fill="black" fill-opacity="0.25"/>
<path d="M23.2866 23.8877H21.6313V22.7231H22.9497C23.3354 22.7231 23.6479 22.6646 23.8872 22.5474C24.1265 22.4253 24.3022 22.2544 24.4146 22.0347C24.5269 21.8149 24.583 21.5562 24.583 21.2583C24.583 21.0142 24.5195 20.7896 24.3926 20.5845C24.2705 20.3794 24.0801 20.2158 23.8213 20.0938C23.5625 19.9668 23.2329 19.9033 22.8325 19.9033C22.5298 19.9033 22.2539 19.957 22.0049 20.0645C21.7559 20.1719 21.5581 20.3232 21.4116 20.5186C21.2651 20.709 21.1919 20.9409 21.1919 21.2144H19.002C19.002 20.7456 19.1021 20.3257 19.3022 19.9546C19.5073 19.5786 19.7856 19.2612 20.1372 19.0024C20.4937 18.7388 20.9038 18.5386 21.3677 18.4019C21.8315 18.2651 22.3198 18.1968 22.8325 18.1968C23.4331 18.1968 23.9751 18.2627 24.4585 18.3945C24.9419 18.5215 25.3569 18.7119 25.7036 18.9658C26.0503 19.2197 26.3164 19.5347 26.502 19.9106C26.6875 20.2866 26.7803 20.7236 26.7803 21.2217C26.7803 21.5879 26.6973 21.9321 26.5312 22.2544C26.3652 22.5767 26.1284 22.8599 25.8208 23.104C25.5132 23.3481 25.1445 23.541 24.7148 23.6826C24.2852 23.8193 23.8091 23.8877 23.2866 23.8877ZM21.6313 23.2505H23.2866C23.8677 23.2505 24.3828 23.3115 24.832 23.4336C25.2861 23.5557 25.6694 23.7339 25.9819 23.9683C26.2993 24.2026 26.5386 24.4932 26.6997 24.8398C26.8657 25.1816 26.9487 25.5747 26.9487 26.019C26.9487 26.5171 26.8462 26.959 26.6411 27.3447C26.4409 27.7305 26.1553 28.0576 25.7842 28.3262C25.418 28.5947 24.9834 28.7974 24.4805 28.9341C23.9824 29.0708 23.4331 29.1392 22.8325 29.1392C22.354 29.1392 21.8779 29.0806 21.4043 28.9634C20.9307 28.8413 20.501 28.6558 20.1152 28.4067C19.7295 28.1577 19.4219 27.8379 19.1924 27.4473C18.9629 27.0566 18.8481 26.5879 18.8481 26.041H21.0527C21.0527 26.2998 21.1284 26.5366 21.2798 26.7515C21.4312 26.9614 21.6411 27.1299 21.9097 27.2568C22.1782 27.3789 22.4858 27.4399 22.8325 27.4399C23.2378 27.4399 23.582 27.3765 23.8652 27.2495C24.1533 27.1226 24.3706 26.9492 24.5171 26.7295C24.6685 26.5049 24.7441 26.2583 24.7441 25.9897C24.7441 25.7017 24.7051 25.4575 24.627 25.2573C24.5488 25.0571 24.4341 24.8936 24.2827 24.7666C24.1313 24.6348 23.9434 24.5396 23.7188 24.481C23.499 24.4224 23.2427 24.3931 22.9497 24.3931H21.6313V23.2505ZM32.7202 27.2129V23.6826C32.7202 23.4287 32.6787 23.2114 32.5957 23.0308C32.5127 22.8452 32.3833 22.7012 32.2075 22.5986C32.0366 22.4961 31.8145 22.4448 31.541 22.4448C31.3066 22.4448 31.104 22.4863 30.9331 22.5693C30.7622 22.6475 30.6304 22.7622 30.5376 22.9136C30.4448 23.0601 30.3984 23.2334 30.3984 23.4336H28.2891C28.2891 23.0967 28.3672 22.7769 28.5234 22.4741C28.6797 22.1714 28.9067 21.9053 29.2046 21.6758C29.5024 21.4414 29.8564 21.2583 30.2666 21.1265C30.6816 20.9946 31.1455 20.9287 31.6582 20.9287C32.2734 20.9287 32.8203 21.0312 33.2988 21.2363C33.7773 21.4414 34.1533 21.749 34.4268 22.1592C34.7051 22.5693 34.8442 23.082 34.8442 23.6973V27.0884C34.8442 27.5229 34.8711 27.8794 34.9248 28.1577C34.9785 28.4312 35.0566 28.6704 35.1592 28.8755V29H33.0278C32.9253 28.7852 32.8472 28.5166 32.7935 28.1943C32.7446 27.8672 32.7202 27.54 32.7202 27.2129ZM32.9985 24.1733L33.0132 25.3672H31.834C31.5557 25.3672 31.314 25.3989 31.1089 25.4624C30.9038 25.5259 30.7354 25.6162 30.6035 25.7334C30.4717 25.8457 30.374 25.9775 30.3105 26.1289C30.252 26.2803 30.2227 26.4463 30.2227 26.627C30.2227 26.8076 30.2642 26.9712 30.3472 27.1177C30.4302 27.2593 30.5498 27.3716 30.7061 27.4546C30.8623 27.5327 31.0454 27.5718 31.2554 27.5718C31.5728 27.5718 31.8486 27.5083 32.083 27.3813C32.3174 27.2544 32.498 27.0981 32.625 26.9126C32.7568 26.7271 32.8252 26.5513 32.8301 26.3853L33.3867 27.2788C33.3086 27.479 33.2012 27.6865 33.0645 27.9014C32.9326 28.1162 32.7642 28.3188 32.5591 28.5093C32.354 28.6948 32.1074 28.8486 31.8193 28.9707C31.5312 29.0879 31.1895 29.1465 30.7939 29.1465C30.291 29.1465 29.8345 29.0464 29.4243 28.8462C29.019 28.6411 28.6968 28.3604 28.4575 28.0039C28.2231 27.6426 28.106 27.2324 28.106 26.7734C28.106 26.3584 28.1841 25.9897 28.3403 25.6675C28.4966 25.3452 28.7261 25.0742 29.0288 24.8545C29.3364 24.6299 29.7197 24.4614 30.1787 24.3491C30.6377 24.2319 31.1699 24.1733 31.7754 24.1733H32.9985ZM41.8608 21.0752V22.7305H38.5649V29H36.4556V21.0752H41.8608ZM44.8784 22.5986V32.0469H42.769V21.0752H44.7246L44.8784 22.5986ZM49.8955 24.9497V25.1035C49.8955 25.6797 49.8271 26.2144 49.6904 26.7075C49.5586 27.2007 49.3633 27.6304 49.1045 27.9966C48.8457 28.3579 48.5234 28.6411 48.1377 28.8462C47.7568 29.0464 47.3174 29.1465 46.8193 29.1465C46.3359 29.1465 45.916 29.0488 45.5596 28.8535C45.2031 28.6582 44.9028 28.3848 44.6587 28.0332C44.4194 27.6768 44.2266 27.2642 44.0801 26.7954C43.9336 26.3267 43.8213 25.8237 43.7432 25.2866V24.8838C43.8213 24.3076 43.9336 23.7803 44.0801 23.3018C44.2266 22.8184 44.4194 22.4009 44.6587 22.0493C44.9028 21.6929 45.2007 21.417 45.5522 21.2217C45.9087 21.0264 46.3262 20.9287 46.8047 20.9287C47.3076 20.9287 47.7495 21.0239 48.1304 21.2144C48.5161 21.4048 48.8384 21.6782 49.0972 22.0347C49.3608 22.3911 49.5586 22.8159 49.6904 23.3091C49.8271 23.8022 49.8955 24.3491 49.8955 24.9497ZM47.7788 25.1035V24.9497C47.7788 24.6128 47.7495 24.3027 47.6909 24.0195C47.6372 23.7314 47.5493 23.48 47.4272 23.2651C47.3101 23.0503 47.1538 22.8843 46.9585 22.7671C46.7681 22.645 46.5361 22.584 46.2627 22.584C45.9746 22.584 45.728 22.6304 45.5229 22.7231C45.3228 22.8159 45.1592 22.9502 45.0322 23.126C44.9053 23.3018 44.8101 23.5117 44.7466 23.7559C44.6831 24 44.644 24.2759 44.6294 24.5835V25.6016C44.6538 25.9629 44.7222 26.2876 44.8345 26.5757C44.9468 26.8589 45.1201 27.0835 45.3545 27.2495C45.5889 27.4155 45.8965 27.4985 46.2773 27.4985C46.5557 27.4985 46.79 27.4375 46.9805 27.3154C47.1709 27.1885 47.3247 27.0151 47.4419 26.7954C47.564 26.5757 47.6494 26.3218 47.6982 26.0337C47.752 25.7456 47.7788 25.4355 47.7788 25.1035ZM53.4697 28.1064L55.5718 21.0752H57.835L54.6489 30.1938C54.5806 30.394 54.4878 30.6089 54.3706 30.8384C54.2583 31.0679 54.1045 31.2852 53.9092 31.4902C53.7188 31.7002 53.4771 31.8711 53.1841 32.0029C52.896 32.1348 52.542 32.2007 52.1221 32.2007C51.9219 32.2007 51.7583 32.1885 51.6313 32.1641C51.5044 32.1396 51.353 32.1055 51.1772 32.0615V30.5161C51.231 30.5161 51.2871 30.5161 51.3457 30.5161C51.4043 30.521 51.4604 30.5234 51.5142 30.5234C51.7925 30.5234 52.0195 30.4917 52.1953 30.4282C52.3711 30.3647 52.5127 30.2671 52.6201 30.1353C52.7275 30.0083 52.813 29.8423 52.8765 29.6372L53.4697 28.1064ZM52.5908 21.0752L54.312 26.8174L54.6123 29.0513L53.1768 29.2051L50.3276 21.0752H52.5908ZM61.4751 26.0117L58.1792 21.0752H60.7939L62.4785 24.0635H63.9946L63.7383 26.0117H61.4751ZM62.5078 25.6528L60.6987 29H58.1572L60.7866 24.6348L62.5078 25.6528ZM65.3643 21.0752V29H63.2549V21.0752H65.3643ZM70.4619 21.0752L67.166 26.0117H64.9028L64.6465 24.0635H66.1626L67.8398 21.0752H70.4619ZM67.9351 29L66.126 25.6528L67.9131 24.6348L70.5278 29H67.9351ZM75.0542 29.1465C74.439 29.1465 73.8872 29.0488 73.3989 28.8535C72.9106 28.6533 72.4956 28.3774 72.1538 28.0259C71.8169 27.6743 71.5581 27.2666 71.3774 26.8027C71.1968 26.334 71.1064 25.8359 71.1064 25.3086V25.0156C71.1064 24.415 71.1919 23.8657 71.3628 23.3677C71.5337 22.8696 71.7778 22.4375 72.0952 22.0713C72.4175 21.7051 72.8081 21.4243 73.2671 21.229C73.7261 21.0288 74.2437 20.9287 74.8198 20.9287C75.3813 20.9287 75.8794 21.0215 76.314 21.207C76.7485 21.3926 77.1123 21.6562 77.4053 21.998C77.7031 22.3398 77.9277 22.75 78.0791 23.2285C78.2305 23.7021 78.3062 24.2295 78.3062 24.8105V25.6895H72.0073V24.2832H76.2334V24.1221C76.2334 23.8291 76.1797 23.5679 76.0723 23.3384C75.9697 23.104 75.8135 22.9185 75.6035 22.7817C75.3936 22.645 75.125 22.5767 74.7979 22.5767C74.5195 22.5767 74.2803 22.6377 74.0801 22.7598C73.8799 22.8818 73.7163 23.0527 73.5894 23.2725C73.4673 23.4922 73.3745 23.751 73.311 24.0488C73.2524 24.3418 73.2231 24.6641 73.2231 25.0156V25.3086C73.2231 25.626 73.2671 25.9189 73.355 26.1875C73.4478 26.4561 73.5771 26.688 73.7432 26.8833C73.9141 27.0786 74.1191 27.23 74.3584 27.3374C74.6025 27.4448 74.8784 27.4985 75.186 27.4985C75.5669 27.4985 75.9209 27.4253 76.248 27.2788C76.5801 27.1274 76.8657 26.9004 77.105 26.5977L78.1304 27.7109C77.9644 27.9502 77.7373 28.1797 77.4492 28.3994C77.166 28.6191 76.8242 28.7998 76.4238 28.9414C76.0234 29.0781 75.5669 29.1465 75.0542 29.1465ZM84.9346 24.2759V25.9165H80.9062V24.2759H84.9346ZM81.6094 21.0752V29H79.5V21.0752H81.6094ZM86.3628 21.0752V29H84.2461V21.0752H86.3628ZM87.6665 25.1182V24.9644C87.6665 24.3833 87.7495 23.8486 87.9155 23.3604C88.0815 22.8672 88.3232 22.4399 88.6406 22.0786C88.958 21.7173 89.3486 21.4365 89.8125 21.2363C90.2764 21.0312 90.8086 20.9287 91.4092 20.9287C92.0098 20.9287 92.5444 21.0312 93.0132 21.2363C93.4819 21.4365 93.875 21.7173 94.1924 22.0786C94.5146 22.4399 94.7588 22.8672 94.9248 23.3604C95.0908 23.8486 95.1738 24.3833 95.1738 24.9644V25.1182C95.1738 25.6943 95.0908 26.229 94.9248 26.7222C94.7588 27.2104 94.5146 27.6377 94.1924 28.0039C93.875 28.3652 93.4844 28.646 93.0205 28.8462C92.5566 29.0464 92.0244 29.1465 91.4238 29.1465C90.8232 29.1465 90.2886 29.0464 89.8198 28.8462C89.356 28.646 88.9629 28.3652 88.6406 28.0039C88.3232 27.6377 88.0815 27.2104 87.9155 26.7222C87.7495 26.229 87.6665 25.6943 87.6665 25.1182ZM89.7759 24.9644V25.1182C89.7759 25.4502 89.8052 25.7603 89.8638 26.0483C89.9224 26.3364 90.0151 26.5903 90.1421 26.8101C90.2739 27.0249 90.4448 27.1934 90.6548 27.3154C90.8647 27.4375 91.1211 27.4985 91.4238 27.4985C91.7168 27.4985 91.9683 27.4375 92.1782 27.3154C92.3882 27.1934 92.5566 27.0249 92.6836 26.8101C92.8105 26.5903 92.9033 26.3364 92.9619 26.0483C93.0254 25.7603 93.0571 25.4502 93.0571 25.1182V24.9644C93.0571 24.6421 93.0254 24.3394 92.9619 24.0562C92.9033 23.7681 92.8081 23.5142 92.6763 23.2944C92.5493 23.0698 92.3809 22.894 92.1709 22.7671C91.9609 22.6401 91.707 22.5767 91.4092 22.5767C91.1113 22.5767 90.8574 22.6401 90.6475 22.7671C90.4424 22.894 90.2739 23.0698 90.1421 23.2944C90.0151 23.5142 89.9224 23.7681 89.8638 24.0562C89.8052 24.3394 89.7759 24.6421 89.7759 24.9644Z" fill="white"/>
<path d="M53.8132 61H62.1973C63.5911 61 64.7125 62.1427 64.7125 63.563V81.504H73.9035C75.7689 81.504 76.7017 83.8 75.3812 85.1456L59.441 101.399C58.655 102.2 57.366 102.2 56.58 101.399L40.6188 85.1456C39.2983 83.8 40.2311 81.504 42.0965 81.504H51.298V63.563C51.298 62.1427 52.4194 61 53.8132 61Z" fill="white"/>
</g>
<defs>
<clipPath id="clip0_1992_2257">
<rect width="116" height="116" rx="10" fill="white"/>
</clipPath>
</defs>
</svg>
