<svg width="116" height="116" viewBox="0 0 116 116" fill="none" xmlns="http://www.w3.org/2000/svg">
<g clip-path="url(#clip0_1992_2266)">
<rect width="116" height="116" fill="#5558AF"/>
<rect x="8" y="43" width="100" height="85" rx="10" fill="#323572"/>
<path d="M25.5923 30H23.2705L23.2852 28.2861H25.5923C26.1685 28.2861 26.6543 28.1567 27.0498 27.8979C27.4453 27.6343 27.7432 27.251 27.9434 26.748C28.1484 26.2451 28.251 25.6372 28.251 24.9243V24.4043C28.251 23.8574 28.1924 23.3765 28.0752 22.9614C27.9629 22.5464 27.7944 22.1973 27.5698 21.9141C27.3452 21.6309 27.0693 21.4185 26.7422 21.2769C26.415 21.1304 26.0391 21.0571 25.6143 21.0571H23.2266V19.3359H25.6143C26.3271 19.3359 26.979 19.458 27.5698 19.7021C28.1655 19.9414 28.6807 20.2856 29.1152 20.7349C29.5498 21.1841 29.8843 21.7212 30.1187 22.3462C30.3579 22.9663 30.4775 23.6572 30.4775 24.4189V24.9243C30.4775 25.6812 30.3579 26.3721 30.1187 26.9971C29.8843 27.6221 29.5498 28.1592 29.1152 28.6084C28.6855 29.0527 28.1704 29.397 27.5698 29.6411C26.9741 29.8804 26.3149 30 25.5923 30ZM24.5156 19.3359V30H22.3184V19.3359H24.5156ZM31.6055 26.1182V25.9644C31.6055 25.3833 31.6885 24.8486 31.8545 24.3604C32.0205 23.8672 32.2622 23.4399 32.5796 23.0786C32.897 22.7173 33.2876 22.4365 33.7515 22.2363C34.2153 22.0312 34.7476 21.9287 35.3481 21.9287C35.9487 21.9287 36.4834 22.0312 36.9521 22.2363C37.4209 22.4365 37.814 22.7173 38.1313 23.0786C38.4536 23.4399 38.6978 23.8672 38.8638 24.3604C39.0298 24.8486 39.1128 25.3833 39.1128 25.9644V26.1182C39.1128 26.6943 39.0298 27.229 38.8638 27.7222C38.6978 28.2104 38.4536 28.6377 38.1313 29.0039C37.814 29.3652 37.4233 29.646 36.9595 29.8462C36.4956 30.0464 35.9634 30.1465 35.3628 30.1465C34.7622 30.1465 34.2275 30.0464 33.7588 29.8462C33.2949 29.646 32.9019 29.3652 32.5796 29.0039C32.2622 28.6377 32.0205 28.2104 31.8545 27.7222C31.6885 27.229 31.6055 26.6943 31.6055 26.1182ZM33.7148 25.9644V26.1182C33.7148 26.4502 33.7441 26.7603 33.8027 27.0483C33.8613 27.3364 33.9541 27.5903 34.0811 27.8101C34.2129 28.0249 34.3838 28.1934 34.5938 28.3154C34.8037 28.4375 35.0601 28.4985 35.3628 28.4985C35.6558 28.4985 35.9072 28.4375 36.1172 28.3154C36.3271 28.1934 36.4956 28.0249 36.6226 27.8101C36.7495 27.5903 36.8423 27.3364 36.9009 27.0483C36.9644 26.7603 36.9961 26.4502 36.9961 26.1182V25.9644C36.9961 25.6421 36.9644 25.3394 36.9009 25.0562C36.8423 24.7681 36.7471 24.5142 36.6152 24.2944C36.4883 24.0698 36.3198 23.894 36.1099 23.7671C35.8999 23.6401 35.646 23.5767 35.3481 23.5767C35.0503 23.5767 34.7964 23.6401 34.5864 23.7671C34.3813 23.894 34.2129 24.0698 34.0811 24.2944C33.9541 24.5142 33.8613 24.7681 33.8027 25.0562C33.7441 25.3394 33.7148 25.6421 33.7148 25.9644ZM42.6724 27.9492L44.3203 22.0752H45.6606L45.2285 24.3823L43.5806 30H42.46L42.6724 27.9492ZM41.8374 22.0752L43.0166 27.9419L43.1265 30H41.8081L39.8013 22.0752H41.8374ZM47.1694 27.8467L48.3193 22.0752H50.3628L48.356 30H47.0449L47.1694 27.8467ZM45.8438 22.0752L47.4844 27.9053L47.7114 30H46.5835L44.9355 24.3896L44.5181 22.0752H45.8438ZM53.4902 23.7671V30H51.3809V22.0752H53.3584L53.4902 23.7671ZM53.1826 25.7593H52.6113C52.6113 25.1733 52.687 24.646 52.8384 24.1772C52.9897 23.7036 53.2021 23.3008 53.4756 22.9688C53.749 22.6318 54.0737 22.3755 54.4497 22.1997C54.8306 22.019 55.2554 21.9287 55.7241 21.9287C56.0952 21.9287 56.4346 21.9824 56.7422 22.0898C57.0498 22.1973 57.3135 22.3682 57.5332 22.6025C57.7578 22.8369 57.9287 23.147 58.0459 23.5327C58.168 23.9185 58.229 24.3896 58.229 24.9463V30H56.105V24.939C56.105 24.5874 56.0562 24.314 55.9585 24.1187C55.8608 23.9233 55.7168 23.7866 55.5264 23.7085C55.3408 23.6255 55.1113 23.584 54.8379 23.584C54.5547 23.584 54.3081 23.6401 54.0981 23.7524C53.8931 23.8647 53.7222 24.021 53.5854 24.2212C53.4536 24.4165 53.3535 24.646 53.2852 24.9097C53.2168 25.1733 53.1826 25.4565 53.1826 25.7593ZM62.0596 18.75V30H59.9429V18.75H62.0596ZM63.4658 26.1182V25.9644C63.4658 25.3833 63.5488 24.8486 63.7148 24.3604C63.8809 23.8672 64.1226 23.4399 64.4399 23.0786C64.7573 22.7173 65.1479 22.4365 65.6118 22.2363C66.0757 22.0312 66.6079 21.9287 67.2085 21.9287C67.8091 21.9287 68.3438 22.0312 68.8125 22.2363C69.2812 22.4365 69.6743 22.7173 69.9917 23.0786C70.314 23.4399 70.5581 23.8672 70.7241 24.3604C70.8901 24.8486 70.9731 25.3833 70.9731 25.9644V26.1182C70.9731 26.6943 70.8901 27.229 70.7241 27.7222C70.5581 28.2104 70.314 28.6377 69.9917 29.0039C69.6743 29.3652 69.2837 29.646 68.8198 29.8462C68.356 30.0464 67.8237 30.1465 67.2231 30.1465C66.6226 30.1465 66.0879 30.0464 65.6191 29.8462C65.1553 29.646 64.7622 29.3652 64.4399 29.0039C64.1226 28.6377 63.8809 28.2104 63.7148 27.7222C63.5488 27.229 63.4658 26.6943 63.4658 26.1182ZM65.5752 25.9644V26.1182C65.5752 26.4502 65.6045 26.7603 65.6631 27.0483C65.7217 27.3364 65.8145 27.5903 65.9414 27.8101C66.0732 28.0249 66.2441 28.1934 66.4541 28.3154C66.6641 28.4375 66.9204 28.4985 67.2231 28.4985C67.5161 28.4985 67.7676 28.4375 67.9775 28.3154C68.1875 28.1934 68.356 28.0249 68.4829 27.8101C68.6099 27.5903 68.7026 27.3364 68.7612 27.0483C68.8247 26.7603 68.8564 26.4502 68.8564 26.1182V25.9644C68.8564 25.6421 68.8247 25.3394 68.7612 25.0562C68.7026 24.7681 68.6074 24.5142 68.4756 24.2944C68.3486 24.0698 68.1802 23.894 67.9702 23.7671C67.7603 23.6401 67.5063 23.5767 67.2085 23.5767C66.9106 23.5767 66.6567 23.6401 66.4468 23.7671C66.2417 23.894 66.0732 24.0698 65.9414 24.2944C65.8145 24.5142 65.7217 24.7681 65.6631 25.0562C65.6045 25.3394 65.5752 25.6421 65.5752 25.9644ZM76.5469 28.2129V24.6826C76.5469 24.4287 76.5054 24.2114 76.4224 24.0308C76.3394 23.8452 76.21 23.7012 76.0342 23.5986C75.8633 23.4961 75.6411 23.4448 75.3677 23.4448C75.1333 23.4448 74.9307 23.4863 74.7598 23.5693C74.5889 23.6475 74.457 23.7622 74.3643 23.9136C74.2715 24.0601 74.2251 24.2334 74.2251 24.4336H72.1157C72.1157 24.0967 72.1938 23.7769 72.3501 23.4741C72.5063 23.1714 72.7334 22.9053 73.0312 22.6758C73.3291 22.4414 73.6831 22.2583 74.0933 22.1265C74.5083 21.9946 74.9722 21.9287 75.4849 21.9287C76.1001 21.9287 76.647 22.0312 77.1255 22.2363C77.604 22.4414 77.98 22.749 78.2534 23.1592C78.5317 23.5693 78.6709 24.082 78.6709 24.6973V28.0884C78.6709 28.5229 78.6978 28.8794 78.7515 29.1577C78.8052 29.4312 78.8833 29.6704 78.9858 29.8755V30H76.8545C76.752 29.7852 76.6738 29.5166 76.6201 29.1943C76.5713 28.8672 76.5469 28.54 76.5469 28.2129ZM76.8252 25.1733L76.8398 26.3672H75.6606C75.3823 26.3672 75.1406 26.3989 74.9355 26.4624C74.7305 26.5259 74.562 26.6162 74.4302 26.7334C74.2983 26.8457 74.2007 26.9775 74.1372 27.1289C74.0786 27.2803 74.0493 27.4463 74.0493 27.627C74.0493 27.8076 74.0908 27.9712 74.1738 28.1177C74.2568 28.2593 74.3765 28.3716 74.5327 28.4546C74.689 28.5327 74.8721 28.5718 75.082 28.5718C75.3994 28.5718 75.6753 28.5083 75.9097 28.3813C76.144 28.2544 76.3247 28.0981 76.4517 27.9126C76.5835 27.7271 76.6519 27.5513 76.6567 27.3853L77.2134 28.2788C77.1353 28.479 77.0278 28.6865 76.8911 28.9014C76.7593 29.1162 76.5908 29.3188 76.3857 29.5093C76.1807 29.6948 75.9341 29.8486 75.646 29.9707C75.3579 30.0879 75.0161 30.1465 74.6206 30.1465C74.1177 30.1465 73.6611 30.0464 73.251 29.8462C72.8457 29.6411 72.5234 29.3604 72.2842 29.0039C72.0498 28.6426 71.9326 28.2324 71.9326 27.7734C71.9326 27.3584 72.0107 26.9897 72.167 26.6675C72.3232 26.3452 72.5527 26.0742 72.8555 25.8545C73.1631 25.6299 73.5464 25.4614 74.0054 25.3491C74.4644 25.2319 74.9966 25.1733 75.6021 25.1733H76.8252ZM84.9771 28.2715V18.75H87.1011V30H85.1895L84.9771 28.2715ZM79.9673 26.1328V25.979C79.9673 25.3735 80.0356 24.8242 80.1724 24.3311C80.3091 23.833 80.5093 23.4058 80.7729 23.0493C81.0366 22.6929 81.3613 22.417 81.7471 22.2217C82.1328 22.0264 82.5723 21.9287 83.0654 21.9287C83.5293 21.9287 83.9346 22.0264 84.2812 22.2217C84.6328 22.417 84.9307 22.6953 85.1748 23.0566C85.4238 23.4131 85.624 23.8354 85.7754 24.3237C85.9268 24.8071 86.0366 25.3369 86.105 25.9131V26.25C86.0366 26.8018 85.9268 27.3145 85.7754 27.7881C85.624 28.2617 85.4238 28.6768 85.1748 29.0332C84.9307 29.3848 84.6328 29.6582 84.2812 29.8535C83.9297 30.0488 83.5195 30.1465 83.0508 30.1465C82.5576 30.1465 82.1182 30.0464 81.7324 29.8462C81.3516 29.646 81.0293 29.3652 80.7656 29.0039C80.5068 28.6426 80.3091 28.2178 80.1724 27.7295C80.0356 27.2412 79.9673 26.709 79.9673 26.1328ZM82.0767 25.979V26.1328C82.0767 26.46 82.1011 26.7651 82.1499 27.0483C82.2036 27.3315 82.2891 27.583 82.4062 27.8027C82.5283 28.0176 82.6846 28.186 82.875 28.3081C83.0703 28.4253 83.3071 28.4839 83.5854 28.4839C83.9468 28.4839 84.2446 28.4033 84.479 28.2422C84.7134 28.0762 84.8916 27.8491 85.0137 27.561C85.1406 27.2729 85.2139 26.9409 85.2334 26.5649V25.6055C85.2188 25.2979 85.1748 25.022 85.1016 24.7778C85.0332 24.5288 84.9307 24.3164 84.7939 24.1406C84.6621 23.9648 84.4961 23.8281 84.2959 23.7305C84.1006 23.6328 83.8687 23.584 83.6001 23.584C83.3267 23.584 83.0923 23.6475 82.897 23.7744C82.7017 23.8965 82.543 24.0649 82.4209 24.2798C82.3037 24.4946 82.2158 24.7485 82.1572 25.0415C82.1035 25.3296 82.0767 25.6421 82.0767 25.979ZM93.0337 27.8101C93.0337 27.6587 92.9897 27.522 92.9019 27.3999C92.814 27.2778 92.6504 27.1655 92.4111 27.063C92.1768 26.9556 91.8374 26.8579 91.3931 26.77C90.9927 26.6821 90.6191 26.5723 90.2725 26.4404C89.9307 26.3037 89.6328 26.1401 89.3789 25.9497C89.1299 25.7593 88.9346 25.5347 88.793 25.2759C88.6514 25.0122 88.5806 24.7119 88.5806 24.375C88.5806 24.043 88.6514 23.7305 88.793 23.4375C88.9395 23.1445 89.147 22.8857 89.4155 22.6611C89.689 22.4316 90.021 22.2534 90.4116 22.1265C90.8071 21.9946 91.2515 21.9287 91.7446 21.9287C92.4331 21.9287 93.0239 22.0386 93.5171 22.2583C94.0151 22.478 94.396 22.7808 94.6597 23.1665C94.9282 23.5474 95.0625 23.9819 95.0625 24.4702H92.9531C92.9531 24.2651 92.9092 24.082 92.8213 23.9209C92.7383 23.7549 92.6064 23.6255 92.4258 23.5327C92.25 23.4351 92.0205 23.3862 91.7373 23.3862C91.5029 23.3862 91.3003 23.4277 91.1294 23.5107C90.9585 23.5889 90.8267 23.6963 90.7339 23.833C90.646 23.9648 90.6021 24.1113 90.6021 24.2725C90.6021 24.3945 90.6265 24.5044 90.6753 24.6021C90.729 24.6948 90.8145 24.7803 90.9316 24.8584C91.0488 24.9365 91.2002 25.0098 91.3857 25.0781C91.5762 25.1416 91.8105 25.2002 92.0889 25.2539C92.6602 25.3711 93.1704 25.5249 93.6196 25.7153C94.0688 25.9009 94.4253 26.1548 94.689 26.4771C94.9526 26.7944 95.0845 27.2119 95.0845 27.7295C95.0845 28.0811 95.0063 28.4033 94.8501 28.6963C94.6938 28.9893 94.4692 29.2456 94.1763 29.4653C93.8833 29.6802 93.5317 29.8486 93.1216 29.9707C92.7163 30.0879 92.2598 30.1465 91.752 30.1465C91.0146 30.1465 90.3896 30.0146 89.877 29.751C89.3691 29.4873 88.9834 29.1528 88.7197 28.7476C88.4609 28.3374 88.3315 27.9175 88.3315 27.4878H90.3311C90.3408 27.7759 90.4141 28.0078 90.5508 28.1836C90.6924 28.3594 90.8706 28.4863 91.0854 28.5645C91.3052 28.6426 91.542 28.6816 91.7959 28.6816C92.0693 28.6816 92.2964 28.645 92.4771 28.5718C92.6577 28.4937 92.7944 28.3911 92.8872 28.2642C92.9849 28.1323 93.0337 27.981 93.0337 27.8101Z" fill="black" fill-opacity="0.25"/>
<path d="M24.5923 29H22.2705L22.2852 27.2861H24.5923C25.1685 27.2861 25.6543 27.1567 26.0498 26.8979C26.4453 26.6343 26.7432 26.251 26.9434 25.748C27.1484 25.2451 27.251 24.6372 27.251 23.9243V23.4043C27.251 22.8574 27.1924 22.3765 27.0752 21.9614C26.9629 21.5464 26.7944 21.1973 26.5698 20.9141C26.3452 20.6309 26.0693 20.4185 25.7422 20.2769C25.415 20.1304 25.0391 20.0571 24.6143 20.0571H22.2266V18.3359H24.6143C25.3271 18.3359 25.979 18.458 26.5698 18.7021C27.1655 18.9414 27.6807 19.2856 28.1152 19.7349C28.5498 20.1841 28.8843 20.7212 29.1187 21.3462C29.3579 21.9663 29.4775 22.6572 29.4775 23.4189V23.9243C29.4775 24.6812 29.3579 25.3721 29.1187 25.9971C28.8843 26.6221 28.5498 27.1592 28.1152 27.6084C27.6855 28.0527 27.1704 28.397 26.5698 28.6411C25.9741 28.8804 25.3149 29 24.5923 29ZM23.5156 18.3359V29H21.3184V18.3359H23.5156ZM30.6055 25.1182V24.9644C30.6055 24.3833 30.6885 23.8486 30.8545 23.3604C31.0205 22.8672 31.2622 22.4399 31.5796 22.0786C31.897 21.7173 32.2876 21.4365 32.7515 21.2363C33.2153 21.0312 33.7476 20.9287 34.3481 20.9287C34.9487 20.9287 35.4834 21.0312 35.9521 21.2363C36.4209 21.4365 36.814 21.7173 37.1313 22.0786C37.4536 22.4399 37.6978 22.8672 37.8638 23.3604C38.0298 23.8486 38.1128 24.3833 38.1128 24.9644V25.1182C38.1128 25.6943 38.0298 26.229 37.8638 26.7222C37.6978 27.2104 37.4536 27.6377 37.1313 28.0039C36.814 28.3652 36.4233 28.646 35.9595 28.8462C35.4956 29.0464 34.9634 29.1465 34.3628 29.1465C33.7622 29.1465 33.2275 29.0464 32.7588 28.8462C32.2949 28.646 31.9019 28.3652 31.5796 28.0039C31.2622 27.6377 31.0205 27.2104 30.8545 26.7222C30.6885 26.229 30.6055 25.6943 30.6055 25.1182ZM32.7148 24.9644V25.1182C32.7148 25.4502 32.7441 25.7603 32.8027 26.0483C32.8613 26.3364 32.9541 26.5903 33.0811 26.8101C33.2129 27.0249 33.3838 27.1934 33.5938 27.3154C33.8037 27.4375 34.0601 27.4985 34.3628 27.4985C34.6558 27.4985 34.9072 27.4375 35.1172 27.3154C35.3271 27.1934 35.4956 27.0249 35.6226 26.8101C35.7495 26.5903 35.8423 26.3364 35.9009 26.0483C35.9644 25.7603 35.9961 25.4502 35.9961 25.1182V24.9644C35.9961 24.6421 35.9644 24.3394 35.9009 24.0562C35.8423 23.7681 35.7471 23.5142 35.6152 23.2944C35.4883 23.0698 35.3198 22.894 35.1099 22.7671C34.8999 22.6401 34.646 22.5767 34.3481 22.5767C34.0503 22.5767 33.7964 22.6401 33.5864 22.7671C33.3813 22.894 33.2129 23.0698 33.0811 23.2944C32.9541 23.5142 32.8613 23.7681 32.8027 24.0562C32.7441 24.3394 32.7148 24.6421 32.7148 24.9644ZM41.6724 26.9492L43.3203 21.0752H44.6606L44.2285 23.3823L42.5806 29H41.46L41.6724 26.9492ZM40.8374 21.0752L42.0166 26.9419L42.1265 29H40.8081L38.8013 21.0752H40.8374ZM46.1694 26.8467L47.3193 21.0752H49.3628L47.356 29H46.0449L46.1694 26.8467ZM44.8438 21.0752L46.4844 26.9053L46.7114 29H45.5835L43.9355 23.3896L43.5181 21.0752H44.8438ZM52.4902 22.7671V29H50.3809V21.0752H52.3584L52.4902 22.7671ZM52.1826 24.7593H51.6113C51.6113 24.1733 51.687 23.646 51.8384 23.1772C51.9897 22.7036 52.2021 22.3008 52.4756 21.9688C52.749 21.6318 53.0737 21.3755 53.4497 21.1997C53.8306 21.019 54.2554 20.9287 54.7241 20.9287C55.0952 20.9287 55.4346 20.9824 55.7422 21.0898C56.0498 21.1973 56.3135 21.3682 56.5332 21.6025C56.7578 21.8369 56.9287 22.147 57.0459 22.5327C57.168 22.9185 57.229 23.3896 57.229 23.9463V29H55.105V23.939C55.105 23.5874 55.0562 23.314 54.9585 23.1187C54.8608 22.9233 54.7168 22.7866 54.5264 22.7085C54.3408 22.6255 54.1113 22.584 53.8379 22.584C53.5547 22.584 53.3081 22.6401 53.0981 22.7524C52.8931 22.8647 52.7222 23.021 52.5854 23.2212C52.4536 23.4165 52.3535 23.646 52.2852 23.9097C52.2168 24.1733 52.1826 24.4565 52.1826 24.7593ZM61.0596 17.75V29H58.9429V17.75H61.0596ZM62.4658 25.1182V24.9644C62.4658 24.3833 62.5488 23.8486 62.7148 23.3604C62.8809 22.8672 63.1226 22.4399 63.4399 22.0786C63.7573 21.7173 64.1479 21.4365 64.6118 21.2363C65.0757 21.0312 65.6079 20.9287 66.2085 20.9287C66.8091 20.9287 67.3438 21.0312 67.8125 21.2363C68.2812 21.4365 68.6743 21.7173 68.9917 22.0786C69.314 22.4399 69.5581 22.8672 69.7241 23.3604C69.8901 23.8486 69.9731 24.3833 69.9731 24.9644V25.1182C69.9731 25.6943 69.8901 26.229 69.7241 26.7222C69.5581 27.2104 69.314 27.6377 68.9917 28.0039C68.6743 28.3652 68.2837 28.646 67.8198 28.8462C67.356 29.0464 66.8237 29.1465 66.2231 29.1465C65.6226 29.1465 65.0879 29.0464 64.6191 28.8462C64.1553 28.646 63.7622 28.3652 63.4399 28.0039C63.1226 27.6377 62.8809 27.2104 62.7148 26.7222C62.5488 26.229 62.4658 25.6943 62.4658 25.1182ZM64.5752 24.9644V25.1182C64.5752 25.4502 64.6045 25.7603 64.6631 26.0483C64.7217 26.3364 64.8145 26.5903 64.9414 26.8101C65.0732 27.0249 65.2441 27.1934 65.4541 27.3154C65.6641 27.4375 65.9204 27.4985 66.2231 27.4985C66.5161 27.4985 66.7676 27.4375 66.9775 27.3154C67.1875 27.1934 67.356 27.0249 67.4829 26.8101C67.6099 26.5903 67.7026 26.3364 67.7612 26.0483C67.8247 25.7603 67.8564 25.4502 67.8564 25.1182V24.9644C67.8564 24.6421 67.8247 24.3394 67.7612 24.0562C67.7026 23.7681 67.6074 23.5142 67.4756 23.2944C67.3486 23.0698 67.1802 22.894 66.9702 22.7671C66.7603 22.6401 66.5063 22.5767 66.2085 22.5767C65.9106 22.5767 65.6567 22.6401 65.4468 22.7671C65.2417 22.894 65.0732 23.0698 64.9414 23.2944C64.8145 23.5142 64.7217 23.7681 64.6631 24.0562C64.6045 24.3394 64.5752 24.6421 64.5752 24.9644ZM75.5469 27.2129V23.6826C75.5469 23.4287 75.5054 23.2114 75.4224 23.0308C75.3394 22.8452 75.21 22.7012 75.0342 22.5986C74.8633 22.4961 74.6411 22.4448 74.3677 22.4448C74.1333 22.4448 73.9307 22.4863 73.7598 22.5693C73.5889 22.6475 73.457 22.7622 73.3643 22.9136C73.2715 23.0601 73.2251 23.2334 73.2251 23.4336H71.1157C71.1157 23.0967 71.1938 22.7769 71.3501 22.4741C71.5063 22.1714 71.7334 21.9053 72.0312 21.6758C72.3291 21.4414 72.6831 21.2583 73.0933 21.1265C73.5083 20.9946 73.9722 20.9287 74.4849 20.9287C75.1001 20.9287 75.647 21.0312 76.1255 21.2363C76.604 21.4414 76.98 21.749 77.2534 22.1592C77.5317 22.5693 77.6709 23.082 77.6709 23.6973V27.0884C77.6709 27.5229 77.6978 27.8794 77.7515 28.1577C77.8052 28.4312 77.8833 28.6704 77.9858 28.8755V29H75.8545C75.752 28.7852 75.6738 28.5166 75.6201 28.1943C75.5713 27.8672 75.5469 27.54 75.5469 27.2129ZM75.8252 24.1733L75.8398 25.3672H74.6606C74.3823 25.3672 74.1406 25.3989 73.9355 25.4624C73.7305 25.5259 73.562 25.6162 73.4302 25.7334C73.2983 25.8457 73.2007 25.9775 73.1372 26.1289C73.0786 26.2803 73.0493 26.4463 73.0493 26.627C73.0493 26.8076 73.0908 26.9712 73.1738 27.1177C73.2568 27.2593 73.3765 27.3716 73.5327 27.4546C73.689 27.5327 73.8721 27.5718 74.082 27.5718C74.3994 27.5718 74.6753 27.5083 74.9097 27.3813C75.144 27.2544 75.3247 27.0981 75.4517 26.9126C75.5835 26.7271 75.6519 26.5513 75.6567 26.3853L76.2134 27.2788C76.1353 27.479 76.0278 27.6865 75.8911 27.9014C75.7593 28.1162 75.5908 28.3188 75.3857 28.5093C75.1807 28.6948 74.9341 28.8486 74.646 28.9707C74.3579 29.0879 74.0161 29.1465 73.6206 29.1465C73.1177 29.1465 72.6611 29.0464 72.251 28.8462C71.8457 28.6411 71.5234 28.3604 71.2842 28.0039C71.0498 27.6426 70.9326 27.2324 70.9326 26.7734C70.9326 26.3584 71.0107 25.9897 71.167 25.6675C71.3232 25.3452 71.5527 25.0742 71.8555 24.8545C72.1631 24.6299 72.5464 24.4614 73.0054 24.3491C73.4644 24.2319 73.9966 24.1733 74.6021 24.1733H75.8252ZM83.9771 27.2715V17.75H86.1011V29H84.1895L83.9771 27.2715ZM78.9673 25.1328V24.979C78.9673 24.3735 79.0356 23.8242 79.1724 23.3311C79.3091 22.833 79.5093 22.4058 79.7729 22.0493C80.0366 21.6929 80.3613 21.417 80.7471 21.2217C81.1328 21.0264 81.5723 20.9287 82.0654 20.9287C82.5293 20.9287 82.9346 21.0264 83.2812 21.2217C83.6328 21.417 83.9307 21.6953 84.1748 22.0566C84.4238 22.4131 84.624 22.8354 84.7754 23.3237C84.9268 23.8071 85.0366 24.3369 85.105 24.9131V25.25C85.0366 25.8018 84.9268 26.3145 84.7754 26.7881C84.624 27.2617 84.4238 27.6768 84.1748 28.0332C83.9307 28.3848 83.6328 28.6582 83.2812 28.8535C82.9297 29.0488 82.5195 29.1465 82.0508 29.1465C81.5576 29.1465 81.1182 29.0464 80.7324 28.8462C80.3516 28.646 80.0293 28.3652 79.7656 28.0039C79.5068 27.6426 79.3091 27.2178 79.1724 26.7295C79.0356 26.2412 78.9673 25.709 78.9673 25.1328ZM81.0767 24.979V25.1328C81.0767 25.46 81.1011 25.7651 81.1499 26.0483C81.2036 26.3315 81.2891 26.583 81.4062 26.8027C81.5283 27.0176 81.6846 27.186 81.875 27.3081C82.0703 27.4253 82.3071 27.4839 82.5854 27.4839C82.9468 27.4839 83.2446 27.4033 83.479 27.2422C83.7134 27.0762 83.8916 26.8491 84.0137 26.561C84.1406 26.2729 84.2139 25.9409 84.2334 25.5649V24.6055C84.2188 24.2979 84.1748 24.022 84.1016 23.7778C84.0332 23.5288 83.9307 23.3164 83.7939 23.1406C83.6621 22.9648 83.4961 22.8281 83.2959 22.7305C83.1006 22.6328 82.8687 22.584 82.6001 22.584C82.3267 22.584 82.0923 22.6475 81.897 22.7744C81.7017 22.8965 81.543 23.0649 81.4209 23.2798C81.3037 23.4946 81.2158 23.7485 81.1572 24.0415C81.1035 24.3296 81.0767 24.6421 81.0767 24.979ZM92.0337 26.8101C92.0337 26.6587 91.9897 26.522 91.9019 26.3999C91.814 26.2778 91.6504 26.1655 91.4111 26.063C91.1768 25.9556 90.8374 25.8579 90.3931 25.77C89.9927 25.6821 89.6191 25.5723 89.2725 25.4404C88.9307 25.3037 88.6328 25.1401 88.3789 24.9497C88.1299 24.7593 87.9346 24.5347 87.793 24.2759C87.6514 24.0122 87.5806 23.7119 87.5806 23.375C87.5806 23.043 87.6514 22.7305 87.793 22.4375C87.9395 22.1445 88.147 21.8857 88.4155 21.6611C88.689 21.4316 89.021 21.2534 89.4116 21.1265C89.8071 20.9946 90.2515 20.9287 90.7446 20.9287C91.4331 20.9287 92.0239 21.0386 92.5171 21.2583C93.0151 21.478 93.396 21.7808 93.6597 22.1665C93.9282 22.5474 94.0625 22.9819 94.0625 23.4702H91.9531C91.9531 23.2651 91.9092 23.082 91.8213 22.9209C91.7383 22.7549 91.6064 22.6255 91.4258 22.5327C91.25 22.4351 91.0205 22.3862 90.7373 22.3862C90.5029 22.3862 90.3003 22.4277 90.1294 22.5107C89.9585 22.5889 89.8267 22.6963 89.7339 22.833C89.646 22.9648 89.6021 23.1113 89.6021 23.2725C89.6021 23.3945 89.6265 23.5044 89.6753 23.6021C89.729 23.6948 89.8145 23.7803 89.9316 23.8584C90.0488 23.9365 90.2002 24.0098 90.3857 24.0781C90.5762 24.1416 90.8105 24.2002 91.0889 24.2539C91.6602 24.3711 92.1704 24.5249 92.6196 24.7153C93.0688 24.9009 93.4253 25.1548 93.689 25.4771C93.9526 25.7944 94.0845 26.2119 94.0845 26.7295C94.0845 27.0811 94.0063 27.4033 93.8501 27.6963C93.6938 27.9893 93.4692 28.2456 93.1763 28.4653C92.8833 28.6802 92.5317 28.8486 92.1216 28.9707C91.7163 29.0879 91.2598 29.1465 90.752 29.1465C90.0146 29.1465 89.3896 29.0146 88.877 28.751C88.3691 28.4873 87.9834 28.1528 87.7197 27.7476C87.4609 27.3374 87.3315 26.9175 87.3315 26.4878H89.3311C89.3408 26.7759 89.4141 27.0078 89.5508 27.1836C89.6924 27.3594 89.8706 27.4863 90.0854 27.5645C90.3052 27.6426 90.542 27.6816 90.7959 27.6816C91.0693 27.6816 91.2964 27.645 91.4771 27.5718C91.6577 27.4937 91.7944 27.3911 91.8872 27.2642C91.9849 27.1323 92.0337 26.981 92.0337 26.8101Z" fill="white"/>
<path d="M53.8132 61H62.1973C63.5911 61 64.7125 62.1427 64.7125 63.563V81.504H73.9035C75.7689 81.504 76.7017 83.8 75.3812 85.1456L59.441 101.399C58.655 102.2 57.366 102.2 56.58 101.399L40.6188 85.1456C39.2983 83.8 40.2311 81.504 42.0965 81.504H51.298V63.563C51.298 62.1427 52.4194 61 53.8132 61Z" fill="white"/>
</g>
<defs>
<clipPath id="clip0_1992_2266">
<rect width="116" height="116" rx="10" fill="white"/>
</clipPath>
</defs>
</svg>
