<?xml version="1.0" encoding="UTF-8" standalone="no"?>
<svg
   width="116"
   height="116"
   viewBox="0 0 116 116"
   fill="none"
   version="1.1"
   id="svg19"
   sodipodi:docname="favorite.svg"
   inkscape:version="1.1.2 (0a00cf5339, 2022-02-04, custom)"
   xmlns:inkscape="http://www.inkscape.org/namespaces/inkscape"
   xmlns:sodipodi="http://sodipodi.sourceforge.net/DTD/sodipodi-0.dtd"
   xmlns="http://www.w3.org/2000/svg"
   xmlns:svg="http://www.w3.org/2000/svg">
  <sodipodi:namedview
     id="namedview21"
     pagecolor="#505050"
     bordercolor="#ffffff"
     borderopacity="1"
     inkscape:pageshadow="0"
     inkscape:pageopacity="0"
     inkscape:pagecheckerboard="1"
     showgrid="false"
     inkscape:zoom="5.4741379"
     inkscape:cx="58"
     inkscape:cy="58"
     inkscape:window-width="1920"
     inkscape:window-height="980"
     inkscape:window-x="0"
     inkscape:window-y="32"
     inkscape:window-maximized="1"
     inkscape:current-layer="g12" />
  <g
     clip-path="url(#clip0_1991_1781)"
     id="g12">
    <rect
       width="116"
       height="116"
       fill="#FF4576"
       id="rect2" />
    <path
       d="m 57.5,143 c -0.6777,0.004 -1.3495,-0.137 -1.9769,-0.415 -0.6273,-0.278 -1.198,-0.688 -1.6791,-1.206 L 13.8338,97.9015 C 8.81512,92.398 6,84.9676 6,77.2245 c 0,-7.7431 2.81512,-15.1734 7.8338,-20.677 5.058,-5.4738 11.9095,-8.5476 19.0525,-8.5476 7.143,0 13.9945,3.0738 19.0524,8.5476 L 57.5,62.583 63.0613,56.5475 c 5.0579,-5.4738 11.9094,-8.5476 19.0524,-8.5476 7.143,0 13.9945,3.0738 19.0523,8.5476 5.019,5.5036 7.834,12.9339 7.834,20.677 0,7.7431 -2.815,15.1735 -7.834,20.677 l -40.01,43.4775 c -0.4811,0.518 -1.0518,0.928 -1.6791,1.206 -0.6274,0.278 -1.2992,0.419 -1.9769,0.415 z"
       fill="#ffffff"
       id="path4" />
    <path
       d="m 57.5,119 c -0.3356,0.002 -0.6682,-0.068 -0.9789,-0.205 -0.3106,-0.138 -0.5931,-0.341 -0.8314,-0.597 L 35.8789,96.6881 C 33.3939,93.9653 32,90.2892 32,86.4584 32,82.6277 33.3939,78.9516 35.8789,76.2288 38.3833,73.5207 41.7758,72 45.3126,72 c 3.5368,0 6.9293,1.5207 9.4337,4.2288 L 57.5,79.2147 60.2536,76.2288 C 62.758,73.5207 66.1505,72 69.6873,72 c 3.5369,0 6.9294,1.5207 9.4338,4.2288 2.485,2.7228 3.8789,6.3989 3.8789,10.2296 0,3.8308 -1.3939,7.5069 -3.8789,10.2297 L 59.3102,118.198 c -0.2382,0.256 -0.5207,0.459 -0.8314,0.597 -0.3106,0.137 -0.6433,0.207 -0.9788,0.205 z"
       fill="#ff4576"
       id="path6" />
    <path
       d="M34.4033 21.3359V32H32.2061V21.3359H34.4033ZM38.6514 25.8916V27.6055H33.8027V25.8916H38.6514ZM39.1641 21.3359V23.0571H33.8027V21.3359H39.1641ZM44.335 30.2129V26.6826C44.335 26.4287 44.2935 26.2114 44.2104 26.0308C44.1274 25.8452 43.998 25.7012 43.8223 25.5986C43.6514 25.4961 43.4292 25.4448 43.1558 25.4448C42.9214 25.4448 42.7188 25.4863 42.5479 25.5693C42.377 25.6475 42.2451 25.7622 42.1523 25.9136C42.0596 26.0601 42.0132 26.2334 42.0132 26.4336H39.9038C39.9038 26.0967 39.9819 25.7769 40.1382 25.4741C40.2944 25.1714 40.5215 24.9053 40.8193 24.6758C41.1172 24.4414 41.4712 24.2583 41.8813 24.1265C42.2964 23.9946 42.7603 23.9287 43.2729 23.9287C43.8882 23.9287 44.4351 24.0312 44.9136 24.2363C45.3921 24.4414 45.7681 24.749 46.0415 25.1592C46.3198 25.5693 46.459 26.082 46.459 26.6973V30.0884C46.459 30.5229 46.4858 30.8794 46.5396 31.1577C46.5933 31.4312 46.6714 31.6704 46.7739 31.8755V32H44.6426C44.54 31.7852 44.4619 31.5166 44.4082 31.1943C44.3594 30.8672 44.335 30.54 44.335 30.2129ZM44.6133 27.1733L44.6279 28.3672H43.4487C43.1704 28.3672 42.9287 28.3989 42.7236 28.4624C42.5186 28.5259 42.3501 28.6162 42.2183 28.7334C42.0864 28.8457 41.9888 28.9775 41.9253 29.1289C41.8667 29.2803 41.8374 29.4463 41.8374 29.627C41.8374 29.8076 41.8789 29.9712 41.9619 30.1177C42.0449 30.2593 42.1646 30.3716 42.3208 30.4546C42.4771 30.5327 42.6602 30.5718 42.8701 30.5718C43.1875 30.5718 43.4634 30.5083 43.6978 30.3813C43.9321 30.2544 44.1128 30.0981 44.2397 29.9126C44.3716 29.7271 44.4399 29.5513 44.4448 29.3853L45.0015 30.2788C44.9233 30.479 44.8159 30.6865 44.6792 30.9014C44.5474 31.1162 44.3789 31.3188 44.1738 31.5093C43.9688 31.6948 43.7222 31.8486 43.4341 31.9707C43.146 32.0879 42.8042 32.1465 42.4087 32.1465C41.9058 32.1465 41.4492 32.0464 41.0391 31.8462C40.6338 31.6411 40.3115 31.3604 40.0723 31.0039C39.8379 30.6426 39.7207 30.2324 39.7207 29.7734C39.7207 29.3584 39.7988 28.9897 39.9551 28.6675C40.1113 28.3452 40.3408 28.0742 40.6436 27.8545C40.9512 27.6299 41.3345 27.4614 41.7935 27.3491C42.2524 27.2319 42.7847 27.1733 43.3901 27.1733H44.6133ZM50.6631 30.4619L52.4209 24.0752H54.6255L51.9521 32H50.6191L50.6631 30.4619ZM49.4546 24.0752L51.2197 30.4692L51.2563 32H49.916L47.2427 24.0752H49.4546ZM55.1162 28.1182V27.9644C55.1162 27.3833 55.1992 26.8486 55.3652 26.3604C55.5312 25.8672 55.7729 25.4399 56.0903 25.0786C56.4077 24.7173 56.7983 24.4365 57.2622 24.2363C57.7261 24.0312 58.2583 23.9287 58.8589 23.9287C59.4595 23.9287 59.9941 24.0312 60.4629 24.2363C60.9316 24.4365 61.3247 24.7173 61.6421 25.0786C61.9644 25.4399 62.2085 25.8672 62.3745 26.3604C62.5405 26.8486 62.6235 27.3833 62.6235 27.9644V28.1182C62.6235 28.6943 62.5405 29.229 62.3745 29.7222C62.2085 30.2104 61.9644 30.6377 61.6421 31.0039C61.3247 31.3652 60.9341 31.646 60.4702 31.8462C60.0063 32.0464 59.4741 32.1465 58.8735 32.1465C58.2729 32.1465 57.7383 32.0464 57.2695 31.8462C56.8057 31.646 56.4126 31.3652 56.0903 31.0039C55.7729 30.6377 55.5312 30.2104 55.3652 29.7222C55.1992 29.229 55.1162 28.6943 55.1162 28.1182ZM57.2256 27.9644V28.1182C57.2256 28.4502 57.2549 28.7603 57.3135 29.0483C57.3721 29.3364 57.4648 29.5903 57.5918 29.8101C57.7236 30.0249 57.8945 30.1934 58.1045 30.3154C58.3145 30.4375 58.5708 30.4985 58.8735 30.4985C59.1665 30.4985 59.418 30.4375 59.6279 30.3154C59.8379 30.1934 60.0063 30.0249 60.1333 29.8101C60.2603 29.5903 60.353 29.3364 60.4116 29.0483C60.4751 28.7603 60.5068 28.4502 60.5068 28.1182V27.9644C60.5068 27.6421 60.4751 27.3394 60.4116 27.0562C60.353 26.7681 60.2578 26.5142 60.126 26.2944C59.999 26.0698 59.8306 25.894 59.6206 25.7671C59.4106 25.6401 59.1567 25.5767 58.8589 25.5767C58.561 25.5767 58.3071 25.6401 58.0972 25.7671C57.8921 25.894 57.7236 26.0698 57.5918 26.2944C57.4648 26.5142 57.3721 26.7681 57.3135 27.0562C57.2549 27.3394 57.2256 27.6421 57.2256 27.9644ZM66.0293 25.8037V32H63.9199V24.0752H65.9048L66.0293 25.8037ZM68.417 24.0239L68.3804 25.9795C68.2778 25.9648 68.1533 25.9526 68.0068 25.9429C67.8652 25.9282 67.7358 25.9209 67.6187 25.9209C67.3208 25.9209 67.062 25.96 66.8423 26.0381C66.6274 26.1113 66.4468 26.2212 66.3003 26.3677C66.1587 26.5142 66.0513 26.6924 65.978 26.9023C65.9097 27.1123 65.8706 27.3516 65.8608 27.6201L65.436 27.4883C65.436 26.9756 65.4873 26.5044 65.5898 26.0747C65.6924 25.6401 65.8413 25.2617 66.0366 24.9395C66.2368 24.6172 66.481 24.3682 66.769 24.1924C67.0571 24.0166 67.3867 23.9287 67.7578 23.9287C67.875 23.9287 67.9946 23.9385 68.1167 23.958C68.2388 23.9727 68.3389 23.9946 68.417 24.0239ZM71.6396 24.0752V32H69.5229V24.0752H71.6396ZM69.3911 22.0098C69.3911 21.7021 69.4985 21.4482 69.7134 21.248C69.9282 21.0479 70.2163 20.9478 70.5776 20.9478C70.9341 20.9478 71.2197 21.0479 71.4346 21.248C71.6543 21.4482 71.7642 21.7021 71.7642 22.0098C71.7642 22.3174 71.6543 22.5713 71.4346 22.7715C71.2197 22.9717 70.9341 23.0718 70.5776 23.0718C70.2163 23.0718 69.9282 22.9717 69.7134 22.7715C69.4985 22.5713 69.3911 22.3174 69.3911 22.0098ZM77.2646 24.0752V25.5693H72.6504V24.0752H77.2646ZM73.793 22.1196H75.9023V29.6123C75.9023 29.8418 75.9316 30.0176 75.9902 30.1396C76.0537 30.2617 76.1465 30.3472 76.2686 30.396C76.3906 30.4399 76.5444 30.4619 76.73 30.4619C76.8618 30.4619 76.979 30.457 77.0815 30.4473C77.189 30.4326 77.2793 30.418 77.3525 30.4033L77.3599 31.9561C77.1792 32.0146 76.9839 32.061 76.7739 32.0952C76.564 32.1294 76.332 32.1465 76.0781 32.1465C75.6143 32.1465 75.209 32.0708 74.8623 31.9194C74.5205 31.7632 74.2568 31.5142 74.0713 31.1724C73.8857 30.8306 73.793 30.3813 73.793 29.8247V22.1196ZM82.1133 32.1465C81.498 32.1465 80.9463 32.0488 80.458 31.8535C79.9697 31.6533 79.5547 31.3774 79.2129 31.0259C78.876 30.6743 78.6172 30.2666 78.4365 29.8027C78.2559 29.334 78.1655 28.8359 78.1655 28.3086V28.0156C78.1655 27.415 78.251 26.8657 78.4219 26.3677C78.5928 25.8696 78.8369 25.4375 79.1543 25.0713C79.4766 24.7051 79.8672 24.4243 80.3262 24.229C80.7852 24.0288 81.3027 23.9287 81.8789 23.9287C82.4404 23.9287 82.9385 24.0215 83.373 24.207C83.8076 24.3926 84.1714 24.6562 84.4644 24.998C84.7622 25.3398 84.9868 25.75 85.1382 26.2285C85.2896 26.7021 85.3652 27.2295 85.3652 27.8105V28.6895H79.0664V27.2832H83.2925V27.1221C83.2925 26.8291 83.2388 26.5679 83.1313 26.3384C83.0288 26.104 82.8726 25.9185 82.6626 25.7817C82.4526 25.645 82.1841 25.5767 81.8569 25.5767C81.5786 25.5767 81.3394 25.6377 81.1392 25.7598C80.939 25.8818 80.7754 26.0527 80.6484 26.2725C80.5264 26.4922 80.4336 26.751 80.3701 27.0488C80.3115 27.3418 80.2822 27.6641 80.2822 28.0156V28.3086C80.2822 28.626 80.3262 28.9189 80.4141 29.1875C80.5068 29.4561 80.6362 29.688 80.8022 29.8833C80.9731 30.0786 81.1782 30.23 81.4175 30.3374C81.6616 30.4448 81.9375 30.4985 82.2451 30.4985C82.626 30.4985 82.98 30.4253 83.3071 30.2788C83.6392 30.1274 83.9248 29.9004 84.1641 29.5977L85.1895 30.7109C85.0234 30.9502 84.7964 31.1797 84.5083 31.3994C84.2251 31.6191 83.8833 31.7998 83.4829 31.9414C83.0825 32.0781 82.626 32.1465 82.1133 32.1465Z"
       fill="black"
       fill-opacity="0.25"
       id="path8" />
    <path
       d="M33.4033 20.3359V31H31.2061V20.3359H33.4033ZM37.6514 24.8916V26.6055H32.8027V24.8916H37.6514ZM38.1641 20.3359V22.0571H32.8027V20.3359H38.1641ZM43.335 29.2129V25.6826C43.335 25.4287 43.2935 25.2114 43.2104 25.0308C43.1274 24.8452 42.998 24.7012 42.8223 24.5986C42.6514 24.4961 42.4292 24.4448 42.1558 24.4448C41.9214 24.4448 41.7188 24.4863 41.5479 24.5693C41.377 24.6475 41.2451 24.7622 41.1523 24.9136C41.0596 25.0601 41.0132 25.2334 41.0132 25.4336H38.9038C38.9038 25.0967 38.9819 24.7769 39.1382 24.4741C39.2944 24.1714 39.5215 23.9053 39.8193 23.6758C40.1172 23.4414 40.4712 23.2583 40.8813 23.1265C41.2964 22.9946 41.7603 22.9287 42.2729 22.9287C42.8882 22.9287 43.4351 23.0312 43.9136 23.2363C44.3921 23.4414 44.7681 23.749 45.0415 24.1592C45.3198 24.5693 45.459 25.082 45.459 25.6973V29.0884C45.459 29.5229 45.4858 29.8794 45.5396 30.1577C45.5933 30.4312 45.6714 30.6704 45.7739 30.8755V31H43.6426C43.54 30.7852 43.4619 30.5166 43.4082 30.1943C43.3594 29.8672 43.335 29.54 43.335 29.2129ZM43.6133 26.1733L43.6279 27.3672H42.4487C42.1704 27.3672 41.9287 27.3989 41.7236 27.4624C41.5186 27.5259 41.3501 27.6162 41.2183 27.7334C41.0864 27.8457 40.9888 27.9775 40.9253 28.1289C40.8667 28.2803 40.8374 28.4463 40.8374 28.627C40.8374 28.8076 40.8789 28.9712 40.9619 29.1177C41.0449 29.2593 41.1646 29.3716 41.3208 29.4546C41.4771 29.5327 41.6602 29.5718 41.8701 29.5718C42.1875 29.5718 42.4634 29.5083 42.6978 29.3813C42.9321 29.2544 43.1128 29.0981 43.2397 28.9126C43.3716 28.7271 43.4399 28.5513 43.4448 28.3853L44.0015 29.2788C43.9233 29.479 43.8159 29.6865 43.6792 29.9014C43.5474 30.1162 43.3789 30.3188 43.1738 30.5093C42.9688 30.6948 42.7222 30.8486 42.4341 30.9707C42.146 31.0879 41.8042 31.1465 41.4087 31.1465C40.9058 31.1465 40.4492 31.0464 40.0391 30.8462C39.6338 30.6411 39.3115 30.3604 39.0723 30.0039C38.8379 29.6426 38.7207 29.2324 38.7207 28.7734C38.7207 28.3584 38.7988 27.9897 38.9551 27.6675C39.1113 27.3452 39.3408 27.0742 39.6436 26.8545C39.9512 26.6299 40.3345 26.4614 40.7935 26.3491C41.2524 26.2319 41.7847 26.1733 42.3901 26.1733H43.6133ZM49.6631 29.4619L51.4209 23.0752H53.6255L50.9521 31H49.6191L49.6631 29.4619ZM48.4546 23.0752L50.2197 29.4692L50.2563 31H48.916L46.2427 23.0752H48.4546ZM54.1162 27.1182V26.9644C54.1162 26.3833 54.1992 25.8486 54.3652 25.3604C54.5312 24.8672 54.7729 24.4399 55.0903 24.0786C55.4077 23.7173 55.7983 23.4365 56.2622 23.2363C56.7261 23.0312 57.2583 22.9287 57.8589 22.9287C58.4595 22.9287 58.9941 23.0312 59.4629 23.2363C59.9316 23.4365 60.3247 23.7173 60.6421 24.0786C60.9644 24.4399 61.2085 24.8672 61.3745 25.3604C61.5405 25.8486 61.6235 26.3833 61.6235 26.9644V27.1182C61.6235 27.6943 61.5405 28.229 61.3745 28.7222C61.2085 29.2104 60.9644 29.6377 60.6421 30.0039C60.3247 30.3652 59.9341 30.646 59.4702 30.8462C59.0063 31.0464 58.4741 31.1465 57.8735 31.1465C57.2729 31.1465 56.7383 31.0464 56.2695 30.8462C55.8057 30.646 55.4126 30.3652 55.0903 30.0039C54.7729 29.6377 54.5312 29.2104 54.3652 28.7222C54.1992 28.229 54.1162 27.6943 54.1162 27.1182ZM56.2256 26.9644V27.1182C56.2256 27.4502 56.2549 27.7603 56.3135 28.0483C56.3721 28.3364 56.4648 28.5903 56.5918 28.8101C56.7236 29.0249 56.8945 29.1934 57.1045 29.3154C57.3145 29.4375 57.5708 29.4985 57.8735 29.4985C58.1665 29.4985 58.418 29.4375 58.6279 29.3154C58.8379 29.1934 59.0063 29.0249 59.1333 28.8101C59.2603 28.5903 59.353 28.3364 59.4116 28.0483C59.4751 27.7603 59.5068 27.4502 59.5068 27.1182V26.9644C59.5068 26.6421 59.4751 26.3394 59.4116 26.0562C59.353 25.7681 59.2578 25.5142 59.126 25.2944C58.999 25.0698 58.8306 24.894 58.6206 24.7671C58.4106 24.6401 58.1567 24.5767 57.8589 24.5767C57.561 24.5767 57.3071 24.6401 57.0972 24.7671C56.8921 24.894 56.7236 25.0698 56.5918 25.2944C56.4648 25.5142 56.3721 25.7681 56.3135 26.0562C56.2549 26.3394 56.2256 26.6421 56.2256 26.9644ZM65.0293 24.8037V31H62.9199V23.0752H64.9048L65.0293 24.8037ZM67.417 23.0239L67.3804 24.9795C67.2778 24.9648 67.1533 24.9526 67.0068 24.9429C66.8652 24.9282 66.7358 24.9209 66.6187 24.9209C66.3208 24.9209 66.062 24.96 65.8423 25.0381C65.6274 25.1113 65.4468 25.2212 65.3003 25.3677C65.1587 25.5142 65.0513 25.6924 64.978 25.9023C64.9097 26.1123 64.8706 26.3516 64.8608 26.6201L64.436 26.4883C64.436 25.9756 64.4873 25.5044 64.5898 25.0747C64.6924 24.6401 64.8413 24.2617 65.0366 23.9395C65.2368 23.6172 65.481 23.3682 65.769 23.1924C66.0571 23.0166 66.3867 22.9287 66.7578 22.9287C66.875 22.9287 66.9946 22.9385 67.1167 22.958C67.2388 22.9727 67.3389 22.9946 67.417 23.0239ZM70.6396 23.0752V31H68.5229V23.0752H70.6396ZM68.3911 21.0098C68.3911 20.7021 68.4985 20.4482 68.7134 20.248C68.9282 20.0479 69.2163 19.9478 69.5776 19.9478C69.9341 19.9478 70.2197 20.0479 70.4346 20.248C70.6543 20.4482 70.7642 20.7021 70.7642 21.0098C70.7642 21.3174 70.6543 21.5713 70.4346 21.7715C70.2197 21.9717 69.9341 22.0718 69.5776 22.0718C69.2163 22.0718 68.9282 21.9717 68.7134 21.7715C68.4985 21.5713 68.3911 21.3174 68.3911 21.0098ZM76.2646 23.0752V24.5693H71.6504V23.0752H76.2646ZM72.793 21.1196H74.9023V28.6123C74.9023 28.8418 74.9316 29.0176 74.9902 29.1396C75.0537 29.2617 75.1465 29.3472 75.2686 29.396C75.3906 29.4399 75.5444 29.4619 75.73 29.4619C75.8618 29.4619 75.979 29.457 76.0815 29.4473C76.189 29.4326 76.2793 29.418 76.3525 29.4033L76.3599 30.9561C76.1792 31.0146 75.9839 31.061 75.7739 31.0952C75.564 31.1294 75.332 31.1465 75.0781 31.1465C74.6143 31.1465 74.209 31.0708 73.8623 30.9194C73.5205 30.7632 73.2568 30.5142 73.0713 30.1724C72.8857 29.8306 72.793 29.3813 72.793 28.8247V21.1196ZM81.1133 31.1465C80.498 31.1465 79.9463 31.0488 79.458 30.8535C78.9697 30.6533 78.5547 30.3774 78.2129 30.0259C77.876 29.6743 77.6172 29.2666 77.4365 28.8027C77.2559 28.334 77.1655 27.8359 77.1655 27.3086V27.0156C77.1655 26.415 77.251 25.8657 77.4219 25.3677C77.5928 24.8696 77.8369 24.4375 78.1543 24.0713C78.4766 23.7051 78.8672 23.4243 79.3262 23.229C79.7852 23.0288 80.3027 22.9287 80.8789 22.9287C81.4404 22.9287 81.9385 23.0215 82.373 23.207C82.8076 23.3926 83.1714 23.6562 83.4644 23.998C83.7622 24.3398 83.9868 24.75 84.1382 25.2285C84.2896 25.7021 84.3652 26.2295 84.3652 26.8105V27.6895H78.0664V26.2832H82.2925V26.1221C82.2925 25.8291 82.2388 25.5679 82.1313 25.3384C82.0288 25.104 81.8726 24.9185 81.6626 24.7817C81.4526 24.645 81.1841 24.5767 80.8569 24.5767C80.5786 24.5767 80.3394 24.6377 80.1392 24.7598C79.939 24.8818 79.7754 25.0527 79.6484 25.2725C79.5264 25.4922 79.4336 25.751 79.3701 26.0488C79.3115 26.3418 79.2822 26.6641 79.2822 27.0156V27.3086C79.2822 27.626 79.3262 27.9189 79.4141 28.1875C79.5068 28.4561 79.6362 28.688 79.8022 28.8833C79.9731 29.0786 80.1782 29.23 80.4175 29.3374C80.6616 29.4448 80.9375 29.4985 81.2451 29.4985C81.626 29.4985 81.98 29.4253 82.3071 29.2788C82.6392 29.1274 82.9248 28.9004 83.1641 28.5977L84.1895 29.7109C84.0234 29.9502 83.7964 30.1797 83.5083 30.3994C83.2251 30.6191 82.8833 30.7998 82.4829 30.9414C82.0825 31.0781 81.626 31.1465 81.1133 31.1465Z"
       fill="white"
       id="path10" />
  </g>
  <defs
     id="defs17">
    <clipPath
       id="clip0_1991_1781">
      <rect
         width="116"
         height="116"
         rx="10"
         fill="white"
         id="rect14" />
    </clipPath>
  </defs>
</svg>
