<svg width="116" height="116" viewBox="0 0 116 116" fill="none" xmlns="http://www.w3.org/2000/svg">
<g clip-path="url(#clip0)">
<rect width="116" height="116" fill="#FF4576"/>
<path d="M82.5 144C81.7039 144.005 80.9147 143.837 80.1777 143.506C79.4407 143.176 78.7703 142.688 78.2051 142.072L31.2029 90.3566C25.3071 83.8102 22 74.972 22 65.7618C22 56.5516 25.3071 47.7134 31.2029 41.167C37.1447 34.6561 45.1936 30.9999 53.5849 30.9999C61.9761 30.9999 70.025 34.6561 75.9669 41.167L82.5 48.346L89.0331 41.167C94.975 34.6561 103.024 30.9999 111.415 30.9999C119.806 30.9999 127.855 34.6561 133.797 41.167C139.693 47.7134 143 56.5516 143 65.7618C143 74.972 139.693 83.8102 133.797 90.3566L86.7949 142.072C86.2297 142.688 85.5593 143.176 84.8223 143.506C84.0853 143.837 83.2961 144.005 82.5 144Z" fill="white"/>
<path d="M82.501 111C82.1654 111.002 81.8328 110.932 81.5221 110.795C81.2115 110.657 80.929 110.454 80.6907 110.198L60.8799 88.6881C58.3949 85.9653 57.001 82.2892 57.001 78.4584C57.001 74.6277 58.3949 70.9516 60.8799 68.2288C63.3843 65.5207 66.7768 64 70.3136 64C73.8504 64 77.2429 65.5207 79.7473 68.2288L82.501 71.2147L85.2546 68.2288C87.759 65.5207 91.1515 64 94.6883 64C98.2252 64 101.618 65.5207 104.122 68.2288C106.607 70.9516 108.001 74.6277 108.001 78.4584C108.001 82.2892 106.607 85.9653 104.122 88.6881L84.3112 110.198C84.073 110.454 83.7905 110.657 83.4798 110.795C83.1692 110.932 82.8365 111.002 82.501 111Z" fill="#FF4576"/>
<path d="M21.3472 25H19.4429V21.0391H15.7295V25H13.8252V15.7578H15.7295V19.5029H19.4429V15.7578H21.3472V25ZM29.0786 21.6294C29.0786 22.6873 28.8374 23.5358 28.355 24.1748C27.8768 24.8096 27.2293 25.127 26.4126 25.127C25.7186 25.127 25.1579 24.8857 24.7305 24.4033V27.6406H22.896V18.1318H24.5972L24.6606 18.8047C25.105 18.2715 25.6847 18.0049 26.3999 18.0049C27.2463 18.0049 27.9043 18.318 28.374 18.9443C28.8438 19.5706 29.0786 20.4339 29.0786 21.5342V21.6294ZM27.2441 21.4961C27.2441 20.8571 27.1299 20.3641 26.9014 20.0171C26.6771 19.6701 26.3491 19.4966 25.9175 19.4966C25.342 19.4966 24.9463 19.7166 24.7305 20.1567V22.9688C24.9548 23.4215 25.3547 23.6479 25.9302 23.6479C26.8062 23.6479 27.2441 22.9307 27.2441 21.4961ZM34.2012 25C34.1165 24.835 34.0552 24.6297 34.0171 24.3843C33.5728 24.8794 32.9951 25.127 32.2842 25.127C31.6113 25.127 31.0527 24.9323 30.6084 24.543C30.1683 24.1536 29.9482 23.6628 29.9482 23.0703C29.9482 22.3424 30.217 21.7839 30.7544 21.3945C31.2961 21.0052 32.0768 20.8084 33.0967 20.8042H33.9409V20.4106C33.9409 20.0933 33.8584 19.8394 33.6934 19.6489C33.5326 19.4585 33.2765 19.3633 32.9253 19.3633C32.6164 19.3633 32.373 19.4373 32.1953 19.5854C32.0218 19.7336 31.9351 19.9367 31.9351 20.1948H30.1006C30.1006 19.797 30.2233 19.4289 30.4688 19.0903C30.7142 18.7518 31.0612 18.4873 31.5098 18.2969C31.9583 18.1022 32.4619 18.0049 33.0205 18.0049C33.8669 18.0049 34.5376 18.2186 35.0327 18.646C35.5321 19.0692 35.7817 19.6659 35.7817 20.436V23.4131C35.786 24.0648 35.877 24.5578 36.0547 24.8921V25H34.2012ZM32.6841 23.7241C32.9549 23.7241 33.2046 23.6649 33.4331 23.5464C33.6616 23.4237 33.8309 23.2607 33.9409 23.0576V21.877H33.2554C32.3371 21.877 31.8483 22.1943 31.7891 22.8291L31.7827 22.937C31.7827 23.1655 31.8631 23.3538 32.0239 23.502C32.1847 23.6501 32.4048 23.7241 32.6841 23.7241ZM37.3115 25V18.1318H40.1807C41.1159 18.1318 41.8332 18.2969 42.3325 18.627C42.8319 18.957 43.0815 19.431 43.0815 20.0488C43.0815 20.3662 42.9757 20.6519 42.7642 20.9058C42.5568 21.1554 42.2521 21.348 41.8501 21.4834C42.341 21.5765 42.7261 21.7606 43.0054 22.0356C43.2889 22.3065 43.4307 22.6408 43.4307 23.0386C43.4307 23.6776 43.1895 24.1642 42.707 24.4985C42.2288 24.8328 41.5327 25 40.6187 25H37.3115ZM39.146 22.1499V23.5337H40.625C41.2725 23.5337 41.5962 23.3073 41.5962 22.8545C41.5962 22.3932 41.2873 22.1584 40.6694 22.1499H39.146ZM39.146 20.9185H40.2822C40.9255 20.91 41.2471 20.7026 41.2471 20.2964C41.2471 20.0467 41.1582 19.869 40.9805 19.7632C40.807 19.6574 40.5404 19.6045 40.1807 19.6045H39.146V20.9185ZM48.6929 18.1318H50.5273V25H48.6929V20.7598L46.395 25H44.5542V18.1318H46.395V22.3657L48.6929 18.1318ZM57.6304 19.6045H55.4277V25H53.5869V19.6045H51.4224V18.1318H57.6304V19.6045ZM61.0073 23.6479C61.3459 23.6479 61.6209 23.5549 61.8325 23.3687C62.0441 23.1825 62.1541 22.9349 62.1626 22.626H63.8828C63.8786 23.0915 63.7516 23.5189 63.502 23.9082C63.2523 24.2933 62.9095 24.5938 62.4736 24.8096C62.042 25.0212 61.5638 25.127 61.0391 25.127C60.0573 25.127 59.2829 24.8159 58.7158 24.1938C58.1488 23.5675 57.8652 22.7043 57.8652 21.604V21.4834C57.8652 20.4255 58.1466 19.5812 58.7095 18.9507C59.2723 18.3201 60.0446 18.0049 61.0264 18.0049C61.8854 18.0049 62.5731 18.2503 63.0894 18.7412C63.6099 19.2279 63.8743 19.8774 63.8828 20.6899H62.1626C62.1541 20.3345 62.0441 20.0467 61.8325 19.8267C61.6209 19.6024 61.3416 19.4902 60.9946 19.4902C60.5672 19.4902 60.2435 19.6468 60.0234 19.96C59.8076 20.2689 59.6997 20.7725 59.6997 21.4707V21.6611C59.6997 22.3678 59.8076 22.8757 60.0234 23.1846C60.2393 23.4935 60.5672 23.6479 61.0073 23.6479ZM70.6558 18.1318V25H68.8276V22.626H67.666L66.3457 25H64.4858L65.9839 22.3149C65.5734 22.1245 65.256 21.8664 65.0317 21.5405C64.8117 21.2147 64.7017 20.8444 64.7017 20.4297C64.7017 19.7653 64.9577 19.2215 65.4697 18.7983C65.986 18.3709 66.6758 18.1488 67.5391 18.1318H70.6558ZM67.5708 21.3438H68.8276V19.6045H67.6343C67.3084 19.6045 67.0439 19.6912 66.8408 19.8647C66.6377 20.034 66.5361 20.2414 66.5361 20.4868C66.5361 20.7323 66.6335 20.9354 66.8281 21.0962C67.0228 21.257 67.2703 21.3395 67.5708 21.3438Z" fill="black" fill-opacity="0.25"/>
<path d="M20.3472 24H18.4429V20.0391H14.7295V24H12.8252V14.7578H14.7295V18.5029H18.4429V14.7578H20.3472V24ZM28.0786 20.6294C28.0786 21.6873 27.8374 22.5358 27.355 23.1748C26.8768 23.8096 26.2293 24.127 25.4126 24.127C24.7186 24.127 24.1579 23.8857 23.7305 23.4033V26.6406H21.896V17.1318H23.5972L23.6606 17.8047C24.105 17.2715 24.6847 17.0049 25.3999 17.0049C26.2463 17.0049 26.9043 17.318 27.374 17.9443C27.8438 18.5706 28.0786 19.4339 28.0786 20.5342V20.6294ZM26.2441 20.4961C26.2441 19.8571 26.1299 19.3641 25.9014 19.0171C25.6771 18.6701 25.3491 18.4966 24.9175 18.4966C24.342 18.4966 23.9463 18.7166 23.7305 19.1567V21.9688C23.9548 22.4215 24.3547 22.6479 24.9302 22.6479C25.8062 22.6479 26.2441 21.9307 26.2441 20.4961ZM33.2012 24C33.1165 23.835 33.0552 23.6297 33.0171 23.3843C32.5728 23.8794 31.9951 24.127 31.2842 24.127C30.6113 24.127 30.0527 23.9323 29.6084 23.543C29.1683 23.1536 28.9482 22.6628 28.9482 22.0703C28.9482 21.3424 29.217 20.7839 29.7544 20.3945C30.2961 20.0052 31.0768 19.8084 32.0967 19.8042H32.9409V19.4106C32.9409 19.0933 32.8584 18.8394 32.6934 18.6489C32.5326 18.4585 32.2765 18.3633 31.9253 18.3633C31.6164 18.3633 31.373 18.4373 31.1953 18.5854C31.0218 18.7336 30.9351 18.9367 30.9351 19.1948H29.1006C29.1006 18.797 29.2233 18.4289 29.4688 18.0903C29.7142 17.7518 30.0612 17.4873 30.5098 17.2969C30.9583 17.1022 31.4619 17.0049 32.0205 17.0049C32.8669 17.0049 33.5376 17.2186 34.0327 17.646C34.5321 18.0692 34.7817 18.6659 34.7817 19.436V22.4131C34.786 23.0648 34.877 23.5578 35.0547 23.8921V24H33.2012ZM31.6841 22.7241C31.9549 22.7241 32.2046 22.6649 32.4331 22.5464C32.6616 22.4237 32.8309 22.2607 32.9409 22.0576V20.877H32.2554C31.3371 20.877 30.8483 21.1943 30.7891 21.8291L30.7827 21.937C30.7827 22.1655 30.8631 22.3538 31.0239 22.502C31.1847 22.6501 31.4048 22.7241 31.6841 22.7241ZM36.3115 24V17.1318H39.1807C40.1159 17.1318 40.8332 17.2969 41.3325 17.627C41.8319 17.957 42.0815 18.431 42.0815 19.0488C42.0815 19.3662 41.9757 19.6519 41.7642 19.9058C41.5568 20.1554 41.2521 20.348 40.8501 20.4834C41.341 20.5765 41.7261 20.7606 42.0054 21.0356C42.2889 21.3065 42.4307 21.6408 42.4307 22.0386C42.4307 22.6776 42.1895 23.1642 41.707 23.4985C41.2288 23.8328 40.5327 24 39.6187 24H36.3115ZM38.146 21.1499V22.5337H39.625C40.2725 22.5337 40.5962 22.3073 40.5962 21.8545C40.5962 21.3932 40.2873 21.1584 39.6694 21.1499H38.146ZM38.146 19.9185H39.2822C39.9255 19.91 40.2471 19.7026 40.2471 19.2964C40.2471 19.0467 40.1582 18.869 39.9805 18.7632C39.807 18.6574 39.5404 18.6045 39.1807 18.6045H38.146V19.9185ZM47.6929 17.1318H49.5273V24H47.6929V19.7598L45.395 24H43.5542V17.1318H45.395V21.3657L47.6929 17.1318ZM56.6304 18.6045H54.4277V24H52.5869V18.6045H50.4224V17.1318H56.6304V18.6045ZM60.0073 22.6479C60.3459 22.6479 60.6209 22.5549 60.8325 22.3687C61.0441 22.1825 61.1541 21.9349 61.1626 21.626H62.8828C62.8786 22.0915 62.7516 22.5189 62.502 22.9082C62.2523 23.2933 61.9095 23.5938 61.4736 23.8096C61.042 24.0212 60.5638 24.127 60.0391 24.127C59.0573 24.127 58.2829 23.8159 57.7158 23.1938C57.1488 22.5675 56.8652 21.7043 56.8652 20.604V20.4834C56.8652 19.4255 57.1466 18.5812 57.7095 17.9507C58.2723 17.3201 59.0446 17.0049 60.0264 17.0049C60.8854 17.0049 61.5731 17.2503 62.0894 17.7412C62.6099 18.2279 62.8743 18.8774 62.8828 19.6899H61.1626C61.1541 19.3345 61.0441 19.0467 60.8325 18.8267C60.6209 18.6024 60.3416 18.4902 59.9946 18.4902C59.5672 18.4902 59.2435 18.6468 59.0234 18.96C58.8076 19.2689 58.6997 19.7725 58.6997 20.4707V20.6611C58.6997 21.3678 58.8076 21.8757 59.0234 22.1846C59.2393 22.4935 59.5672 22.6479 60.0073 22.6479ZM69.6558 17.1318V24H67.8276V21.626H66.666L65.3457 24H63.4858L64.9839 21.3149C64.5734 21.1245 64.256 20.8664 64.0317 20.5405C63.8117 20.2147 63.7017 19.8444 63.7017 19.4297C63.7017 18.7653 63.9577 18.2215 64.4697 17.7983C64.986 17.3709 65.6758 17.1488 66.5391 17.1318H69.6558ZM66.5708 20.3438H67.8276V18.6045H66.6343C66.3084 18.6045 66.0439 18.6912 65.8408 18.8647C65.6377 19.034 65.5361 19.2414 65.5361 19.4868C65.5361 19.7323 65.6335 19.9354 65.8281 20.0962C66.0228 20.257 66.2703 20.3395 66.5708 20.3438Z" fill="white"/>
</g>
<defs>
<clipPath id="clip0">
<rect width="116" height="116" rx="10" fill="white"/>
</clipPath>
</defs>
</svg>
