<svg width="116" height="116" viewBox="0 0 116 116" fill="none" xmlns="http://www.w3.org/2000/svg">
<g clip-path="url(#clip0_1991_1701)">
<rect width="116" height="116" fill="#FF4576"/>
<path d="M57.5 143C56.8223 143.004 56.1505 142.863 55.5231 142.585C54.8958 142.307 54.3251 141.897 53.844 141.379L13.8338 97.9015C8.81512 92.398 6 84.9676 6 77.2245C6 69.4814 8.81512 62.0511 13.8338 56.5475C18.8918 51.0737 25.7433 47.9999 32.8863 47.9999C40.0293 47.9999 46.8808 51.0737 51.9387 56.5475L57.5 62.583L63.0613 56.5475C68.1192 51.0737 74.9707 47.9999 82.1137 47.9999C89.2567 47.9999 96.1082 51.0737 101.166 56.5475C106.185 62.0511 109 69.4814 109 77.2245C109 84.9676 106.185 92.398 101.166 97.9015L61.156 141.379C60.6749 141.897 60.1042 142.307 59.4769 142.585C58.8495 142.863 58.1777 143.004 57.5 143Z" fill="white"/>
<path d="M57.501 119C57.1654 119.002 56.8328 118.932 56.5221 118.795C56.2115 118.657 55.929 118.454 55.6907 118.198L35.8799 96.6881C33.3949 93.9653 32.001 90.2892 32.001 86.4584C32.001 82.6277 33.3949 78.9516 35.8799 76.2288C38.3843 73.5207 41.7768 72 45.3136 72C48.8504 72 52.2429 73.5207 54.7473 76.2288L57.501 79.2147L60.2546 76.2288C62.759 73.5207 66.1515 72 69.6883 72C73.2252 72 76.6177 73.5207 79.1221 76.2288C81.6071 78.9516 83.001 82.6277 83.001 86.4584C83.001 90.2892 81.6071 93.9653 79.1221 96.6881L59.3112 118.198C59.073 118.454 58.7905 118.657 58.4798 118.795C58.1692 118.932 57.8365 119.002 57.501 119Z" fill="#FF4576"/>
<path d="M32.3652 24.6792V26.3931H26.7988V24.6792H32.3652ZM27.4507 20.3359V31H25.2534V20.3359H27.4507ZM33.9326 20.3359V31H31.7427V20.3359H33.9326ZM37.8218 24.5986V34.0469H35.7124V23.0752H37.668L37.8218 24.5986ZM42.8389 26.9497V27.1035C42.8389 27.6797 42.7705 28.2144 42.6338 28.7075C42.502 29.2007 42.3066 29.6304 42.0479 29.9966C41.7891 30.3579 41.4668 30.6411 41.0811 30.8462C40.7002 31.0464 40.2607 31.1465 39.7627 31.1465C39.2793 31.1465 38.8594 31.0488 38.5029 30.8535C38.1465 30.6582 37.8462 30.3848 37.6021 30.0332C37.3628 29.6768 37.1699 29.2642 37.0234 28.7954C36.877 28.3267 36.7646 27.8237 36.6865 27.2866V26.8838C36.7646 26.3076 36.877 25.7803 37.0234 25.3018C37.1699 24.8184 37.3628 24.4009 37.6021 24.0493C37.8462 23.6929 38.144 23.417 38.4956 23.2217C38.8521 23.0264 39.2695 22.9287 39.748 22.9287C40.251 22.9287 40.6929 23.0239 41.0737 23.2144C41.4595 23.4048 41.7817 23.6782 42.0405 24.0347C42.3042 24.3911 42.502 24.8159 42.6338 25.3091C42.7705 25.8022 42.8389 26.3491 42.8389 26.9497ZM40.7222 27.1035V26.9497C40.7222 26.6128 40.6929 26.3027 40.6343 26.0195C40.5806 25.7314 40.4927 25.48 40.3706 25.2651C40.2534 25.0503 40.0972 24.8843 39.9019 24.7671C39.7114 24.645 39.4795 24.584 39.2061 24.584C38.918 24.584 38.6714 24.6304 38.4663 24.7231C38.2661 24.8159 38.1025 24.9502 37.9756 25.126C37.8486 25.3018 37.7534 25.5117 37.6899 25.7559C37.6265 26 37.5874 26.2759 37.5728 26.5835V27.6016C37.5972 27.9629 37.6655 28.2876 37.7778 28.5757C37.8901 28.8589 38.0635 29.0835 38.2979 29.2495C38.5322 29.4155 38.8398 29.4985 39.2207 29.4985C39.499 29.4985 39.7334 29.4375 39.9238 29.3154C40.1143 29.1885 40.2681 29.0151 40.3853 28.7954C40.5073 28.5757 40.5928 28.3218 40.6416 28.0337C40.6953 27.7456 40.7222 27.4355 40.7222 27.1035ZM48.4272 29.2129V25.6826C48.4272 25.4287 48.3857 25.2114 48.3027 25.0308C48.2197 24.8452 48.0903 24.7012 47.9146 24.5986C47.7437 24.4961 47.5215 24.4448 47.248 24.4448C47.0137 24.4448 46.811 24.4863 46.6401 24.5693C46.4692 24.6475 46.3374 24.7622 46.2446 24.9136C46.1519 25.0601 46.1055 25.2334 46.1055 25.4336H43.9961C43.9961 25.0967 44.0742 24.7769 44.2305 24.4741C44.3867 24.1714 44.6138 23.9053 44.9116 23.6758C45.2095 23.4414 45.5635 23.2583 45.9736 23.1265C46.3887 22.9946 46.8525 22.9287 47.3652 22.9287C47.9805 22.9287 48.5273 23.0312 49.0059 23.2363C49.4844 23.4414 49.8604 23.749 50.1338 24.1592C50.4121 24.5693 50.5513 25.082 50.5513 25.6973V29.0884C50.5513 29.5229 50.5781 29.8794 50.6318 30.1577C50.6855 30.4312 50.7637 30.6704 50.8662 30.8755V31H48.7349C48.6323 30.7852 48.5542 30.5166 48.5005 30.1943C48.4517 29.8672 48.4272 29.54 48.4272 29.2129ZM48.7056 26.1733L48.7202 27.3672H47.541C47.2627 27.3672 47.021 27.3989 46.8159 27.4624C46.6108 27.5259 46.4424 27.6162 46.3105 27.7334C46.1787 27.8457 46.0811 27.9775 46.0176 28.1289C45.959 28.2803 45.9297 28.4463 45.9297 28.627C45.9297 28.8076 45.9712 28.9712 46.0542 29.1177C46.1372 29.2593 46.2568 29.3716 46.4131 29.4546C46.5693 29.5327 46.7524 29.5718 46.9624 29.5718C47.2798 29.5718 47.5557 29.5083 47.79 29.3813C48.0244 29.2544 48.2051 29.0981 48.332 28.9126C48.4639 28.7271 48.5322 28.5513 48.5371 28.3853L49.0938 29.2788C49.0156 29.479 48.9082 29.6865 48.7715 29.9014C48.6396 30.1162 48.4712 30.3188 48.2661 30.5093C48.061 30.6948 47.8145 30.8486 47.5264 30.9707C47.2383 31.0879 46.8965 31.1465 46.501 31.1465C45.998 31.1465 45.5415 31.0464 45.1313 30.8462C44.7261 30.6411 44.4038 30.3604 44.1646 30.0039C43.9302 29.6426 43.813 29.2324 43.813 28.7734C43.813 28.3584 43.8911 27.9897 44.0474 27.6675C44.2036 27.3452 44.4331 27.0742 44.7358 26.8545C45.0435 26.6299 45.4268 26.4614 45.8857 26.3491C46.3447 26.2319 46.877 26.1733 47.4824 26.1733H48.7056ZM56.125 27.6895H53.6421L53.6274 26.3052H55.6782C55.9517 26.3052 56.1738 26.2783 56.3447 26.2246C56.5156 26.166 56.6401 26.0806 56.7183 25.9683C56.8013 25.8511 56.8428 25.7095 56.8428 25.5435C56.8428 25.397 56.8159 25.2725 56.7622 25.1699C56.7134 25.0625 56.6377 24.9746 56.5352 24.9062C56.4326 24.8379 56.3032 24.7891 56.147 24.7598C55.9956 24.7256 55.8174 24.7085 55.6123 24.7085H54.4258V31H52.3164V23.0752H55.6123C56.1299 23.0752 56.5938 23.1216 57.0039 23.2144C57.4141 23.3022 57.7632 23.4365 58.0513 23.6172C58.3442 23.7979 58.5664 24.0273 58.7178 24.3057C58.874 24.5791 58.9521 24.9038 58.9521 25.2798C58.9521 25.5239 58.896 25.7534 58.7837 25.9683C58.6763 26.1831 58.5151 26.3735 58.3003 26.5396C58.0854 26.7056 57.8193 26.8423 57.502 26.9497C57.1895 27.0522 56.8281 27.1157 56.418 27.1401L56.125 27.6895ZM56.125 31H53.1221L53.8472 29.3667H56.125C56.3838 29.3667 56.5962 29.335 56.7622 29.2715C56.9282 29.208 57.0503 29.1152 57.1284 28.9932C57.2114 28.8662 57.2529 28.7148 57.2529 28.5391C57.2529 28.3682 57.2163 28.2192 57.1431 28.0923C57.0698 27.9653 56.9502 27.8677 56.7842 27.7993C56.623 27.7261 56.4033 27.6895 56.125 27.6895H54.1548L54.1694 26.3052H56.4106L56.9233 26.8618C57.48 26.896 57.939 27.001 58.3003 27.1768C58.6616 27.3525 58.9277 27.5771 59.0986 27.8506C59.2744 28.1191 59.3623 28.4146 59.3623 28.7368C59.3623 29.1128 59.2915 29.4424 59.1499 29.7256C59.0083 30.0088 58.7983 30.2456 58.52 30.436C58.2466 30.6216 57.9097 30.7632 57.5093 30.8608C57.1089 30.9536 56.6475 31 56.125 31ZM62.7607 28.0557L65.4194 23.0752H67.5288V31H65.4194V26.0122L62.7607 31H60.6514V23.0752H62.7607V28.0557ZM73.1904 23.0752V31H71.0737V23.0752H73.1904ZM75.7393 23.0752V24.7085H68.5615V23.0752H75.7393ZM79.5771 29.4985C79.8359 29.4985 80.0654 29.4497 80.2656 29.3521C80.4658 29.2495 80.6221 29.1079 80.7344 28.9272C80.8516 28.7417 80.9126 28.5244 80.9175 28.2754H82.9023C82.8975 28.832 82.7485 29.3276 82.4556 29.7622C82.1626 30.1919 81.7695 30.5312 81.2764 30.7803C80.7832 31.0244 80.2314 31.1465 79.6211 31.1465C79.0059 31.1465 78.4688 31.0439 78.0098 30.8389C77.5557 30.6338 77.1772 30.3506 76.8745 29.9893C76.5718 29.623 76.3447 29.1982 76.1934 28.7148C76.042 28.2266 75.9663 27.7041 75.9663 27.1475V26.9351C75.9663 26.3735 76.042 25.8511 76.1934 25.3677C76.3447 24.8794 76.5718 24.4546 76.8745 24.0933C77.1772 23.7271 77.5557 23.4414 78.0098 23.2363C78.4639 23.0312 78.9961 22.9287 79.6064 22.9287C80.2559 22.9287 80.8247 23.0532 81.313 23.3022C81.8062 23.5513 82.1919 23.9077 82.4702 24.3716C82.7534 24.8306 82.8975 25.375 82.9023 26.0049H80.9175C80.9126 25.7412 80.8564 25.502 80.749 25.2871C80.6465 25.0723 80.4951 24.9014 80.2949 24.7744C80.0996 24.6426 79.8579 24.5767 79.5698 24.5767C79.2622 24.5767 79.0107 24.6426 78.8154 24.7744C78.6201 24.9014 78.4688 25.0771 78.3613 25.3018C78.2539 25.5215 78.1782 25.7729 78.1343 26.0562C78.0952 26.3345 78.0757 26.6274 78.0757 26.9351V27.1475C78.0757 27.4551 78.0952 27.7505 78.1343 28.0337C78.1733 28.3169 78.2466 28.5684 78.354 28.7881C78.4663 29.0078 78.6201 29.1812 78.8154 29.3081C79.0107 29.4351 79.2646 29.4985 79.5771 29.4985ZM85.832 27.0449H87.9707L85.7661 31H83.6348L85.832 27.0449ZM87.2529 23.0752H90.7319V31H88.6226V24.7085H87.2529C86.9648 24.7085 86.7256 24.7622 86.5352 24.8696C86.3447 24.9722 86.2031 25.1064 86.1104 25.2725C86.0225 25.4336 85.9785 25.5996 85.9785 25.7705C85.9785 25.9365 86.0225 26.0977 86.1104 26.2539C86.1982 26.4102 86.335 26.5396 86.5205 26.6421C86.7061 26.7446 86.938 26.7959 87.2163 26.7959H89.4062V28.2314H87.2163C86.6938 28.2314 86.2251 28.168 85.8101 28.041C85.3999 27.9141 85.0483 27.7383 84.7554 27.5137C84.4673 27.2842 84.2451 27.0181 84.0889 26.7153C83.9375 26.4077 83.8618 26.0708 83.8618 25.7046C83.8618 25.3237 83.9399 24.9746 84.0962 24.6572C84.2524 24.3398 84.4771 24.0615 84.77 23.8223C85.063 23.583 85.417 23.3999 85.832 23.2729C86.252 23.1411 86.7256 23.0752 87.2529 23.0752Z" fill="black" fill-opacity="0.25"/>
<path d="M31.3652 23.6792V25.3931H25.7988V23.6792H31.3652ZM26.4507 19.3359V30H24.2534V19.3359H26.4507ZM32.9326 19.3359V30H30.7427V19.3359H32.9326ZM36.8218 23.5986V33.0469H34.7124V22.0752H36.668L36.8218 23.5986ZM41.8389 25.9497V26.1035C41.8389 26.6797 41.7705 27.2144 41.6338 27.7075C41.502 28.2007 41.3066 28.6304 41.0479 28.9966C40.7891 29.3579 40.4668 29.6411 40.0811 29.8462C39.7002 30.0464 39.2607 30.1465 38.7627 30.1465C38.2793 30.1465 37.8594 30.0488 37.5029 29.8535C37.1465 29.6582 36.8462 29.3848 36.6021 29.0332C36.3628 28.6768 36.1699 28.2642 36.0234 27.7954C35.877 27.3267 35.7646 26.8237 35.6865 26.2866V25.8838C35.7646 25.3076 35.877 24.7803 36.0234 24.3018C36.1699 23.8184 36.3628 23.4009 36.6021 23.0493C36.8462 22.6929 37.144 22.417 37.4956 22.2217C37.8521 22.0264 38.2695 21.9287 38.748 21.9287C39.251 21.9287 39.6929 22.0239 40.0737 22.2144C40.4595 22.4048 40.7817 22.6782 41.0405 23.0347C41.3042 23.3911 41.502 23.8159 41.6338 24.3091C41.7705 24.8022 41.8389 25.3491 41.8389 25.9497ZM39.7222 26.1035V25.9497C39.7222 25.6128 39.6929 25.3027 39.6343 25.0195C39.5806 24.7314 39.4927 24.48 39.3706 24.2651C39.2534 24.0503 39.0972 23.8843 38.9019 23.7671C38.7114 23.645 38.4795 23.584 38.2061 23.584C37.918 23.584 37.6714 23.6304 37.4663 23.7231C37.2661 23.8159 37.1025 23.9502 36.9756 24.126C36.8486 24.3018 36.7534 24.5117 36.6899 24.7559C36.6265 25 36.5874 25.2759 36.5728 25.5835V26.6016C36.5972 26.9629 36.6655 27.2876 36.7778 27.5757C36.8901 27.8589 37.0635 28.0835 37.2979 28.2495C37.5322 28.4155 37.8398 28.4985 38.2207 28.4985C38.499 28.4985 38.7334 28.4375 38.9238 28.3154C39.1143 28.1885 39.2681 28.0151 39.3853 27.7954C39.5073 27.5757 39.5928 27.3218 39.6416 27.0337C39.6953 26.7456 39.7222 26.4355 39.7222 26.1035ZM47.4272 28.2129V24.6826C47.4272 24.4287 47.3857 24.2114 47.3027 24.0308C47.2197 23.8452 47.0903 23.7012 46.9146 23.5986C46.7437 23.4961 46.5215 23.4448 46.248 23.4448C46.0137 23.4448 45.811 23.4863 45.6401 23.5693C45.4692 23.6475 45.3374 23.7622 45.2446 23.9136C45.1519 24.0601 45.1055 24.2334 45.1055 24.4336H42.9961C42.9961 24.0967 43.0742 23.7769 43.2305 23.4741C43.3867 23.1714 43.6138 22.9053 43.9116 22.6758C44.2095 22.4414 44.5635 22.2583 44.9736 22.1265C45.3887 21.9946 45.8525 21.9287 46.3652 21.9287C46.9805 21.9287 47.5273 22.0312 48.0059 22.2363C48.4844 22.4414 48.8604 22.749 49.1338 23.1592C49.4121 23.5693 49.5513 24.082 49.5513 24.6973V28.0884C49.5513 28.5229 49.5781 28.8794 49.6318 29.1577C49.6855 29.4312 49.7637 29.6704 49.8662 29.8755V30H47.7349C47.6323 29.7852 47.5542 29.5166 47.5005 29.1943C47.4517 28.8672 47.4272 28.54 47.4272 28.2129ZM47.7056 25.1733L47.7202 26.3672H46.541C46.2627 26.3672 46.021 26.3989 45.8159 26.4624C45.6108 26.5259 45.4424 26.6162 45.3105 26.7334C45.1787 26.8457 45.0811 26.9775 45.0176 27.1289C44.959 27.2803 44.9297 27.4463 44.9297 27.627C44.9297 27.8076 44.9712 27.9712 45.0542 28.1177C45.1372 28.2593 45.2568 28.3716 45.4131 28.4546C45.5693 28.5327 45.7524 28.5718 45.9624 28.5718C46.2798 28.5718 46.5557 28.5083 46.79 28.3813C47.0244 28.2544 47.2051 28.0981 47.332 27.9126C47.4639 27.7271 47.5322 27.5513 47.5371 27.3853L48.0938 28.2788C48.0156 28.479 47.9082 28.6865 47.7715 28.9014C47.6396 29.1162 47.4712 29.3188 47.2661 29.5093C47.061 29.6948 46.8145 29.8486 46.5264 29.9707C46.2383 30.0879 45.8965 30.1465 45.501 30.1465C44.998 30.1465 44.5415 30.0464 44.1313 29.8462C43.7261 29.6411 43.4038 29.3604 43.1646 29.0039C42.9302 28.6426 42.813 28.2324 42.813 27.7734C42.813 27.3584 42.8911 26.9897 43.0474 26.6675C43.2036 26.3452 43.4331 26.0742 43.7358 25.8545C44.0435 25.6299 44.4268 25.4614 44.8857 25.3491C45.3447 25.2319 45.877 25.1733 46.4824 25.1733H47.7056ZM55.125 26.6895H52.6421L52.6274 25.3052H54.6782C54.9517 25.3052 55.1738 25.2783 55.3447 25.2246C55.5156 25.166 55.6401 25.0806 55.7183 24.9683C55.8013 24.8511 55.8428 24.7095 55.8428 24.5435C55.8428 24.397 55.8159 24.2725 55.7622 24.1699C55.7134 24.0625 55.6377 23.9746 55.5352 23.9062C55.4326 23.8379 55.3032 23.7891 55.147 23.7598C54.9956 23.7256 54.8174 23.7085 54.6123 23.7085H53.4258V30H51.3164V22.0752H54.6123C55.1299 22.0752 55.5938 22.1216 56.0039 22.2144C56.4141 22.3022 56.7632 22.4365 57.0513 22.6172C57.3442 22.7979 57.5664 23.0273 57.7178 23.3057C57.874 23.5791 57.9521 23.9038 57.9521 24.2798C57.9521 24.5239 57.896 24.7534 57.7837 24.9683C57.6763 25.1831 57.5151 25.3735 57.3003 25.5396C57.0854 25.7056 56.8193 25.8423 56.502 25.9497C56.1895 26.0522 55.8281 26.1157 55.418 26.1401L55.125 26.6895ZM55.125 30H52.1221L52.8472 28.3667H55.125C55.3838 28.3667 55.5962 28.335 55.7622 28.2715C55.9282 28.208 56.0503 28.1152 56.1284 27.9932C56.2114 27.8662 56.2529 27.7148 56.2529 27.5391C56.2529 27.3682 56.2163 27.2192 56.1431 27.0923C56.0698 26.9653 55.9502 26.8677 55.7842 26.7993C55.623 26.7261 55.4033 26.6895 55.125 26.6895H53.1548L53.1694 25.3052H55.4106L55.9233 25.8618C56.48 25.896 56.939 26.001 57.3003 26.1768C57.6616 26.3525 57.9277 26.5771 58.0986 26.8506C58.2744 27.1191 58.3623 27.4146 58.3623 27.7368C58.3623 28.1128 58.2915 28.4424 58.1499 28.7256C58.0083 29.0088 57.7983 29.2456 57.52 29.436C57.2466 29.6216 56.9097 29.7632 56.5093 29.8608C56.1089 29.9536 55.6475 30 55.125 30ZM61.7607 27.0557L64.4194 22.0752H66.5288V30H64.4194V25.0122L61.7607 30H59.6514V22.0752H61.7607V27.0557ZM72.1904 22.0752V30H70.0737V22.0752H72.1904ZM74.7393 22.0752V23.7085H67.5615V22.0752H74.7393ZM78.5771 28.4985C78.8359 28.4985 79.0654 28.4497 79.2656 28.3521C79.4658 28.2495 79.6221 28.1079 79.7344 27.9272C79.8516 27.7417 79.9126 27.5244 79.9175 27.2754H81.9023C81.8975 27.832 81.7485 28.3276 81.4556 28.7622C81.1626 29.1919 80.7695 29.5312 80.2764 29.7803C79.7832 30.0244 79.2314 30.1465 78.6211 30.1465C78.0059 30.1465 77.4688 30.0439 77.0098 29.8389C76.5557 29.6338 76.1772 29.3506 75.8745 28.9893C75.5718 28.623 75.3447 28.1982 75.1934 27.7148C75.042 27.2266 74.9663 26.7041 74.9663 26.1475V25.9351C74.9663 25.3735 75.042 24.8511 75.1934 24.3677C75.3447 23.8794 75.5718 23.4546 75.8745 23.0933C76.1772 22.7271 76.5557 22.4414 77.0098 22.2363C77.4639 22.0312 77.9961 21.9287 78.6064 21.9287C79.2559 21.9287 79.8247 22.0532 80.313 22.3022C80.8062 22.5513 81.1919 22.9077 81.4702 23.3716C81.7534 23.8306 81.8975 24.375 81.9023 25.0049H79.9175C79.9126 24.7412 79.8564 24.502 79.749 24.2871C79.6465 24.0723 79.4951 23.9014 79.2949 23.7744C79.0996 23.6426 78.8579 23.5767 78.5698 23.5767C78.2622 23.5767 78.0107 23.6426 77.8154 23.7744C77.6201 23.9014 77.4688 24.0771 77.3613 24.3018C77.2539 24.5215 77.1782 24.7729 77.1343 25.0562C77.0952 25.3345 77.0757 25.6274 77.0757 25.9351V26.1475C77.0757 26.4551 77.0952 26.7505 77.1343 27.0337C77.1733 27.3169 77.2466 27.5684 77.354 27.7881C77.4663 28.0078 77.6201 28.1812 77.8154 28.3081C78.0107 28.4351 78.2646 28.4985 78.5771 28.4985ZM84.832 26.0449H86.9707L84.7661 30H82.6348L84.832 26.0449ZM86.2529 22.0752H89.7319V30H87.6226V23.7085H86.2529C85.9648 23.7085 85.7256 23.7622 85.5352 23.8696C85.3447 23.9722 85.2031 24.1064 85.1104 24.2725C85.0225 24.4336 84.9785 24.5996 84.9785 24.7705C84.9785 24.9365 85.0225 25.0977 85.1104 25.2539C85.1982 25.4102 85.335 25.5396 85.5205 25.6421C85.7061 25.7446 85.938 25.7959 86.2163 25.7959H88.4062V27.2314H86.2163C85.6938 27.2314 85.2251 27.168 84.8101 27.041C84.3999 26.9141 84.0483 26.7383 83.7554 26.5137C83.4673 26.2842 83.2451 26.0181 83.0889 25.7153C82.9375 25.4077 82.8618 25.0708 82.8618 24.7046C82.8618 24.3237 82.9399 23.9746 83.0962 23.6572C83.2524 23.3398 83.4771 23.0615 83.77 22.8223C84.063 22.583 84.417 22.3999 84.832 22.2729C85.252 22.1411 85.7256 22.0752 86.2529 22.0752Z" fill="white"/>
</g>
<defs>
<clipPath id="clip0_1991_1701">
<rect width="116" height="116" rx="10" fill="white"/>
</clipPath>
</defs>
</svg>
