<svg width="116" height="116" viewBox="0 0 116 116" fill="none" xmlns="http://www.w3.org/2000/svg">
<g clip-path="url(#clip0)">
<rect width="116" height="116" fill="#FF4576"/>
<path d="M82.5 144C81.7039 144.005 80.9147 143.837 80.1777 143.506C79.4407 143.176 78.7703 142.688 78.2051 142.072L31.2029 90.3566C25.3071 83.8102 22 74.972 22 65.7618C22 56.5516 25.3071 47.7134 31.2029 41.167C37.1447 34.6561 45.1936 30.9999 53.5849 30.9999C61.9761 30.9999 70.025 34.6561 75.9669 41.167L82.5 48.346L89.0331 41.167C94.975 34.6561 103.024 30.9999 111.415 30.9999C119.806 30.9999 127.855 34.6561 133.797 41.167C139.693 47.7134 143 56.5516 143 65.7618C143 74.972 139.693 83.8102 133.797 90.3566L86.7949 142.072C86.2297 142.688 85.5593 143.176 84.8223 143.506C84.0853 143.837 83.2961 144.005 82.5 144Z" fill="white"/>
<path d="M82.501 111C82.1654 111.002 81.8328 110.932 81.5221 110.795C81.2115 110.657 80.929 110.454 80.6907 110.198L60.8799 88.6881C58.3949 85.9653 57.001 82.2892 57.001 78.4584C57.001 74.6277 58.3949 70.9516 60.8799 68.2288C63.3843 65.5207 66.7768 64 70.3136 64C73.8504 64 77.2429 65.5207 79.7473 68.2288L82.501 71.2147L85.2546 68.2288C87.759 65.5207 91.1515 64 94.6883 64C98.2252 64 101.618 65.5207 104.122 68.2288C106.607 70.9516 108.001 74.6277 108.001 78.4584C108.001 82.2892 106.607 85.9653 104.122 88.6881L84.3112 110.198C84.073 110.454 83.7905 110.657 83.4798 110.795C83.1692 110.932 82.8365 111.002 82.501 111Z" fill="#FF4576"/>
<path d="M19.3857 21.2231H15.7295V25H13.8252V15.7578H19.8428V17.3003H15.7295V19.687H19.3857V21.2231ZM24.5908 25C24.5062 24.835 24.4448 24.6297 24.4067 24.3843C23.9624 24.8794 23.3848 25.127 22.6738 25.127C22.001 25.127 21.4424 24.9323 20.998 24.543C20.5579 24.1536 20.3379 23.6628 20.3379 23.0703C20.3379 22.3424 20.6066 21.7839 21.144 21.3945C21.6857 21.0052 22.4665 20.8084 23.4863 20.8042H24.3306V20.4106C24.3306 20.0933 24.248 19.8394 24.083 19.6489C23.9222 19.4585 23.6662 19.3633 23.3149 19.3633C23.006 19.3633 22.7627 19.4373 22.585 19.5854C22.4115 19.7336 22.3247 19.9367 22.3247 20.1948H20.4902C20.4902 19.797 20.613 19.4289 20.8584 19.0903C21.1038 18.7518 21.4508 18.4873 21.8994 18.2969C22.348 18.1022 22.8516 18.0049 23.4102 18.0049C24.2565 18.0049 24.9272 18.2186 25.4224 18.646C25.9217 19.0692 26.1714 19.6659 26.1714 20.436V23.4131C26.1756 24.0648 26.2666 24.5578 26.4443 24.8921V25H24.5908ZM23.0737 23.7241C23.3446 23.7241 23.5942 23.6649 23.8228 23.5464C24.0513 23.4237 24.2205 23.2607 24.3306 23.0576V21.877H23.645C22.7267 21.877 22.238 22.1943 22.1787 22.8291L22.1724 22.937C22.1724 23.1655 22.2528 23.3538 22.4136 23.502C22.5744 23.6501 22.7944 23.7241 23.0737 23.7241ZM30.0498 22.7593L31.3257 18.1318H33.2427L30.9258 25H29.1738L26.8569 18.1318H28.7739L30.0498 22.7593ZM33.668 21.5024C33.668 20.8211 33.7992 20.2139 34.0615 19.6807C34.3239 19.1475 34.7005 18.7349 35.1914 18.4429C35.6865 18.1509 36.2599 18.0049 36.9116 18.0049C37.8384 18.0049 38.5938 18.2884 39.1777 18.8555C39.766 19.4225 40.0939 20.1927 40.1616 21.166L40.1743 21.6357C40.1743 22.6895 39.8802 23.5358 39.292 24.1748C38.7038 24.8096 37.9146 25.127 36.9243 25.127C35.9341 25.127 35.1427 24.8096 34.5503 24.1748C33.9621 23.54 33.668 22.6768 33.668 21.585V21.5024ZM35.5024 21.6357C35.5024 22.2874 35.6252 22.7868 35.8706 23.1338C36.116 23.4766 36.4673 23.6479 36.9243 23.6479C37.3687 23.6479 37.7157 23.4787 37.9653 23.1401C38.215 22.7974 38.3398 22.2515 38.3398 21.5024C38.3398 20.8634 38.215 20.3683 37.9653 20.0171C37.7157 19.6659 37.3644 19.4902 36.9116 19.4902C36.4631 19.4902 36.116 19.6659 35.8706 20.0171C35.6252 20.3641 35.5024 20.9036 35.5024 21.6357ZM45.1636 19.8521C44.9139 19.8182 44.6938 19.8013 44.5034 19.8013C43.8094 19.8013 43.3545 20.0361 43.1387 20.5059V25H41.3042V18.1318H43.0371L43.0879 18.9507C43.4561 18.3201 43.966 18.0049 44.6177 18.0049C44.8208 18.0049 45.0112 18.0324 45.189 18.0874L45.1636 19.8521ZM47.9883 25H46.1475V18.1318H47.9883V25ZM46.0396 16.3545C46.0396 16.0794 46.1305 15.853 46.3125 15.6753C46.4987 15.4976 46.7505 15.4087 47.0679 15.4087C47.381 15.4087 47.6307 15.4976 47.8169 15.6753C48.0031 15.853 48.0962 16.0794 48.0962 16.3545C48.0962 16.6338 48.001 16.8623 47.8105 17.04C47.6243 17.2178 47.3768 17.3066 47.0679 17.3066C46.759 17.3066 46.5093 17.2178 46.3188 17.04C46.1326 16.8623 46.0396 16.6338 46.0396 16.3545ZM51.7017 16.4434V18.1318H52.876V19.4775H51.7017V22.9053C51.7017 23.1592 51.7503 23.3411 51.8477 23.4512C51.945 23.5612 52.1312 23.6162 52.4062 23.6162C52.6094 23.6162 52.7892 23.6014 52.9458 23.5718V24.9619C52.5861 25.0719 52.2158 25.127 51.835 25.127C50.5485 25.127 49.8926 24.4774 49.8672 23.1782V19.4775H48.8643V18.1318H49.8672V16.4434H51.7017ZM57.0591 25.127C56.0519 25.127 55.231 24.818 54.5962 24.2002C53.9657 23.5824 53.6504 22.7593 53.6504 21.731V21.5532C53.6504 20.8634 53.7837 20.2477 54.0503 19.7061C54.3169 19.1602 54.6935 18.7412 55.1802 18.4492C55.6711 18.153 56.2297 18.0049 56.856 18.0049C57.7954 18.0049 58.5339 18.3011 59.0713 18.8936C59.613 19.486 59.8838 20.326 59.8838 21.4136V22.1626H55.5103C55.5695 22.6112 55.7472 22.9709 56.0435 23.2417C56.3439 23.5125 56.7227 23.6479 57.1797 23.6479C57.8864 23.6479 58.4386 23.3919 58.8364 22.8799L59.7378 23.8892C59.4627 24.2785 59.0903 24.5832 58.6206 24.8032C58.1509 25.019 57.6304 25.127 57.0591 25.127ZM56.8496 19.4902C56.4857 19.4902 56.1895 19.613 55.9609 19.8584C55.7367 20.1038 55.5928 20.4551 55.5293 20.9121H58.0811V20.7661C58.0726 20.3599 57.9626 20.0467 57.751 19.8267C57.5394 19.6024 57.2389 19.4902 56.8496 19.4902Z" fill="black" fill-opacity="0.25"/>
<path d="M18.3857 20.2231H14.7295V24H12.8252V14.7578H18.8428V16.3003H14.7295V18.687H18.3857V20.2231ZM23.5908 24C23.5062 23.835 23.4448 23.6297 23.4067 23.3843C22.9624 23.8794 22.3848 24.127 21.6738 24.127C21.001 24.127 20.4424 23.9323 19.998 23.543C19.5579 23.1536 19.3379 22.6628 19.3379 22.0703C19.3379 21.3424 19.6066 20.7839 20.144 20.3945C20.6857 20.0052 21.4665 19.8084 22.4863 19.8042H23.3306V19.4106C23.3306 19.0933 23.248 18.8394 23.083 18.6489C22.9222 18.4585 22.6662 18.3633 22.3149 18.3633C22.006 18.3633 21.7627 18.4373 21.585 18.5854C21.4115 18.7336 21.3247 18.9367 21.3247 19.1948H19.4902C19.4902 18.797 19.613 18.4289 19.8584 18.0903C20.1038 17.7518 20.4508 17.4873 20.8994 17.2969C21.348 17.1022 21.8516 17.0049 22.4102 17.0049C23.2565 17.0049 23.9272 17.2186 24.4224 17.646C24.9217 18.0692 25.1714 18.6659 25.1714 19.436V22.4131C25.1756 23.0648 25.2666 23.5578 25.4443 23.8921V24H23.5908ZM22.0737 22.7241C22.3446 22.7241 22.5942 22.6649 22.8228 22.5464C23.0513 22.4237 23.2205 22.2607 23.3306 22.0576V20.877H22.645C21.7267 20.877 21.238 21.1943 21.1787 21.8291L21.1724 21.937C21.1724 22.1655 21.2528 22.3538 21.4136 22.502C21.5744 22.6501 21.7944 22.7241 22.0737 22.7241ZM29.0498 21.7593L30.3257 17.1318H32.2427L29.9258 24H28.1738L25.8569 17.1318H27.7739L29.0498 21.7593ZM32.668 20.5024C32.668 19.8211 32.7992 19.2139 33.0615 18.6807C33.3239 18.1475 33.7005 17.7349 34.1914 17.4429C34.6865 17.1509 35.2599 17.0049 35.9116 17.0049C36.8384 17.0049 37.5938 17.2884 38.1777 17.8555C38.766 18.4225 39.0939 19.1927 39.1616 20.166L39.1743 20.6357C39.1743 21.6895 38.8802 22.5358 38.292 23.1748C37.7038 23.8096 36.9146 24.127 35.9243 24.127C34.9341 24.127 34.1427 23.8096 33.5503 23.1748C32.9621 22.54 32.668 21.6768 32.668 20.585V20.5024ZM34.5024 20.6357C34.5024 21.2874 34.6252 21.7868 34.8706 22.1338C35.116 22.4766 35.4673 22.6479 35.9243 22.6479C36.3687 22.6479 36.7157 22.4787 36.9653 22.1401C37.215 21.7974 37.3398 21.2515 37.3398 20.5024C37.3398 19.8634 37.215 19.3683 36.9653 19.0171C36.7157 18.6659 36.3644 18.4902 35.9116 18.4902C35.4631 18.4902 35.116 18.6659 34.8706 19.0171C34.6252 19.3641 34.5024 19.9036 34.5024 20.6357ZM44.1636 18.8521C43.9139 18.8182 43.6938 18.8013 43.5034 18.8013C42.8094 18.8013 42.3545 19.0361 42.1387 19.5059V24H40.3042V17.1318H42.0371L42.0879 17.9507C42.4561 17.3201 42.966 17.0049 43.6177 17.0049C43.8208 17.0049 44.0112 17.0324 44.189 17.0874L44.1636 18.8521ZM46.9883 24H45.1475V17.1318H46.9883V24ZM45.0396 15.3545C45.0396 15.0794 45.1305 14.853 45.3125 14.6753C45.4987 14.4976 45.7505 14.4087 46.0679 14.4087C46.381 14.4087 46.6307 14.4976 46.8169 14.6753C47.0031 14.853 47.0962 15.0794 47.0962 15.3545C47.0962 15.6338 47.001 15.8623 46.8105 16.04C46.6243 16.2178 46.3768 16.3066 46.0679 16.3066C45.759 16.3066 45.5093 16.2178 45.3188 16.04C45.1326 15.8623 45.0396 15.6338 45.0396 15.3545ZM50.7017 15.4434V17.1318H51.876V18.4775H50.7017V21.9053C50.7017 22.1592 50.7503 22.3411 50.8477 22.4512C50.945 22.5612 51.1312 22.6162 51.4062 22.6162C51.6094 22.6162 51.7892 22.6014 51.9458 22.5718V23.9619C51.5861 24.0719 51.2158 24.127 50.835 24.127C49.5485 24.127 48.8926 23.4774 48.8672 22.1782V18.4775H47.8643V17.1318H48.8672V15.4434H50.7017ZM56.0591 24.127C55.0519 24.127 54.231 23.818 53.5962 23.2002C52.9657 22.5824 52.6504 21.7593 52.6504 20.731V20.5532C52.6504 19.8634 52.7837 19.2477 53.0503 18.7061C53.3169 18.1602 53.6935 17.7412 54.1802 17.4492C54.6711 17.153 55.2297 17.0049 55.856 17.0049C56.7954 17.0049 57.5339 17.3011 58.0713 17.8936C58.613 18.486 58.8838 19.326 58.8838 20.4136V21.1626H54.5103C54.5695 21.6112 54.7472 21.9709 55.0435 22.2417C55.3439 22.5125 55.7227 22.6479 56.1797 22.6479C56.8864 22.6479 57.4386 22.3919 57.8364 21.8799L58.7378 22.8892C58.4627 23.2785 58.0903 23.5832 57.6206 23.8032C57.1509 24.019 56.6304 24.127 56.0591 24.127ZM55.8496 18.4902C55.4857 18.4902 55.1895 18.613 54.9609 18.8584C54.7367 19.1038 54.5928 19.4551 54.5293 19.9121H57.0811V19.7661C57.0726 19.3599 56.9626 19.0467 56.751 18.8267C56.5394 18.6024 56.2389 18.4902 55.8496 18.4902Z" fill="white"/>
</g>
<defs>
<clipPath id="clip0">
<rect width="116" height="116" rx="10" fill="white"/>
</clipPath>
</defs>
</svg>
