<svg width="116" height="116" viewBox="0 0 116 116" fill="none" xmlns="http://www.w3.org/2000/svg">
<g clip-path="url(#clip0_2817_1783)">
<rect width="116" height="116" rx="10" fill="#38C860"/>
<path d="M23.3519 124C18.8018 119.404 15.1924 113.947 12.7299 107.942C10.2674 101.937 9 95.5001 9 89C9 82.4999 10.2674 76.0634 12.7299 70.0581C15.1924 64.0528 18.8018 58.5962 23.3519 54M92.6481 54C97.1982 58.5962 100.808 64.0528 103.27 70.0581C105.733 76.0634 107 82.4999 107 89C107 95.5001 105.733 101.937 103.27 107.942C100.808 113.947 97.1982 119.404 92.6481 124M36.8267 110.388C31.2114 104.716 28.0568 97.0221 28.0568 89C28.0568 80.9779 31.2114 73.2843 36.8267 67.6117M79.1733 67.6117C84.7886 73.2843 87.9432 80.9779 87.9432 89C87.9432 97.0221 84.7886 104.716 79.1733 110.388M68.8888 89C68.8888 91.9172 67.7416 94.7149 65.6995 96.7777C63.6575 98.8405 60.8879 99.9994 58 99.9994C55.1121 99.9994 52.3425 98.8405 50.3005 96.7777C48.2584 94.7149 47.1112 91.9172 47.1112 89C47.1112 86.0828 48.2584 83.2851 50.3005 81.2223C52.3425 79.1595 55.1121 78.0006 58 78.0006C60.8879 78.0006 63.6575 79.1595 65.6995 81.2223C67.7416 83.2851 68.8888 86.0828 68.8888 89Z" stroke="#ADFF71" stroke-width="11" stroke-linecap="round" stroke-linejoin="round"/>
<g filter="url(#filter0_d_2817_1783)">
<path d="M24.5449 20.0469H26.2812L28.8379 27.3545L31.3945 20.0469H33.1309L29.5352 30H28.1406L24.5449 20.0469ZM23.6084 20.0469H25.3379L25.6523 27.1699V30H23.6084V20.0469ZM32.3379 20.0469H34.0742V30H32.0234V27.1699L32.3379 20.0469ZM35.4346 26.377V26.2334C35.4346 25.6911 35.512 25.1921 35.667 24.7363C35.8219 24.276 36.0475 23.8773 36.3438 23.54C36.64 23.2028 37.0046 22.9408 37.4375 22.7539C37.8704 22.5625 38.3672 22.4668 38.9277 22.4668C39.4883 22.4668 39.9873 22.5625 40.4248 22.7539C40.8623 22.9408 41.2292 23.2028 41.5254 23.54C41.8262 23.8773 42.054 24.276 42.209 24.7363C42.3639 25.1921 42.4414 25.6911 42.4414 26.2334V26.377C42.4414 26.9147 42.3639 27.4137 42.209 27.874C42.054 28.3298 41.8262 28.7285 41.5254 29.0703C41.2292 29.4076 40.8646 29.6696 40.4316 29.8564C39.9987 30.0433 39.502 30.1367 38.9414 30.1367C38.3809 30.1367 37.8818 30.0433 37.4443 29.8564C37.0114 29.6696 36.6445 29.4076 36.3438 29.0703C36.0475 28.7285 35.8219 28.3298 35.667 27.874C35.512 27.4137 35.4346 26.9147 35.4346 26.377ZM37.4033 26.2334V26.377C37.4033 26.6868 37.4307 26.9762 37.4854 27.2451C37.54 27.514 37.6266 27.751 37.7451 27.9561C37.8682 28.1566 38.0277 28.3138 38.2236 28.4277C38.4196 28.5417 38.6589 28.5986 38.9414 28.5986C39.2148 28.5986 39.4495 28.5417 39.6455 28.4277C39.8415 28.3138 39.9987 28.1566 40.1172 27.9561C40.2357 27.751 40.3223 27.514 40.377 27.2451C40.4362 26.9762 40.4658 26.6868 40.4658 26.377V26.2334C40.4658 25.9326 40.4362 25.6501 40.377 25.3857C40.3223 25.1169 40.2334 24.8799 40.1104 24.6748C39.9919 24.4652 39.8346 24.3011 39.6387 24.1826C39.4427 24.0641 39.2057 24.0049 38.9277 24.0049C38.6497 24.0049 38.4128 24.0641 38.2168 24.1826C38.0254 24.3011 37.8682 24.4652 37.7451 24.6748C37.6266 24.8799 37.54 25.1169 37.4854 25.3857C37.4307 25.6501 37.4033 25.9326 37.4033 26.2334ZM45.2441 26.3086H47.2402L45.1826 30H43.1934L45.2441 26.3086ZM46.5703 22.6035H49.8174V30H47.8486V24.1279H46.5703C46.3014 24.1279 46.0781 24.1781 45.9004 24.2783C45.7227 24.374 45.5905 24.4993 45.5039 24.6543C45.4219 24.8047 45.3809 24.9596 45.3809 25.1191C45.3809 25.2741 45.4219 25.4245 45.5039 25.5703C45.5859 25.7161 45.7135 25.8369 45.8867 25.9326C46.0599 26.0283 46.2764 26.0762 46.5361 26.0762H48.5801V27.416H46.5361C46.0485 27.416 45.611 27.3568 45.2236 27.2383C44.8408 27.1198 44.5127 26.9557 44.2393 26.7461C43.9704 26.5319 43.763 26.2835 43.6172 26.001C43.4759 25.7139 43.4053 25.3994 43.4053 25.0576C43.4053 24.7021 43.4782 24.3763 43.624 24.0801C43.7699 23.7839 43.9795 23.5241 44.2529 23.3008C44.5264 23.0775 44.8568 22.9066 45.2441 22.7881C45.6361 22.665 46.0781 22.6035 46.5703 22.6035ZM58.6562 26.9102H56.3389L56.3252 25.6182H58.2393C58.4945 25.6182 58.7018 25.5931 58.8613 25.543C59.0208 25.4883 59.137 25.4085 59.21 25.3037C59.2874 25.1943 59.3262 25.0622 59.3262 24.9072C59.3262 24.7705 59.3011 24.6543 59.251 24.5586C59.2054 24.4583 59.1348 24.3763 59.0391 24.3125C58.9434 24.2487 58.8226 24.2031 58.6768 24.1758C58.5355 24.1439 58.3691 24.1279 58.1777 24.1279H57.0703V30H55.1016V22.6035H58.1777C58.6608 22.6035 59.0938 22.6468 59.4766 22.7334C59.8594 22.8154 60.1852 22.9408 60.4541 23.1094C60.7275 23.278 60.9349 23.4922 61.0762 23.752C61.222 24.0072 61.2949 24.3102 61.2949 24.6611C61.2949 24.889 61.2425 25.1032 61.1377 25.3037C61.0374 25.5042 60.887 25.682 60.6865 25.8369C60.486 25.9919 60.2376 26.1195 59.9414 26.2197C59.6497 26.3154 59.3125 26.3747 58.9297 26.3975L58.6562 26.9102ZM58.6562 30H55.8535L56.5303 28.4756H58.6562C58.8978 28.4756 59.096 28.446 59.251 28.3867C59.4059 28.3275 59.5199 28.2409 59.5928 28.127C59.6702 28.0085 59.709 27.8672 59.709 27.7031C59.709 27.5436 59.6748 27.4046 59.6064 27.2861C59.5381 27.1676 59.4264 27.0765 59.2715 27.0127C59.1211 26.9443 58.916 26.9102 58.6562 26.9102H56.8174L56.8311 25.6182H58.9229L59.4014 26.1377C59.9209 26.1696 60.3493 26.2676 60.6865 26.4316C61.0238 26.5957 61.2721 26.8053 61.4316 27.0605C61.5957 27.3112 61.6777 27.5869 61.6777 27.8877C61.6777 28.2386 61.6117 28.5462 61.4795 28.8105C61.3473 29.0749 61.1514 29.2959 60.8916 29.4736C60.6364 29.6468 60.3219 29.779 59.9482 29.8701C59.5745 29.9567 59.1439 30 58.6562 30ZM62.5732 26.377V26.2334C62.5732 25.6911 62.6507 25.1921 62.8057 24.7363C62.9606 24.276 63.1862 23.8773 63.4824 23.54C63.7786 23.2028 64.1432 22.9408 64.5762 22.7539C65.0091 22.5625 65.5059 22.4668 66.0664 22.4668C66.627 22.4668 67.126 22.5625 67.5635 22.7539C68.001 22.9408 68.3678 23.2028 68.6641 23.54C68.9648 23.8773 69.1927 24.276 69.3477 24.7363C69.5026 25.1921 69.5801 25.6911 69.5801 26.2334V26.377C69.5801 26.9147 69.5026 27.4137 69.3477 27.874C69.1927 28.3298 68.9648 28.7285 68.6641 29.0703C68.3678 29.4076 68.0033 29.6696 67.5703 29.8564C67.1374 30.0433 66.6406 30.1367 66.0801 30.1367C65.5195 30.1367 65.0205 30.0433 64.583 29.8564C64.1501 29.6696 63.7832 29.4076 63.4824 29.0703C63.1862 28.7285 62.9606 28.3298 62.8057 27.874C62.6507 27.4137 62.5732 26.9147 62.5732 26.377ZM64.542 26.2334V26.377C64.542 26.6868 64.5693 26.9762 64.624 27.2451C64.6787 27.514 64.7653 27.751 64.8838 27.9561C65.0068 28.1566 65.1663 28.3138 65.3623 28.4277C65.5583 28.5417 65.7975 28.5986 66.0801 28.5986C66.3535 28.5986 66.5882 28.5417 66.7842 28.4277C66.9801 28.3138 67.1374 28.1566 67.2559 27.9561C67.3743 27.751 67.4609 27.514 67.5156 27.2451C67.5749 26.9762 67.6045 26.6868 67.6045 26.377V26.2334C67.6045 25.9326 67.5749 25.6501 67.5156 25.3857C67.4609 25.1169 67.3721 24.8799 67.249 24.6748C67.1305 24.4652 66.9733 24.3011 66.7773 24.1826C66.5814 24.0641 66.3444 24.0049 66.0664 24.0049C65.7884 24.0049 65.5514 24.0641 65.3555 24.1826C65.1641 24.3011 65.0068 24.4652 64.8838 24.6748C64.7653 24.8799 64.6787 25.1169 64.624 25.3857C64.5693 25.6501 64.542 25.9326 64.542 26.2334ZM75.6572 22.6035V24.1484H72.0205V22.6035H75.6572ZM77.0996 22.6035V30H75.1309V22.6035H77.0996ZM71.5283 22.6035H73.4629L73.2646 26.3359C73.2373 26.8691 73.1803 27.3385 73.0938 27.7441C73.0072 28.1497 72.891 28.4961 72.7451 28.7832C72.6038 29.0703 72.4329 29.305 72.2324 29.4873C72.0365 29.665 71.8063 29.7949 71.542 29.877C71.2822 29.959 70.9951 30 70.6807 30H70.0791L70.0586 28.4482L70.3115 28.4209C70.4574 28.4072 70.585 28.3662 70.6943 28.2979C70.8083 28.2249 70.904 28.1224 70.9814 27.9902C71.0635 27.8535 71.1318 27.6826 71.1865 27.4775C71.2412 27.2679 71.2845 27.0218 71.3164 26.7393C71.3529 26.4567 71.3779 26.1309 71.3916 25.7617L71.5283 22.6035ZM83.6895 25.5908V27.1221H79.9297V25.5908H83.6895ZM80.5859 22.6035V30H78.6172V22.6035H80.5859ZM85.0225 22.6035V30H83.0469V22.6035H85.0225ZM90.5459 28.332V25.0371C90.5459 24.8001 90.5072 24.5973 90.4297 24.4287C90.3522 24.2555 90.2314 24.1211 90.0674 24.0254C89.9079 23.9297 89.7005 23.8818 89.4453 23.8818C89.2266 23.8818 89.0374 23.9206 88.8779 23.998C88.7184 24.071 88.5954 24.1781 88.5088 24.3193C88.4222 24.4561 88.3789 24.6178 88.3789 24.8047H86.4102C86.4102 24.4902 86.4831 24.1917 86.6289 23.9092C86.7747 23.6266 86.9867 23.3783 87.2646 23.1641C87.5426 22.9453 87.873 22.7744 88.2559 22.6514C88.6432 22.5283 89.0762 22.4668 89.5547 22.4668C90.1289 22.4668 90.6393 22.5625 91.0859 22.7539C91.5326 22.9453 91.8835 23.2324 92.1387 23.6152C92.3984 23.998 92.5283 24.4766 92.5283 25.0508V28.2158C92.5283 28.6214 92.5534 28.9541 92.6035 29.2139C92.6536 29.4691 92.7266 29.6924 92.8223 29.8838V30H90.833C90.7373 29.7995 90.6644 29.5488 90.6143 29.248C90.5687 28.9427 90.5459 28.6374 90.5459 28.332ZM90.8057 25.4951L90.8193 26.6094H89.7188C89.459 26.6094 89.2334 26.639 89.042 26.6982C88.8506 26.7575 88.6934 26.8418 88.5703 26.9512C88.4473 27.056 88.3561 27.179 88.2969 27.3203C88.2422 27.4616 88.2148 27.6165 88.2148 27.7852C88.2148 27.9538 88.2536 28.1064 88.3311 28.2432C88.4085 28.3753 88.5202 28.4801 88.666 28.5576C88.8118 28.6305 88.9827 28.667 89.1787 28.667C89.4749 28.667 89.7324 28.6077 89.9512 28.4893C90.1699 28.3708 90.3385 28.2249 90.457 28.0518C90.5801 27.8786 90.6439 27.7145 90.6484 27.5596L91.168 28.3936C91.0951 28.5804 90.9948 28.7741 90.8672 28.9746C90.7441 29.1751 90.5869 29.3643 90.3955 29.542C90.2041 29.7152 89.974 29.8587 89.7051 29.9727C89.4362 30.082 89.1172 30.1367 88.748 30.1367C88.2786 30.1367 87.8525 30.0433 87.4697 29.8564C87.0915 29.665 86.7907 29.403 86.5674 29.0703C86.3486 28.7331 86.2393 28.3503 86.2393 27.9219C86.2393 27.5345 86.3122 27.1904 86.458 26.8896C86.6038 26.5889 86.818 26.3359 87.1006 26.1309C87.3877 25.9212 87.7454 25.764 88.1738 25.6592C88.6022 25.5498 89.099 25.4951 89.6641 25.4951H90.8057Z" fill="white"/>
</g>
</g>
<defs>
<filter id="filter0_d_2817_1783" x="23.6094" y="20.0469" width="70.2129" height="11.0898" filterUnits="userSpaceOnUse" color-interpolation-filters="sRGB">
<feFlood flood-opacity="0" result="BackgroundImageFix"/>
<feColorMatrix in="SourceAlpha" type="matrix" values="0 0 0 0 0 0 0 0 0 0 0 0 0 0 0 0 0 0 127 0" result="hardAlpha"/>
<feOffset dx="1" dy="1"/>
<feComposite in2="hardAlpha" operator="out"/>
<feColorMatrix type="matrix" values="0 0 0 0 0 0 0 0 0 0 0 0 0 0 0 0 0 0 0.25 0"/>
<feBlend mode="normal" in2="BackgroundImageFix" result="effect1_dropShadow_2817_1783"/>
<feBlend mode="normal" in="SourceGraphic" in2="effect1_dropShadow_2817_1783" result="shape"/>
</filter>
<clipPath id="clip0_2817_1783">
<rect width="116" height="116" rx="10" fill="white"/>
</clipPath>
</defs>
</svg>
