<svg width="116" height="116" viewBox="0 0 116 116" fill="none" xmlns="http://www.w3.org/2000/svg">
<g clip-path="url(#clip0_2817_1792)">
<rect width="116" height="116" rx="10" fill="#38C860"/>
<path d="M23.3519 124C18.8018 119.404 15.1924 113.947 12.7299 107.942C10.2674 101.937 9 95.5001 9 89C9 82.4999 10.2674 76.0634 12.7299 70.0581C15.1924 64.0528 18.8018 58.5962 23.3519 54M92.6481 54C97.1982 58.5962 100.808 64.0528 103.27 70.0581C105.733 76.0634 107 82.4999 107 89C107 95.5001 105.733 101.937 103.27 107.942C100.808 113.947 97.1982 119.404 92.6481 124M36.8267 110.388C31.2114 104.716 28.0568 97.0221 28.0568 89C28.0568 80.9779 31.2114 73.2843 36.8267 67.6117M79.1733 67.6117C84.7886 73.2843 87.9432 80.9779 87.9432 89C87.9432 97.0221 84.7886 104.716 79.1733 110.388M68.8888 89C68.8888 91.9172 67.7416 94.7149 65.6995 96.7777C63.6575 98.8405 60.8879 99.9994 58 99.9994C55.1121 99.9994 52.3425 98.8405 50.3005 96.7777C48.2584 94.7149 47.1112 91.9172 47.1112 89C47.1112 86.0828 48.2584 83.2851 50.3005 81.2223C52.3425 79.1595 55.1121 78.0006 58 78.0006C60.8879 78.0006 63.6575 79.1595 65.6995 81.2223C67.7416 83.2851 68.8888 86.0828 68.8888 89Z" stroke="#ADFF71" stroke-width="11" stroke-linecap="round" stroke-linejoin="round"/>
<g filter="url(#filter0_d_2817_1792)">
<path d="M32.3105 20.0469H34.0469L36.6035 27.3545L39.1602 20.0469H40.8965L37.3008 30H35.9062L32.3105 20.0469ZM31.374 20.0469H33.1035L33.418 27.1699V30H31.374V20.0469ZM40.1035 20.0469H41.8398V30H39.7891V27.1699L40.1035 20.0469ZM45.709 29.166L47.6709 22.6035H49.7832L46.8096 31.1143C46.7458 31.3011 46.6592 31.5016 46.5498 31.7158C46.445 31.93 46.3014 32.1328 46.1191 32.3242C45.9414 32.5202 45.7158 32.6797 45.4424 32.8027C45.1735 32.9258 44.8431 32.9873 44.4512 32.9873C44.2643 32.9873 44.1117 32.9759 43.9932 32.9531C43.8747 32.9303 43.7334 32.8984 43.5693 32.8574V31.415C43.6195 31.415 43.6719 31.415 43.7266 31.415C43.7812 31.4196 43.8337 31.4219 43.8838 31.4219C44.1436 31.4219 44.3555 31.3923 44.5195 31.333C44.6836 31.2738 44.8158 31.1826 44.916 31.0596C45.0163 30.9411 45.096 30.7861 45.1553 30.5947L45.709 29.166ZM44.8887 22.6035L46.4951 27.9629L46.7754 30.0479L45.4355 30.1914L42.7764 22.6035H44.8887ZM56.168 28.0859L57.7061 22.6035H58.957L58.5537 24.7568L57.0156 30H55.9697L56.168 28.0859ZM55.3887 22.6035L56.4893 28.0791L56.5918 30H55.3613L53.4883 22.6035H55.3887ZM60.3652 27.9902L61.4385 22.6035H63.3457L61.4727 30H60.249L60.3652 27.9902ZM59.1279 22.6035L60.6592 28.0449L60.8711 30H59.8184L58.2803 24.7637L57.8906 22.6035H59.1279ZM68.3291 28.332V25.0371C68.3291 24.8001 68.2904 24.5973 68.2129 24.4287C68.1354 24.2555 68.0146 24.1211 67.8506 24.0254C67.6911 23.9297 67.4837 23.8818 67.2285 23.8818C67.0098 23.8818 66.8206 23.9206 66.6611 23.998C66.5016 24.071 66.3786 24.1781 66.292 24.3193C66.2054 24.4561 66.1621 24.6178 66.1621 24.8047H64.1934C64.1934 24.4902 64.2663 24.1917 64.4121 23.9092C64.5579 23.6266 64.7699 23.3783 65.0479 23.1641C65.3258 22.9453 65.6562 22.7744 66.0391 22.6514C66.4264 22.5283 66.8594 22.4668 67.3379 22.4668C67.9121 22.4668 68.4225 22.5625 68.8691 22.7539C69.3158 22.9453 69.6667 23.2324 69.9219 23.6152C70.1816 23.998 70.3115 24.4766 70.3115 25.0508V28.2158C70.3115 28.6214 70.3366 28.9541 70.3867 29.2139C70.4368 29.4691 70.5098 29.6924 70.6055 29.8838V30H68.6162C68.5205 29.7995 68.4476 29.5488 68.3975 29.248C68.3519 28.9427 68.3291 28.6374 68.3291 28.332ZM68.5889 25.4951L68.6025 26.6094H67.502C67.2422 26.6094 67.0166 26.639 66.8252 26.6982C66.6338 26.7575 66.4766 26.8418 66.3535 26.9512C66.2305 27.056 66.1393 27.179 66.0801 27.3203C66.0254 27.4616 65.998 27.6165 65.998 27.7852C65.998 27.9538 66.0368 28.1064 66.1143 28.2432C66.1917 28.3753 66.3034 28.4801 66.4492 28.5576C66.5951 28.6305 66.766 28.667 66.9619 28.667C67.2581 28.667 67.5156 28.6077 67.7344 28.4893C67.9531 28.3708 68.1217 28.2249 68.2402 28.0518C68.3633 27.8786 68.4271 27.7145 68.4316 27.5596L68.9512 28.3936C68.8783 28.5804 68.778 28.7741 68.6504 28.9746C68.5273 29.1751 68.3701 29.3643 68.1787 29.542C67.9873 29.7152 67.7572 29.8587 67.4883 29.9727C67.2194 30.082 66.9004 30.1367 66.5312 30.1367C66.0618 30.1367 65.6357 30.0433 65.2529 29.8564C64.8747 29.665 64.5739 29.403 64.3506 29.0703C64.1318 28.7331 64.0225 28.3503 64.0225 27.9219C64.0225 27.5345 64.0954 27.1904 64.2412 26.8896C64.387 26.5889 64.6012 26.3359 64.8838 26.1309C65.1709 25.9212 65.5286 25.764 65.957 25.6592C66.3854 25.5498 66.8822 25.4951 67.4473 25.4951H68.5889ZM74.2354 28.5645L75.876 22.6035H77.9336L75.4385 30H74.1943L74.2354 28.5645ZM73.1074 22.6035L74.7549 28.5713L74.7891 30H73.5381L71.043 22.6035H73.1074ZM82.124 30.1367C81.5498 30.1367 81.0348 30.0456 80.5791 29.8633C80.1234 29.6764 79.736 29.4189 79.417 29.0908C79.1025 28.7627 78.861 28.3822 78.6924 27.9492C78.5238 27.5117 78.4395 27.0469 78.4395 26.5547V26.2812C78.4395 25.7207 78.5192 25.208 78.6787 24.7432C78.8382 24.2783 79.0661 23.875 79.3623 23.5332C79.6631 23.1914 80.0277 22.9294 80.4561 22.7471C80.8844 22.5602 81.3675 22.4668 81.9053 22.4668C82.4294 22.4668 82.8942 22.5534 83.2998 22.7266C83.7054 22.8997 84.0449 23.1458 84.3184 23.4648C84.5964 23.7839 84.806 24.1667 84.9473 24.6133C85.0885 25.0553 85.1592 25.5475 85.1592 26.0898V26.9102H79.2803V25.5977H83.2246V25.4473C83.2246 25.1738 83.1745 24.93 83.0742 24.7158C82.9785 24.4971 82.8327 24.3239 82.6367 24.1963C82.4408 24.0687 82.1901 24.0049 81.8848 24.0049C81.625 24.0049 81.4017 24.0618 81.2148 24.1758C81.028 24.2897 80.8753 24.4492 80.7568 24.6543C80.6429 24.8594 80.5563 25.1009 80.4971 25.3789C80.4424 25.6523 80.415 25.9531 80.415 26.2812V26.5547C80.415 26.8509 80.4561 27.1243 80.5381 27.375C80.6247 27.6257 80.7454 27.8421 80.9004 28.0244C81.0599 28.2067 81.2513 28.348 81.4746 28.4482C81.7025 28.5485 81.96 28.5986 82.2471 28.5986C82.6025 28.5986 82.9329 28.5303 83.2383 28.3936C83.5482 28.2523 83.8148 28.0404 84.0381 27.7578L84.9951 28.7969C84.8402 29.0202 84.6283 29.2344 84.3594 29.4395C84.0951 29.6445 83.776 29.8132 83.4023 29.9453C83.0286 30.0729 82.6025 30.1367 82.124 30.1367Z" fill="white"/>
</g>
</g>
<defs>
<filter id="filter0_d_2817_1792" x="31.375" y="20.0469" width="54.7852" height="13.9404" filterUnits="userSpaceOnUse" color-interpolation-filters="sRGB">
<feFlood flood-opacity="0" result="BackgroundImageFix"/>
<feColorMatrix in="SourceAlpha" type="matrix" values="0 0 0 0 0 0 0 0 0 0 0 0 0 0 0 0 0 0 127 0" result="hardAlpha"/>
<feOffset dx="1" dy="1"/>
<feComposite in2="hardAlpha" operator="out"/>
<feColorMatrix type="matrix" values="0 0 0 0 0 0 0 0 0 0 0 0 0 0 0 0 0 0 0.25 0"/>
<feBlend mode="normal" in2="BackgroundImageFix" result="effect1_dropShadow_2817_1792"/>
<feBlend mode="normal" in="SourceGraphic" in2="effect1_dropShadow_2817_1792" result="shape"/>
</filter>
<clipPath id="clip0_2817_1792">
<rect width="116" height="116" rx="10" fill="white"/>
</clipPath>
</defs>
</svg>
