<svg width="116" height="116" viewBox="0 0 116 116" fill="none" xmlns="http://www.w3.org/2000/svg">
<g clip-path="url(#clip0_2817_1783)">
<rect width="116" height="116" rx="10" fill="#38C860"/>
<path d="M23.3519 124C18.8018 119.404 15.1924 113.947 12.7299 107.942C10.2674 101.937 9 95.5001 9 89C9 82.4999 10.2674 76.0634 12.7299 70.0581C15.1924 64.0528 18.8018 58.5962 23.3519 54M92.6481 54C97.1982 58.5962 100.808 64.0528 103.27 70.0581C105.733 76.0634 107 82.4999 107 89C107 95.5001 105.733 101.937 103.27 107.942C100.808 113.947 97.1982 119.404 92.6481 124M36.8267 110.388C31.2114 104.716 28.0568 97.0221 28.0568 89C28.0568 80.9779 31.2114 73.2843 36.8267 67.6117M79.1733 67.6117C84.7886 73.2843 87.9432 80.9779 87.9432 89C87.9432 97.0221 84.7886 104.716 79.1733 110.388M68.8888 89C68.8888 91.9172 67.7416 94.7149 65.6995 96.7777C63.6575 98.8405 60.8879 99.9994 58 99.9994C55.1121 99.9994 52.3425 98.8405 50.3005 96.7777C48.2584 94.7149 47.1112 91.9172 47.1112 89C47.1112 86.0828 48.2584 83.2851 50.3005 81.2223C52.3425 79.1595 55.1121 78.0006 58 78.0006C60.8879 78.0006 63.6575 79.1595 65.6995 81.2223C67.7416 83.2851 68.8888 86.0828 68.8888 89Z" stroke="#ADFF71" stroke-width="11" stroke-linecap="round" stroke-linejoin="round"/>
<path d="M25.5449 21.0469H27.2812L29.8379 28.3545L32.3945 21.0469H34.1309L30.5352 31H29.1406L25.5449 21.0469ZM24.6084 21.0469H26.3379L26.6523 28.1699V31H24.6084V21.0469ZM33.3379 21.0469H35.0742V31H33.0234V28.1699L33.3379 21.0469ZM36.4346 27.377V27.2334C36.4346 26.6911 36.512 26.1921 36.667 25.7363C36.8219 25.276 37.0475 24.8773 37.3438 24.54C37.64 24.2028 38.0046 23.9408 38.4375 23.7539C38.8704 23.5625 39.3672 23.4668 39.9277 23.4668C40.4883 23.4668 40.9873 23.5625 41.4248 23.7539C41.8623 23.9408 42.2292 24.2028 42.5254 24.54C42.8262 24.8773 43.054 25.276 43.209 25.7363C43.3639 26.1921 43.4414 26.6911 43.4414 27.2334V27.377C43.4414 27.9147 43.3639 28.4137 43.209 28.874C43.054 29.3298 42.8262 29.7285 42.5254 30.0703C42.2292 30.4076 41.8646 30.6696 41.4316 30.8564C40.9987 31.0433 40.502 31.1367 39.9414 31.1367C39.3809 31.1367 38.8818 31.0433 38.4443 30.8564C38.0114 30.6696 37.6445 30.4076 37.3438 30.0703C37.0475 29.7285 36.8219 29.3298 36.667 28.874C36.512 28.4137 36.4346 27.9147 36.4346 27.377ZM38.4033 27.2334V27.377C38.4033 27.6868 38.4307 27.9762 38.4854 28.2451C38.54 28.514 38.6266 28.751 38.7451 28.9561C38.8682 29.1566 39.0277 29.3138 39.2236 29.4277C39.4196 29.5417 39.6589 29.5986 39.9414 29.5986C40.2148 29.5986 40.4495 29.5417 40.6455 29.4277C40.8415 29.3138 40.9987 29.1566 41.1172 28.9561C41.2357 28.751 41.3223 28.514 41.377 28.2451C41.4362 27.9762 41.4658 27.6868 41.4658 27.377V27.2334C41.4658 26.9326 41.4362 26.6501 41.377 26.3857C41.3223 26.1169 41.2334 25.8799 41.1104 25.6748C40.9919 25.4652 40.8346 25.3011 40.6387 25.1826C40.4427 25.0641 40.2057 25.0049 39.9277 25.0049C39.6497 25.0049 39.4128 25.0641 39.2168 25.1826C39.0254 25.3011 38.8682 25.4652 38.7451 25.6748C38.6266 25.8799 38.54 26.1169 38.4854 26.3857C38.4307 26.6501 38.4033 26.9326 38.4033 27.2334ZM46.2441 27.3086H48.2402L46.1826 31H44.1934L46.2441 27.3086ZM47.5703 23.6035H50.8174V31H48.8486V25.1279H47.5703C47.3014 25.1279 47.0781 25.1781 46.9004 25.2783C46.7227 25.374 46.5905 25.4993 46.5039 25.6543C46.4219 25.8047 46.3809 25.9596 46.3809 26.1191C46.3809 26.2741 46.4219 26.4245 46.5039 26.5703C46.5859 26.7161 46.7135 26.8369 46.8867 26.9326C47.0599 27.0283 47.2764 27.0762 47.5361 27.0762H49.5801V28.416H47.5361C47.0485 28.416 46.611 28.3568 46.2236 28.2383C45.8408 28.1198 45.5127 27.9557 45.2393 27.7461C44.9704 27.5319 44.763 27.2835 44.6172 27.001C44.4759 26.7139 44.4053 26.3994 44.4053 26.0576C44.4053 25.7021 44.4782 25.3763 44.624 25.0801C44.7699 24.7839 44.9795 24.5241 45.2529 24.3008C45.5264 24.0775 45.8568 23.9066 46.2441 23.7881C46.6361 23.665 47.0781 23.6035 47.5703 23.6035ZM59.6562 27.9102H57.3389L57.3252 26.6182H59.2393C59.4945 26.6182 59.7018 26.5931 59.8613 26.543C60.0208 26.4883 60.137 26.4085 60.21 26.3037C60.2874 26.1943 60.3262 26.0622 60.3262 25.9072C60.3262 25.7705 60.3011 25.6543 60.251 25.5586C60.2054 25.4583 60.1348 25.3763 60.0391 25.3125C59.9434 25.2487 59.8226 25.2031 59.6768 25.1758C59.5355 25.1439 59.3691 25.1279 59.1777 25.1279H58.0703V31H56.1016V23.6035H59.1777C59.6608 23.6035 60.0938 23.6468 60.4766 23.7334C60.8594 23.8154 61.1852 23.9408 61.4541 24.1094C61.7275 24.278 61.9349 24.4922 62.0762 24.752C62.222 25.0072 62.2949 25.3102 62.2949 25.6611C62.2949 25.889 62.2425 26.1032 62.1377 26.3037C62.0374 26.5042 61.887 26.682 61.6865 26.8369C61.486 26.9919 61.2376 27.1195 60.9414 27.2197C60.6497 27.3154 60.3125 27.3747 59.9297 27.3975L59.6562 27.9102ZM59.6562 31H56.8535L57.5303 29.4756H59.6562C59.8978 29.4756 60.096 29.446 60.251 29.3867C60.4059 29.3275 60.5199 29.2409 60.5928 29.127C60.6702 29.0085 60.709 28.8672 60.709 28.7031C60.709 28.5436 60.6748 28.4046 60.6064 28.2861C60.5381 28.1676 60.4264 28.0765 60.2715 28.0127C60.1211 27.9443 59.916 27.9102 59.6562 27.9102H57.8174L57.8311 26.6182H59.9229L60.4014 27.1377C60.9209 27.1696 61.3493 27.2676 61.6865 27.4316C62.0238 27.5957 62.2721 27.8053 62.4316 28.0605C62.5957 28.3112 62.6777 28.5869 62.6777 28.8877C62.6777 29.2386 62.6117 29.5462 62.4795 29.8105C62.3473 30.0749 62.1514 30.2959 61.8916 30.4736C61.6364 30.6468 61.3219 30.779 60.9482 30.8701C60.5745 30.9567 60.1439 31 59.6562 31ZM63.5732 27.377V27.2334C63.5732 26.6911 63.6507 26.1921 63.8057 25.7363C63.9606 25.276 64.1862 24.8773 64.4824 24.54C64.7786 24.2028 65.1432 23.9408 65.5762 23.7539C66.0091 23.5625 66.5059 23.4668 67.0664 23.4668C67.627 23.4668 68.126 23.5625 68.5635 23.7539C69.001 23.9408 69.3678 24.2028 69.6641 24.54C69.9648 24.8773 70.1927 25.276 70.3477 25.7363C70.5026 26.1921 70.5801 26.6911 70.5801 27.2334V27.377C70.5801 27.9147 70.5026 28.4137 70.3477 28.874C70.1927 29.3298 69.9648 29.7285 69.6641 30.0703C69.3678 30.4076 69.0033 30.6696 68.5703 30.8564C68.1374 31.0433 67.6406 31.1367 67.0801 31.1367C66.5195 31.1367 66.0205 31.0433 65.583 30.8564C65.1501 30.6696 64.7832 30.4076 64.4824 30.0703C64.1862 29.7285 63.9606 29.3298 63.8057 28.874C63.6507 28.4137 63.5732 27.9147 63.5732 27.377ZM65.542 27.2334V27.377C65.542 27.6868 65.5693 27.9762 65.624 28.2451C65.6787 28.514 65.7653 28.751 65.8838 28.9561C66.0068 29.1566 66.1663 29.3138 66.3623 29.4277C66.5583 29.5417 66.7975 29.5986 67.0801 29.5986C67.3535 29.5986 67.5882 29.5417 67.7842 29.4277C67.9801 29.3138 68.1374 29.1566 68.2559 28.9561C68.3743 28.751 68.4609 28.514 68.5156 28.2451C68.5749 27.9762 68.6045 27.6868 68.6045 27.377V27.2334C68.6045 26.9326 68.5749 26.6501 68.5156 26.3857C68.4609 26.1169 68.3721 25.8799 68.249 25.6748C68.1305 25.4652 67.9733 25.3011 67.7773 25.1826C67.5814 25.0641 67.3444 25.0049 67.0664 25.0049C66.7884 25.0049 66.5514 25.0641 66.3555 25.1826C66.1641 25.3011 66.0068 25.4652 65.8838 25.6748C65.7653 25.8799 65.6787 26.1169 65.624 26.3857C65.5693 26.6501 65.542 26.9326 65.542 27.2334ZM76.6572 23.6035V25.1484H73.0205V23.6035H76.6572ZM78.0996 23.6035V31H76.1309V23.6035H78.0996ZM72.5283 23.6035H74.4629L74.2646 27.3359C74.2373 27.8691 74.1803 28.3385 74.0938 28.7441C74.0072 29.1497 73.891 29.4961 73.7451 29.7832C73.6038 30.0703 73.4329 30.305 73.2324 30.4873C73.0365 30.665 72.8063 30.7949 72.542 30.877C72.2822 30.959 71.9951 31 71.6807 31H71.0791L71.0586 29.4482L71.3115 29.4209C71.4574 29.4072 71.585 29.3662 71.6943 29.2979C71.8083 29.2249 71.904 29.1224 71.9814 28.9902C72.0635 28.8535 72.1318 28.6826 72.1865 28.4775C72.2412 28.2679 72.2845 28.0218 72.3164 27.7393C72.3529 27.4567 72.3779 27.1309 72.3916 26.7617L72.5283 23.6035ZM84.6895 26.5908V28.1221H80.9297V26.5908H84.6895ZM81.5859 23.6035V31H79.6172V23.6035H81.5859ZM86.0225 23.6035V31H84.0469V23.6035H86.0225ZM91.5459 29.332V26.0371C91.5459 25.8001 91.5072 25.5973 91.4297 25.4287C91.3522 25.2555 91.2314 25.1211 91.0674 25.0254C90.9079 24.9297 90.7005 24.8818 90.4453 24.8818C90.2266 24.8818 90.0374 24.9206 89.8779 24.998C89.7184 25.071 89.5954 25.1781 89.5088 25.3193C89.4222 25.4561 89.3789 25.6178 89.3789 25.8047H87.4102C87.4102 25.4902 87.4831 25.1917 87.6289 24.9092C87.7747 24.6266 87.9867 24.3783 88.2646 24.1641C88.5426 23.9453 88.873 23.7744 89.2559 23.6514C89.6432 23.5283 90.0762 23.4668 90.5547 23.4668C91.1289 23.4668 91.6393 23.5625 92.0859 23.7539C92.5326 23.9453 92.8835 24.2324 93.1387 24.6152C93.3984 24.998 93.5283 25.4766 93.5283 26.0508V29.2158C93.5283 29.6214 93.5534 29.9541 93.6035 30.2139C93.6536 30.4691 93.7266 30.6924 93.8223 30.8838V31H91.833C91.7373 30.7995 91.6644 30.5488 91.6143 30.248C91.5687 29.9427 91.5459 29.6374 91.5459 29.332ZM91.8057 26.4951L91.8193 27.6094H90.7188C90.459 27.6094 90.2334 27.639 90.042 27.6982C89.8506 27.7575 89.6934 27.8418 89.5703 27.9512C89.4473 28.056 89.3561 28.179 89.2969 28.3203C89.2422 28.4616 89.2148 28.6165 89.2148 28.7852C89.2148 28.9538 89.2536 29.1064 89.3311 29.2432C89.4085 29.3753 89.5202 29.4801 89.666 29.5576C89.8118 29.6305 89.9827 29.667 90.1787 29.667C90.4749 29.667 90.7324 29.6077 90.9512 29.4893C91.1699 29.3708 91.3385 29.2249 91.457 29.0518C91.5801 28.8786 91.6439 28.7145 91.6484 28.5596L92.168 29.3936C92.0951 29.5804 91.9948 29.7741 91.8672 29.9746C91.7441 30.1751 91.5869 30.3643 91.3955 30.542C91.2041 30.7152 90.974 30.8587 90.7051 30.9727C90.4362 31.082 90.1172 31.1367 89.748 31.1367C89.2786 31.1367 88.8525 31.0433 88.4697 30.8564C88.0915 30.665 87.7907 30.403 87.5674 30.0703C87.3486 29.7331 87.2393 29.3503 87.2393 28.9219C87.2393 28.5345 87.3122 28.1904 87.458 27.8896C87.6038 27.5889 87.818 27.3359 88.1006 27.1309C88.3877 26.9212 88.7454 26.764 89.1738 26.6592C89.6022 26.5498 90.099 26.4951 90.6641 26.4951H91.8057Z" fill="black" fill-opacity="0.25"/>
<path d="M24.5449 20.0469H26.2812L28.8379 27.3545L31.3945 20.0469H33.1309L29.5352 30H28.1406L24.5449 20.0469ZM23.6084 20.0469H25.3379L25.6523 27.1699V30H23.6084V20.0469ZM32.3379 20.0469H34.0742V30H32.0234V27.1699L32.3379 20.0469ZM35.4346 26.377V26.2334C35.4346 25.6911 35.512 25.1921 35.667 24.7363C35.8219 24.276 36.0475 23.8773 36.3438 23.54C36.64 23.2028 37.0046 22.9408 37.4375 22.7539C37.8704 22.5625 38.3672 22.4668 38.9277 22.4668C39.4883 22.4668 39.9873 22.5625 40.4248 22.7539C40.8623 22.9408 41.2292 23.2028 41.5254 23.54C41.8262 23.8773 42.054 24.276 42.209 24.7363C42.3639 25.1921 42.4414 25.6911 42.4414 26.2334V26.377C42.4414 26.9147 42.3639 27.4137 42.209 27.874C42.054 28.3298 41.8262 28.7285 41.5254 29.0703C41.2292 29.4076 40.8646 29.6696 40.4316 29.8564C39.9987 30.0433 39.502 30.1367 38.9414 30.1367C38.3809 30.1367 37.8818 30.0433 37.4443 29.8564C37.0114 29.6696 36.6445 29.4076 36.3438 29.0703C36.0475 28.7285 35.8219 28.3298 35.667 27.874C35.512 27.4137 35.4346 26.9147 35.4346 26.377ZM37.4033 26.2334V26.377C37.4033 26.6868 37.4307 26.9762 37.4854 27.2451C37.54 27.514 37.6266 27.751 37.7451 27.9561C37.8682 28.1566 38.0277 28.3138 38.2236 28.4277C38.4196 28.5417 38.6589 28.5986 38.9414 28.5986C39.2148 28.5986 39.4495 28.5417 39.6455 28.4277C39.8415 28.3138 39.9987 28.1566 40.1172 27.9561C40.2357 27.751 40.3223 27.514 40.377 27.2451C40.4362 26.9762 40.4658 26.6868 40.4658 26.377V26.2334C40.4658 25.9326 40.4362 25.6501 40.377 25.3857C40.3223 25.1169 40.2334 24.8799 40.1104 24.6748C39.9919 24.4652 39.8346 24.3011 39.6387 24.1826C39.4427 24.0641 39.2057 24.0049 38.9277 24.0049C38.6497 24.0049 38.4128 24.0641 38.2168 24.1826C38.0254 24.3011 37.8682 24.4652 37.7451 24.6748C37.6266 24.8799 37.54 25.1169 37.4854 25.3857C37.4307 25.6501 37.4033 25.9326 37.4033 26.2334ZM45.2441 26.3086H47.2402L45.1826 30H43.1934L45.2441 26.3086ZM46.5703 22.6035H49.8174V30H47.8486V24.1279H46.5703C46.3014 24.1279 46.0781 24.1781 45.9004 24.2783C45.7227 24.374 45.5905 24.4993 45.5039 24.6543C45.4219 24.8047 45.3809 24.9596 45.3809 25.1191C45.3809 25.2741 45.4219 25.4245 45.5039 25.5703C45.5859 25.7161 45.7135 25.8369 45.8867 25.9326C46.0599 26.0283 46.2764 26.0762 46.5361 26.0762H48.5801V27.416H46.5361C46.0485 27.416 45.611 27.3568 45.2236 27.2383C44.8408 27.1198 44.5127 26.9557 44.2393 26.7461C43.9704 26.5319 43.763 26.2835 43.6172 26.001C43.4759 25.7139 43.4053 25.3994 43.4053 25.0576C43.4053 24.7021 43.4782 24.3763 43.624 24.0801C43.7699 23.7839 43.9795 23.5241 44.2529 23.3008C44.5264 23.0775 44.8568 22.9066 45.2441 22.7881C45.6361 22.665 46.0781 22.6035 46.5703 22.6035ZM58.6562 26.9102H56.3389L56.3252 25.6182H58.2393C58.4945 25.6182 58.7018 25.5931 58.8613 25.543C59.0208 25.4883 59.137 25.4085 59.21 25.3037C59.2874 25.1943 59.3262 25.0622 59.3262 24.9072C59.3262 24.7705 59.3011 24.6543 59.251 24.5586C59.2054 24.4583 59.1348 24.3763 59.0391 24.3125C58.9434 24.2487 58.8226 24.2031 58.6768 24.1758C58.5355 24.1439 58.3691 24.1279 58.1777 24.1279H57.0703V30H55.1016V22.6035H58.1777C58.6608 22.6035 59.0938 22.6468 59.4766 22.7334C59.8594 22.8154 60.1852 22.9408 60.4541 23.1094C60.7275 23.278 60.9349 23.4922 61.0762 23.752C61.222 24.0072 61.2949 24.3102 61.2949 24.6611C61.2949 24.889 61.2425 25.1032 61.1377 25.3037C61.0374 25.5042 60.887 25.682 60.6865 25.8369C60.486 25.9919 60.2376 26.1195 59.9414 26.2197C59.6497 26.3154 59.3125 26.3747 58.9297 26.3975L58.6562 26.9102ZM58.6562 30H55.8535L56.5303 28.4756H58.6562C58.8978 28.4756 59.096 28.446 59.251 28.3867C59.4059 28.3275 59.5199 28.2409 59.5928 28.127C59.6702 28.0085 59.709 27.8672 59.709 27.7031C59.709 27.5436 59.6748 27.4046 59.6064 27.2861C59.5381 27.1676 59.4264 27.0765 59.2715 27.0127C59.1211 26.9443 58.916 26.9102 58.6562 26.9102H56.8174L56.8311 25.6182H58.9229L59.4014 26.1377C59.9209 26.1696 60.3493 26.2676 60.6865 26.4316C61.0238 26.5957 61.2721 26.8053 61.4316 27.0605C61.5957 27.3112 61.6777 27.5869 61.6777 27.8877C61.6777 28.2386 61.6117 28.5462 61.4795 28.8105C61.3473 29.0749 61.1514 29.2959 60.8916 29.4736C60.6364 29.6468 60.3219 29.779 59.9482 29.8701C59.5745 29.9567 59.1439 30 58.6562 30ZM62.5732 26.377V26.2334C62.5732 25.6911 62.6507 25.1921 62.8057 24.7363C62.9606 24.276 63.1862 23.8773 63.4824 23.54C63.7786 23.2028 64.1432 22.9408 64.5762 22.7539C65.0091 22.5625 65.5059 22.4668 66.0664 22.4668C66.627 22.4668 67.126 22.5625 67.5635 22.7539C68.001 22.9408 68.3678 23.2028 68.6641 23.54C68.9648 23.8773 69.1927 24.276 69.3477 24.7363C69.5026 25.1921 69.5801 25.6911 69.5801 26.2334V26.377C69.5801 26.9147 69.5026 27.4137 69.3477 27.874C69.1927 28.3298 68.9648 28.7285 68.6641 29.0703C68.3678 29.4076 68.0033 29.6696 67.5703 29.8564C67.1374 30.0433 66.6406 30.1367 66.0801 30.1367C65.5195 30.1367 65.0205 30.0433 64.583 29.8564C64.1501 29.6696 63.7832 29.4076 63.4824 29.0703C63.1862 28.7285 62.9606 28.3298 62.8057 27.874C62.6507 27.4137 62.5732 26.9147 62.5732 26.377ZM64.542 26.2334V26.377C64.542 26.6868 64.5693 26.9762 64.624 27.2451C64.6787 27.514 64.7653 27.751 64.8838 27.9561C65.0068 28.1566 65.1663 28.3138 65.3623 28.4277C65.5583 28.5417 65.7975 28.5986 66.0801 28.5986C66.3535 28.5986 66.5882 28.5417 66.7842 28.4277C66.9801 28.3138 67.1374 28.1566 67.2559 27.9561C67.3743 27.751 67.4609 27.514 67.5156 27.2451C67.5749 26.9762 67.6045 26.6868 67.6045 26.377V26.2334C67.6045 25.9326 67.5749 25.6501 67.5156 25.3857C67.4609 25.1169 67.3721 24.8799 67.249 24.6748C67.1305 24.4652 66.9733 24.3011 66.7773 24.1826C66.5814 24.0641 66.3444 24.0049 66.0664 24.0049C65.7884 24.0049 65.5514 24.0641 65.3555 24.1826C65.1641 24.3011 65.0068 24.4652 64.8838 24.6748C64.7653 24.8799 64.6787 25.1169 64.624 25.3857C64.5693 25.6501 64.542 25.9326 64.542 26.2334ZM75.6572 22.6035V24.1484H72.0205V22.6035H75.6572ZM77.0996 22.6035V30H75.1309V22.6035H77.0996ZM71.5283 22.6035H73.4629L73.2646 26.3359C73.2373 26.8691 73.1803 27.3385 73.0938 27.7441C73.0072 28.1497 72.891 28.4961 72.7451 28.7832C72.6038 29.0703 72.4329 29.305 72.2324 29.4873C72.0365 29.665 71.8063 29.7949 71.542 29.877C71.2822 29.959 70.9951 30 70.6807 30H70.0791L70.0586 28.4482L70.3115 28.4209C70.4574 28.4072 70.585 28.3662 70.6943 28.2979C70.8083 28.2249 70.904 28.1224 70.9814 27.9902C71.0635 27.8535 71.1318 27.6826 71.1865 27.4775C71.2412 27.2679 71.2845 27.0218 71.3164 26.7393C71.3529 26.4567 71.3779 26.1309 71.3916 25.7617L71.5283 22.6035ZM83.6895 25.5908V27.1221H79.9297V25.5908H83.6895ZM80.5859 22.6035V30H78.6172V22.6035H80.5859ZM85.0225 22.6035V30H83.0469V22.6035H85.0225ZM90.5459 28.332V25.0371C90.5459 24.8001 90.5072 24.5973 90.4297 24.4287C90.3522 24.2555 90.2314 24.1211 90.0674 24.0254C89.9079 23.9297 89.7005 23.8818 89.4453 23.8818C89.2266 23.8818 89.0374 23.9206 88.8779 23.998C88.7184 24.071 88.5954 24.1781 88.5088 24.3193C88.4222 24.4561 88.3789 24.6178 88.3789 24.8047H86.4102C86.4102 24.4902 86.4831 24.1917 86.6289 23.9092C86.7747 23.6266 86.9867 23.3783 87.2646 23.1641C87.5426 22.9453 87.873 22.7744 88.2559 22.6514C88.6432 22.5283 89.0762 22.4668 89.5547 22.4668C90.1289 22.4668 90.6393 22.5625 91.0859 22.7539C91.5326 22.9453 91.8835 23.2324 92.1387 23.6152C92.3984 23.998 92.5283 24.4766 92.5283 25.0508V28.2158C92.5283 28.6214 92.5534 28.9541 92.6035 29.2139C92.6536 29.4691 92.7266 29.6924 92.8223 29.8838V30H90.833C90.7373 29.7995 90.6644 29.5488 90.6143 29.248C90.5687 28.9427 90.5459 28.6374 90.5459 28.332ZM90.8057 25.4951L90.8193 26.6094H89.7188C89.459 26.6094 89.2334 26.639 89.042 26.6982C88.8506 26.7575 88.6934 26.8418 88.5703 26.9512C88.4473 27.056 88.3561 27.179 88.2969 27.3203C88.2422 27.4616 88.2148 27.6165 88.2148 27.7852C88.2148 27.9538 88.2536 28.1064 88.3311 28.2432C88.4085 28.3753 88.5202 28.4801 88.666 28.5576C88.8118 28.6305 88.9827 28.667 89.1787 28.667C89.4749 28.667 89.7324 28.6077 89.9512 28.4893C90.1699 28.3708 90.3385 28.2249 90.457 28.0518C90.5801 27.8786 90.6439 27.7145 90.6484 27.5596L91.168 28.3936C91.0951 28.5804 90.9948 28.7741 90.8672 28.9746C90.7441 29.1751 90.5869 29.3643 90.3955 29.542C90.2041 29.7152 89.974 29.8587 89.7051 29.9727C89.4362 30.082 89.1172 30.1367 88.748 30.1367C88.2786 30.1367 87.8525 30.0433 87.4697 29.8564C87.0915 29.665 86.7907 29.403 86.5674 29.0703C86.3486 28.7331 86.2393 28.3503 86.2393 27.9219C86.2393 27.5345 86.3122 27.1904 86.458 26.8896C86.6038 26.5889 86.818 26.3359 87.1006 26.1309C87.3877 25.9212 87.7454 25.764 88.1738 25.6592C88.6022 25.5498 89.099 25.4951 89.6641 25.4951H90.8057Z" fill="white"/>
</g>
<defs>
<clipPath id="clip0_2817_1783">
<rect width="116" height="116" rx="10" fill="white"/>
</clipPath>
</defs>
</svg>
