<svg width="116" height="116" viewBox="0 0 116 116" fill="none" xmlns="http://www.w3.org/2000/svg">
<g clip-path="url(#clip0_2817_1792)">
<rect width="116" height="116" rx="10" fill="#38C860"/>
<path d="M23.3519 124C18.8018 119.404 15.1924 113.947 12.7299 107.942C10.2674 101.937 9 95.5001 9 89C9 82.4999 10.2674 76.0634 12.7299 70.0581C15.1924 64.0528 18.8018 58.5962 23.3519 54M92.6481 54C97.1982 58.5962 100.808 64.0528 103.27 70.0581C105.733 76.0634 107 82.4999 107 89C107 95.5001 105.733 101.937 103.27 107.942C100.808 113.947 97.1982 119.404 92.6481 124M36.8267 110.388C31.2114 104.716 28.0568 97.0221 28.0568 89C28.0568 80.9779 31.2114 73.2843 36.8267 67.6117M79.1733 67.6117C84.7886 73.2843 87.9432 80.9779 87.9432 89C87.9432 97.0221 84.7886 104.716 79.1733 110.388M68.8888 89C68.8888 91.9172 67.7416 94.7149 65.6995 96.7777C63.6575 98.8405 60.8879 99.9994 58 99.9994C55.1121 99.9994 52.3425 98.8405 50.3005 96.7777C48.2584 94.7149 47.1112 91.9172 47.1112 89C47.1112 86.0828 48.2584 83.2851 50.3005 81.2223C52.3425 79.1595 55.1121 78.0006 58 78.0006C60.8879 78.0006 63.6575 79.1595 65.6995 81.2223C67.7416 83.2851 68.8888 86.0828 68.8888 89Z" stroke="white" stroke-width="11" stroke-linecap="round" stroke-linejoin="round"/>
<path d="M32.4424 21.0469H34.1787L36.7354 28.3545L39.292 21.0469H41.0283L37.4326 31H36.0381L32.4424 21.0469ZM31.5059 21.0469H33.2354L33.5498 28.1699V31H31.5059V21.0469ZM40.2354 21.0469H41.9717V31H39.9209V28.1699L40.2354 21.0469ZM45.8408 30.166L47.8027 23.6035H49.915L46.9414 32.1143C46.8776 32.3011 46.791 32.5016 46.6816 32.7158C46.5768 32.93 46.4333 33.1328 46.251 33.3242C46.0732 33.5202 45.8477 33.6797 45.5742 33.8027C45.3053 33.9258 44.9749 33.9873 44.583 33.9873C44.3962 33.9873 44.2435 33.9759 44.125 33.9531C44.0065 33.9303 43.8652 33.8984 43.7012 33.8574V32.415C43.7513 32.415 43.8037 32.415 43.8584 32.415C43.9131 32.4196 43.9655 32.4219 44.0156 32.4219C44.2754 32.4219 44.4873 32.3923 44.6514 32.333C44.8154 32.2738 44.9476 32.1826 45.0479 32.0596C45.1481 31.9411 45.2279 31.7861 45.2871 31.5947L45.8408 30.166ZM45.0205 23.6035L46.627 28.9629L46.9072 31.0479L45.5674 31.1914L42.9082 23.6035H45.0205ZM56.71 29.4209L58.6924 21.0469H59.7998L60.0527 22.4414L57.9404 31H56.751L56.71 29.4209ZM55.6914 21.0469L57.332 29.4209L57.1953 31H55.8691L53.6611 21.0469H55.6914ZM61.7959 29.3867L63.416 21.0469H65.4463L63.2451 31H61.9189L61.7959 29.3867ZM60.4219 21.0469L62.418 29.4551L62.3633 31H61.1738L59.0479 22.4346L59.3213 21.0469H60.4219ZM70.1973 29.332V26.0371C70.1973 25.8001 70.1585 25.5973 70.0811 25.4287C70.0036 25.2555 69.8828 25.1211 69.7188 25.0254C69.5592 24.9297 69.3519 24.8818 69.0967 24.8818C68.8779 24.8818 68.6888 24.9206 68.5293 24.998C68.3698 25.071 68.2467 25.1781 68.1602 25.3193C68.0736 25.4561 68.0303 25.6178 68.0303 25.8047H66.0615C66.0615 25.4902 66.1344 25.1917 66.2803 24.9092C66.4261 24.6266 66.638 24.3783 66.916 24.1641C67.194 23.9453 67.5244 23.7744 67.9072 23.6514C68.2946 23.5283 68.7275 23.4668 69.2061 23.4668C69.7803 23.4668 70.2907 23.5625 70.7373 23.7539C71.1839 23.9453 71.5348 24.2324 71.79 24.6152C72.0498 24.998 72.1797 25.4766 72.1797 26.0508V29.2158C72.1797 29.6214 72.2048 29.9541 72.2549 30.2139C72.305 30.4691 72.3779 30.6924 72.4736 30.8838V31H70.4844C70.3887 30.7995 70.3158 30.5488 70.2656 30.248C70.2201 29.9427 70.1973 29.6374 70.1973 29.332ZM70.457 26.4951L70.4707 27.6094H69.3701C69.1104 27.6094 68.8848 27.639 68.6934 27.6982C68.502 27.7575 68.3447 27.8418 68.2217 27.9512C68.0986 28.056 68.0075 28.179 67.9482 28.3203C67.8936 28.4616 67.8662 28.6165 67.8662 28.7852C67.8662 28.9538 67.9049 29.1064 67.9824 29.2432C68.0599 29.3753 68.1715 29.4801 68.3174 29.5576C68.4632 29.6305 68.6341 29.667 68.8301 29.667C69.1263 29.667 69.3838 29.6077 69.6025 29.4893C69.8213 29.3708 69.9899 29.2249 70.1084 29.0518C70.2314 28.8786 70.2952 28.7145 70.2998 28.5596L70.8193 29.3936C70.7464 29.5804 70.6462 29.7741 70.5186 29.9746C70.3955 30.1751 70.2383 30.3643 70.0469 30.542C69.8555 30.7152 69.6253 30.8587 69.3564 30.9727C69.0876 31.082 68.7686 31.1367 68.3994 31.1367C67.93 31.1367 67.5039 31.0433 67.1211 30.8564C66.7428 30.665 66.4421 30.403 66.2188 30.0703C66 29.7331 65.8906 29.3503 65.8906 28.9219C65.8906 28.5345 65.9635 28.1904 66.1094 27.8896C66.2552 27.5889 66.4694 27.3359 66.752 27.1309C67.0391 26.9212 67.3968 26.764 67.8252 26.6592C68.2536 26.5498 68.7503 26.4951 69.3154 26.4951H70.457ZM76.1035 29.5645L77.7441 23.6035H79.8018L77.3066 31H76.0625L76.1035 29.5645ZM74.9756 23.6035L76.623 29.5713L76.6572 31H75.4062L72.9111 23.6035H74.9756ZM83.9922 31.1367C83.418 31.1367 82.903 31.0456 82.4473 30.8633C81.9915 30.6764 81.6042 30.4189 81.2852 30.0908C80.9707 29.7627 80.7292 29.3822 80.5605 28.9492C80.3919 28.5117 80.3076 28.0469 80.3076 27.5547V27.2812C80.3076 26.7207 80.3874 26.208 80.5469 25.7432C80.7064 25.2783 80.9342 24.875 81.2305 24.5332C81.5312 24.1914 81.8958 23.9294 82.3242 23.7471C82.7526 23.5602 83.2357 23.4668 83.7734 23.4668C84.2975 23.4668 84.7624 23.5534 85.168 23.7266C85.5736 23.8997 85.9131 24.1458 86.1865 24.4648C86.4645 24.7839 86.6742 25.1667 86.8154 25.6133C86.9567 26.0553 87.0273 26.5475 87.0273 27.0898V27.9102H81.1484V26.5977H85.0928V26.4473C85.0928 26.1738 85.0426 25.93 84.9424 25.7158C84.8467 25.4971 84.7008 25.3239 84.5049 25.1963C84.3089 25.0687 84.0583 25.0049 83.7529 25.0049C83.4932 25.0049 83.2699 25.0618 83.083 25.1758C82.8962 25.2897 82.7435 25.4492 82.625 25.6543C82.5111 25.8594 82.4245 26.1009 82.3652 26.3789C82.3105 26.6523 82.2832 26.9531 82.2832 27.2812V27.5547C82.2832 27.8509 82.3242 28.1243 82.4062 28.375C82.4928 28.6257 82.6136 28.8421 82.7686 29.0244C82.9281 29.2067 83.1195 29.348 83.3428 29.4482C83.5706 29.5485 83.8281 29.5986 84.1152 29.5986C84.4707 29.5986 84.8011 29.5303 85.1064 29.3936C85.4163 29.2523 85.6829 29.0404 85.9062 28.7578L86.8633 29.7969C86.7083 30.0202 86.4964 30.2344 86.2275 30.4395C85.9632 30.6445 85.6442 30.8132 85.2705 30.9453C84.8968 31.0729 84.4707 31.1367 83.9922 31.1367Z" fill="black" fill-opacity="0.25"/>
<path d="M31.4424 20.0469H33.1787L35.7354 27.3545L38.292 20.0469H40.0283L36.4326 30H35.0381L31.4424 20.0469ZM30.5059 20.0469H32.2354L32.5498 27.1699V30H30.5059V20.0469ZM39.2354 20.0469H40.9717V30H38.9209V27.1699L39.2354 20.0469ZM44.8408 29.166L46.8027 22.6035H48.915L45.9414 31.1143C45.8776 31.3011 45.791 31.5016 45.6816 31.7158C45.5768 31.93 45.4333 32.1328 45.251 32.3242C45.0732 32.5202 44.8477 32.6797 44.5742 32.8027C44.3053 32.9258 43.9749 32.9873 43.583 32.9873C43.3962 32.9873 43.2435 32.9759 43.125 32.9531C43.0065 32.9303 42.8652 32.8984 42.7012 32.8574V31.415C42.7513 31.415 42.8037 31.415 42.8584 31.415C42.9131 31.4196 42.9655 31.4219 43.0156 31.4219C43.2754 31.4219 43.4873 31.3923 43.6514 31.333C43.8154 31.2738 43.9476 31.1826 44.0479 31.0596C44.1481 30.9411 44.2279 30.7861 44.2871 30.5947L44.8408 29.166ZM44.0205 22.6035L45.627 27.9629L45.9072 30.0479L44.5674 30.1914L41.9082 22.6035H44.0205ZM55.71 28.4209L57.6924 20.0469H58.7998L59.0527 21.4414L56.9404 30H55.751L55.71 28.4209ZM54.6914 20.0469L56.332 28.4209L56.1953 30H54.8691L52.6611 20.0469H54.6914ZM60.7959 28.3867L62.416 20.0469H64.4463L62.2451 30H60.9189L60.7959 28.3867ZM59.4219 20.0469L61.418 28.4551L61.3633 30H60.1738L58.0479 21.4346L58.3213 20.0469H59.4219ZM69.1973 28.332V25.0371C69.1973 24.8001 69.1585 24.5973 69.0811 24.4287C69.0036 24.2555 68.8828 24.1211 68.7188 24.0254C68.5592 23.9297 68.3519 23.8818 68.0967 23.8818C67.8779 23.8818 67.6888 23.9206 67.5293 23.998C67.3698 24.071 67.2467 24.1781 67.1602 24.3193C67.0736 24.4561 67.0303 24.6178 67.0303 24.8047H65.0615C65.0615 24.4902 65.1344 24.1917 65.2803 23.9092C65.4261 23.6266 65.638 23.3783 65.916 23.1641C66.194 22.9453 66.5244 22.7744 66.9072 22.6514C67.2946 22.5283 67.7275 22.4668 68.2061 22.4668C68.7803 22.4668 69.2907 22.5625 69.7373 22.7539C70.1839 22.9453 70.5348 23.2324 70.79 23.6152C71.0498 23.998 71.1797 24.4766 71.1797 25.0508V28.2158C71.1797 28.6214 71.2048 28.9541 71.2549 29.2139C71.305 29.4691 71.3779 29.6924 71.4736 29.8838V30H69.4844C69.3887 29.7995 69.3158 29.5488 69.2656 29.248C69.2201 28.9427 69.1973 28.6374 69.1973 28.332ZM69.457 25.4951L69.4707 26.6094H68.3701C68.1104 26.6094 67.8848 26.639 67.6934 26.6982C67.502 26.7575 67.3447 26.8418 67.2217 26.9512C67.0986 27.056 67.0075 27.179 66.9482 27.3203C66.8936 27.4616 66.8662 27.6165 66.8662 27.7852C66.8662 27.9538 66.9049 28.1064 66.9824 28.2432C67.0599 28.3753 67.1715 28.4801 67.3174 28.5576C67.4632 28.6305 67.6341 28.667 67.8301 28.667C68.1263 28.667 68.3838 28.6077 68.6025 28.4893C68.8213 28.3708 68.9899 28.2249 69.1084 28.0518C69.2314 27.8786 69.2952 27.7145 69.2998 27.5596L69.8193 28.3936C69.7464 28.5804 69.6462 28.7741 69.5186 28.9746C69.3955 29.1751 69.2383 29.3643 69.0469 29.542C68.8555 29.7152 68.6253 29.8587 68.3564 29.9727C68.0876 30.082 67.7686 30.1367 67.3994 30.1367C66.93 30.1367 66.5039 30.0433 66.1211 29.8564C65.7428 29.665 65.4421 29.403 65.2188 29.0703C65 28.7331 64.8906 28.3503 64.8906 27.9219C64.8906 27.5345 64.9635 27.1904 65.1094 26.8896C65.2552 26.5889 65.4694 26.3359 65.752 26.1309C66.0391 25.9212 66.3968 25.764 66.8252 25.6592C67.2536 25.5498 67.7503 25.4951 68.3154 25.4951H69.457ZM75.1035 28.5645L76.7441 22.6035H78.8018L76.3066 30H75.0625L75.1035 28.5645ZM73.9756 22.6035L75.623 28.5713L75.6572 30H74.4062L71.9111 22.6035H73.9756ZM82.9922 30.1367C82.418 30.1367 81.903 30.0456 81.4473 29.8633C80.9915 29.6764 80.6042 29.4189 80.2852 29.0908C79.9707 28.7627 79.7292 28.3822 79.5605 27.9492C79.3919 27.5117 79.3076 27.0469 79.3076 26.5547V26.2812C79.3076 25.7207 79.3874 25.208 79.5469 24.7432C79.7064 24.2783 79.9342 23.875 80.2305 23.5332C80.5312 23.1914 80.8958 22.9294 81.3242 22.7471C81.7526 22.5602 82.2357 22.4668 82.7734 22.4668C83.2975 22.4668 83.7624 22.5534 84.168 22.7266C84.5736 22.8997 84.9131 23.1458 85.1865 23.4648C85.4645 23.7839 85.6742 24.1667 85.8154 24.6133C85.9567 25.0553 86.0273 25.5475 86.0273 26.0898V26.9102H80.1484V25.5977H84.0928V25.4473C84.0928 25.1738 84.0426 24.93 83.9424 24.7158C83.8467 24.4971 83.7008 24.3239 83.5049 24.1963C83.3089 24.0687 83.0583 24.0049 82.7529 24.0049C82.4932 24.0049 82.2699 24.0618 82.083 24.1758C81.8962 24.2897 81.7435 24.4492 81.625 24.6543C81.5111 24.8594 81.4245 25.1009 81.3652 25.3789C81.3105 25.6523 81.2832 25.9531 81.2832 26.2812V26.5547C81.2832 26.8509 81.3242 27.1243 81.4062 27.375C81.4928 27.6257 81.6136 27.8421 81.7686 28.0244C81.9281 28.2067 82.1195 28.348 82.3428 28.4482C82.5706 28.5485 82.8281 28.5986 83.1152 28.5986C83.4707 28.5986 83.8011 28.5303 84.1064 28.3936C84.4163 28.2523 84.6829 28.0404 84.9062 27.7578L85.8633 28.7969C85.7083 29.0202 85.4964 29.2344 85.2275 29.4395C84.9632 29.6445 84.6442 29.8132 84.2705 29.9453C83.8968 30.0729 83.4707 30.1367 82.9922 30.1367Z" fill="white"/>
</g>
<defs>
<clipPath id="clip0_2817_1792">
<rect width="116" height="116" rx="10" fill="white"/>
</clipPath>
</defs>
</svg>
