<svg width="64" height="64" viewBox="0 0 64 64" fill="none" xmlns="http://www.w3.org/2000/svg">
<path d="M34.6668 43.9814C34.6668 49.1387 38.8615 53.3334 44.0188 53.3334C49.1762 53.3334 53.3708 49.1387 53.3708 43.9814C53.3708 43.5094 53.2988 43.0561 53.2295 42.6027H53.3335V16.0001H58.6668V10.6667H50.6668C49.9596 10.6667 49.2813 10.9477 48.7812 11.4478C48.2811 11.9479 48.0002 12.6262 48.0002 13.3334V35.5547C46.7586 34.9539 45.3982 34.6386 44.0188 34.6321C41.5396 34.6342 39.1626 35.6198 37.4092 37.3726C35.6559 39.1254 34.6697 41.5022 34.6668 43.9814V43.9814ZM5.3335 13.3334H42.6668V18.6667H5.3335V13.3334Z" fill="white"/>
<path d="M5.3335 24H42.6668V29.3333H5.3335V24ZM5.3335 34.6667H29.3335V40H5.3335V34.6667ZM5.3335 45.3333H29.3335V50.6667H5.3335V45.3333Z" fill="white"/>
</svg>
