<svg width="64" height="64" viewBox="0 0 64 64" fill="none" xmlns="http://www.w3.org/2000/svg">
<path d="M26.6668 47.9999C31.4001 47.9989 35.997 46.4144 39.7255 43.4986L51.4482 55.2212L55.2188 51.4506L43.4962 39.7279C46.4135 35.999 47.999 31.4011 48.0002 26.6666C48.0002 14.9039 38.4295 5.33325 26.6668 5.33325C14.9042 5.33325 5.3335 14.9039 5.3335 26.6666C5.3335 38.4292 14.9042 47.9999 26.6668 47.9999ZM26.6668 10.6666C35.4908 10.6666 42.6668 17.8426 42.6668 26.6666C42.6668 35.4906 35.4908 42.6666 26.6668 42.6666C17.8428 42.6666 10.6668 35.4906 10.6668 26.6666C10.6668 17.8426 17.8428 10.6666 26.6668 10.6666Z" fill="white"/>
</svg>
