<svg width="20" height="20" viewBox="0 0 20 20" fill="none" xmlns="http://www.w3.org/2000/svg">
<path fill-rule="evenodd" clip-rule="evenodd" d="M3.33337 5.41768V0H2.00004V5.41768C1.4276 5.56554 0.920514 5.89942 0.558484 6.36684C0.196453 6.83427 0 7.40873 0 7.99996C0 8.59119 0.196453 9.16566 0.558484 9.63308C0.920514 10.1005 1.4276 10.4344 2.00004 10.5822V19.9999H3.33337V10.5822C3.90581 10.4344 4.41289 10.1005 4.77492 9.63308C5.13695 9.16566 5.3334 8.59119 5.3334 7.99996C5.3334 7.40873 5.13695 6.83427 4.77492 6.36684C4.41289 5.89942 3.90581 5.56554 3.33337 5.41768ZM2.6667 9.33329C2.40299 9.33329 2.14521 9.25509 1.92594 9.10858C1.70668 8.96208 1.53578 8.75384 1.43487 8.5102C1.33395 8.26657 1.30755 7.99848 1.35899 7.73984C1.41044 7.4812 1.53743 7.24363 1.7239 7.05716C1.91037 6.87069 2.14794 6.7437 2.40658 6.69225C2.66522 6.64081 2.93331 6.66721 3.17694 6.76813C3.42058 6.86904 3.62881 7.03994 3.77532 7.25921C3.92183 7.47847 4.00003 7.73626 4.00003 7.99996C3.99963 8.35346 3.85903 8.69237 3.60907 8.94233C3.35911 9.19229 3.0202 9.33289 2.6667 9.33329ZM10.6667 11.4177V9.40954e-05H9.33334V11.4177C8.7609 11.5656 8.25381 11.8995 7.89178 12.3669C7.52975 12.8343 7.3333 13.4088 7.3333 14C7.3333 14.5913 7.52975 15.1657 7.89178 15.6331C8.25381 16.1006 8.7609 16.4345 9.33334 16.5823V20H10.6667V16.5823C11.2391 16.4345 11.7462 16.1006 12.1082 15.6331C12.4702 15.1657 12.6667 14.5913 12.6667 14C12.6667 13.4088 12.4702 12.8343 12.1082 12.3669C11.7462 11.8995 11.2391 11.5656 10.6667 11.4177ZM10 15.3334C9.73629 15.3334 9.47851 15.2552 9.25924 15.1086C9.03998 14.9621 8.86908 14.7539 8.76817 14.5103C8.66725 14.2666 8.64085 13.9985 8.69229 13.7399C8.74374 13.4813 8.87073 13.2437 9.0572 13.0572C9.24367 12.8708 9.48124 12.7438 9.73988 12.6923C9.99852 12.6409 10.2666 12.6673 10.5102 12.7682C10.7539 12.8691 10.9621 13.04 11.1086 13.2593C11.2551 13.4785 11.3333 13.7363 11.3333 14C11.3329 14.3535 11.1923 14.6924 10.9424 14.9424C10.6924 15.1924 10.3535 15.333 10 15.3334ZM18 0V2.75103C18.5724 2.89889 19.0795 3.23277 19.4415 3.70019C19.8036 4.16761 20 4.74208 20 5.33331C20 5.92454 19.8036 6.499 19.4415 6.96643C19.0795 7.43385 18.5724 7.76773 18 7.91559V19.9999H16.6667V7.91559C16.0942 7.76773 15.5871 7.43385 15.2251 6.96643C14.8631 6.499 14.6666 5.92454 14.6666 5.33331C14.6666 4.74208 14.8631 4.16761 15.2251 3.70019C15.5871 3.23277 16.0942 2.89889 16.6667 2.75103V0H18ZM16.5926 6.44193C16.8118 6.58844 17.0696 6.66664 17.3333 6.66664C17.6868 6.66624 18.0257 6.52564 18.2757 6.27567C18.5257 6.02571 18.6663 5.68681 18.6667 5.33331C18.6667 5.0696 18.5885 4.81182 18.4419 4.59255C18.2954 4.37329 18.0872 4.20239 17.8436 4.10147C17.5999 4.00056 17.3318 3.97415 17.0732 4.0256C16.8146 4.07705 16.577 4.20403 16.3905 4.3905C16.2041 4.57697 16.0771 4.81455 16.0256 5.07319C15.9742 5.33183 16.0006 5.59992 16.1015 5.84355C16.2024 6.08718 16.3733 6.29542 16.5926 6.44193Z" fill="#C1C1C1"/>
</svg>
