<?xml version="1.0" encoding="UTF-8" standalone="no"?>
<svg
   xmlns:dc="http://purl.org/dc/elements/1.1/"
   xmlns:cc="http://creativecommons.org/ns#"
   xmlns:rdf="http://www.w3.org/1999/02/22-rdf-syntax-ns#"
   xmlns:svg="http://www.w3.org/2000/svg"
   xmlns="http://www.w3.org/2000/svg"
   xmlns:sodipodi="http://sodipodi.sourceforge.net/DTD/sodipodi-0.dtd"
   xmlns:inkscape="http://www.inkscape.org/namespaces/inkscape"
   width="64"
   height="64"
   viewBox="0 0 64 64"
   fill="none"
   version="1.1"
   id="svg6"
   sodipodi:docname="Mutator.svg"
   inkscape:version="1.0.2 (e86c870879, 2021-01-15)">
  <metadata
     id="metadata12">
    <rdf:RDF>
      <cc:Work
         rdf:about="">
        <dc:format>image/svg+xml</dc:format>
        <dc:type
           rdf:resource="http://purl.org/dc/dcmitype/StillImage" />
        <dc:title />
      </cc:Work>
    </rdf:RDF>
  </metadata>
  <defs
     id="defs10" />
  <sodipodi:namedview
     pagecolor="#ffffff"
     bordercolor="#666666"
     borderopacity="1"
     objecttolerance="10"
     gridtolerance="10"
     guidetolerance="10"
     inkscape:pageopacity="0"
     inkscape:pageshadow="2"
     inkscape:window-width="1920"
     inkscape:window-height="1020"
     id="namedview8"
     showgrid="false"
     inkscape:zoom="11.313709"
     inkscape:cx="23.807598"
     inkscape:cy="30.729219"
     inkscape:window-x="0"
     inkscape:window-y="32"
     inkscape:window-maximized="1"
     inkscape:current-layer="svg6"
     inkscape:document-rotation="0"
     inkscape:snap-object-midpoints="true"
     inkscape:snap-page="true" />
  <rect
     style="opacity:0.2"
     width="56"
     height="56"
     x="4"
     y="5"
     rx="28"
     ry="28"
     id="rect2-6" />
  <rect
     style="opacity:0.2"
     width="56"
     height="56"
     x="4"
     y="5.000001"
     rx="28"
     ry="28"
     id="rect2" />
  <rect
     style="fill:#3d3d3d;fill-opacity:1"
     width="56"
     height="56"
     x="4"
     y="4.000001"
     rx="28"
     ry="28"
     id="rect4" />
  <path
     style="opacity:1;fill:#5c5c5c;fill-opacity:1"
     d="m 32,4.0000011 c -15.512,0 -27.9999998,12.4879999 -27.9999998,27.9999999 0,0.11345 0.01128,0.224113 0.017578,0.335938 C 4.3691215,17.134182 16.710728,5.0000011 32,5.0000011 c 15.289272,0 27.630879,12.1341809 27.982422,27.3359379 0.0063,-0.111825 0.01758,-0.222488 0.01758,-0.335938 0,-15.512 -12.488,-27.9999999 -28,-27.9999999 z"
     fill="#5c5c5c"
     id="path14" />
  <path
     style="opacity:1;fill:#232323;fill-opacity:1;stroke:none"
     d="m 32.000003,60.671877 c 15.512,0 28,-12.488 28,-28 0,-0.11345 -0.01128,-0.224113 -0.01758,-0.335938 -0.351543,15.201757 -12.69315,27.335938 -27.982422,27.335938 -15.289272,0 -27.6308798,-12.134181 -27.9824228,-27.335938 -0.0063,0.111825 -0.01758,0.222488 -0.01758,0.335938 0,15.512 12.4880008,28 28.0000008,28 z"
     fill="#232323"
     id="path14-7" />
  <path
     fill-rule="evenodd"
     clip-rule="evenodd"
     d="m 41.907374,35.976826 c -0.450141,0.565647 -0.236818,1.187987 0.899147,0.324213 5.153908,-3.924687 3.383053,-8.292623 1.825057,-12.135466 -0.896761,-2.21187 -1.722986,-4.249783 -1.117607,-5.929042 l -3.458362,-1.246803 -8.979686,24.907737 c 0,0 -0.914294,-1.106039 -3.210653,-1.933919 -3.584605,-1.292342 -7.710063,-0.293147 -9.022321,3.346797 -1.008843,2.798267 0.774046,5.131658 3.639322,6.164669 5.642328,2.034126 10.093455,-0.909 11.119621,-3.755346 l 7.144467,-19.806369 c 4.56689,2.502422 2.356939,8.567251 1.161015,10.063529 z m 2.408754,1.957 c 0.444646,-0.339358 0.853869,-0.687896 1.228598,-1.045252 -0.188907,2.363526 -0.766214,4.479705 -1.731902,6.348637 -1.185552,2.323331 -2.888773,4.107153 -5.10972,5.351362 -1.811624,1.021706 -3.871163,1.634085 -6.178725,1.836933 1.656803,-1.112368 2.876946,-2.618135 3.465467,-4.250146 l 1.57e-4,-4.66e-4 0.146916,-0.407252 c 0.908794,-0.48619 1.711676,-1.119833 2.408649,-1.900933 1.201628,-1.335857 2.0153,-3.037473 2.440963,-5.104791 0.786442,0.248021 1.516142,0.0841 1.854825,-0.02282 0.574207,-0.181228 1.073157,-0.499261 1.473302,-0.804181 l 7.24e-4,-5.7e-4 z M 26.232636,36.518252 c -1.435075,-0.176439 -2.927566,-0.08879 -4.321874,0.317317 V 17.761644 h 9.251516 c 1.935269,0 3.718469,0.290035 5.349545,0.870104 l -1.222167,3.390159 c -1.178235,-0.45777 -2.516478,-0.693654 -4.014776,-0.707604 h -5.042244 z"
     fill="#2f2f2f"
     id="path4-5"
     style="fill:#2f2f2f;fill-opacity:1;stroke:none;stroke-width:0.0518659;stroke-opacity:1"
     sodipodi:nodetypes="ccsccccccccccccccscccccccccccsccccc" />
  <path
     fill-rule="evenodd"
     clip-rule="evenodd"
     d="m 43.881512,37.155776 c 0.444646,-0.339358 0.853867,-0.687897 1.228598,-1.045253 -0.188909,2.363527 -0.766214,4.479705 -1.731902,6.348637 -1.185552,2.323332 -2.888774,4.107153 -5.10972,5.351363 -1.811624,1.021705 -3.871164,1.634084 -6.178725,1.836932 1.656802,-1.112368 2.876945,-2.618135 3.465466,-4.250145 l 1.56e-4,-4.67e-4 0.146917,-0.407251 c 0.908794,-0.486191 1.711676,-1.119834 2.408649,-1.900934 1.201628,-1.335857 2.0153,-3.037473 2.440963,-5.104791 0.786442,0.248022 1.516141,0.0841 1.854825,-0.02282 0.574206,-0.181228 1.073158,-0.49926 1.473302,-0.804181 l 7.25e-4,-5.69e-4 z M 25.79802,35.740201 c -1.435077,-0.176439 -2.927568,-0.08879 -4.321875,0.317317 V 16.983594 h 9.251515 c 1.93527,0 3.718471,0.290034 5.349547,0.870103 l -1.222167,3.39016 C 33.676804,20.786086 32.338561,20.550202 30.840263,20.536252 H 25.79802 Z"
     fill="#ffffff"
     id="path4"
     style="fill:#ffffff;fill-opacity:1;stroke:none;stroke-width:0.0518659"
     sodipodi:nodetypes="cccccscccccccccccsccccc" />
  <path
     fill-rule="evenodd"
     clip-rule="evenodd"
     d="m 41.499451,35.384094 c -0.450142,0.565647 -0.236818,1.187987 0.899146,0.324213 5.153908,-3.924687 3.383054,-8.292623 1.825056,-12.135465 -0.89676,-2.211869 -1.722984,-4.249784 -1.117606,-5.929043 l -3.458363,-1.246803 -8.979685,24.907738 c 0,0 -0.914293,-1.10604 -3.210654,-1.93392 -3.584604,-1.292342 -7.710061,-0.293147 -9.022319,3.346799 -1.008843,2.798265 0.774046,5.131657 3.639322,6.164668 5.642327,2.034126 10.093454,-0.909 11.119621,-3.755345 l 7.144465,-19.806371 c 4.56689,2.502422 2.356941,8.567251 1.161017,10.063529 z"
     fill="#f1e183"
     id="path4-7"
     style="fill:#f7b86c;fill-opacity:1;fill-rule:nonzero;stroke:none;stroke-width:0.0518659"
     sodipodi:nodetypes="ccsccccccccc" />
</svg>
