<?xml version="1.0" encoding="UTF-8" standalone="no"?>
<svg
   xmlns:dc="http://purl.org/dc/elements/1.1/"
   xmlns:cc="http://creativecommons.org/ns#"
   xmlns:rdf="http://www.w3.org/1999/02/22-rdf-syntax-ns#"
   xmlns:svg="http://www.w3.org/2000/svg"
   xmlns="http://www.w3.org/2000/svg"
   xmlns:sodipodi="http://sodipodi.sourceforge.net/DTD/sodipodi-0.dtd"
   xmlns:inkscape="http://www.inkscape.org/namespaces/inkscape"
   width="64"
   height="64"
   viewBox="0 0 64 64"
   fill="none"
   version="1.1"
   id="svg6"
   sodipodi:docname="app-papirus.svg"
   inkscape:version="1.0.2 (e86c870879, 2021-01-15)">
  <metadata
     id="metadata12">
    <rdf:RDF>
      <cc:Work
         rdf:about="">
        <dc:format>image/svg+xml</dc:format>
        <dc:type
           rdf:resource="http://purl.org/dc/dcmitype/StillImage" />
        <dc:title />
      </cc:Work>
    </rdf:RDF>
  </metadata>
  <defs
     id="defs10" />
  <sodipodi:namedview
     pagecolor="#ffffff"
     bordercolor="#666666"
     borderopacity="1"
     objecttolerance="10"
     gridtolerance="10"
     guidetolerance="10"
     inkscape:pageopacity="0"
     inkscape:pageshadow="2"
     inkscape:window-width="1920"
     inkscape:window-height="1024"
     id="namedview8"
     showgrid="false"
     inkscape:zoom="8.0000002"
     inkscape:cx="22.211878"
     inkscape:cy="31.495451"
     inkscape:window-x="0"
     inkscape:window-y="28"
     inkscape:window-maximized="1"
     inkscape:current-layer="svg6"
     inkscape:document-rotation="0"
     inkscape:snap-object-midpoints="true"
     inkscape:snap-page="true" />
  <rect
     style="opacity:0.2"
     width="56"
     height="56"
     x="4"
     y="5"
     rx="28"
     ry="28"
     id="rect2-6" />
  <rect
     style="opacity:0.2"
     width="56"
     height="56"
     x="4"
     y="5.000001"
     rx="28"
     ry="28"
     id="rect2" />
  <rect
     style="fill:#3d3d3d;fill-opacity:1"
     width="56"
     height="56"
     x="4"
     y="4.000001"
     rx="28"
     ry="28"
     id="rect4" />
  <path
     style="opacity:1;fill:#5c5c5c;fill-opacity:1"
     d="m 32,4.0000011 c -15.512,0 -27.9999998,12.4879999 -27.9999998,27.9999999 0,0.11345 0.01128,0.224113 0.017578,0.335938 C 4.3691215,17.134182 16.710728,5.0000011 32,5.0000011 c 15.289272,0 27.630879,12.1341809 27.982422,27.3359379 0.0063,-0.111825 0.01758,-0.222488 0.01758,-0.335938 0,-15.512 -12.488,-27.9999999 -28,-27.9999999 z"
     fill="#5c5c5c"
     id="path14" />
  <path
     style="opacity:1;fill:#232323;fill-opacity:1;stroke:none"
     d="m 32.000003,60.671877 c 15.512,0 28,-12.488 28,-28 0,-0.11345 -0.01128,-0.224113 -0.01758,-0.335938 -0.351543,15.201757 -12.69315,27.335938 -27.982422,27.335938 -15.289272,0 -27.6308798,-12.134181 -27.9824228,-27.335938 -0.0063,0.111825 -0.01758,0.222488 -0.01758,0.335938 0,15.512 12.4880008,28 28.0000008,28 z"
     fill="#232323"
     id="path14-7" />
  <path
     fill-rule="evenodd"
     clip-rule="evenodd"
     d="m 41.400331,35.842911 c -0.426645,0.536122 -0.224457,1.125978 0.852214,0.30729 4.884891,-3.719831 3.206469,-7.859774 1.729795,-11.502033 -0.849953,-2.096417 -1.633051,-4.027958 -1.059271,-5.619565 l -3.277847,-1.181724 -8.510975,23.607633 c 0,0 -0.86657,-1.048308 -3.043067,-1.832975 -3.3975,-1.224886 -7.307622,-0.277846 -8.551384,3.172105 -0.956185,2.652206 0.733643,4.863802 3.449361,5.842893 5.347816,1.927951 9.566608,-0.861553 10.539212,-3.559329 l 6.771548,-18.77254 c 4.328513,2.371804 2.233915,8.120068 1.100414,9.538245 z m 2.283025,1.854851 c 0.421437,-0.321645 0.809299,-0.65199 1.164469,-0.990693 -0.179047,2.240157 -0.72622,4.245878 -1.641502,6.017258 -1.12367,2.202061 -2.737989,3.892773 -4.843009,5.072038 -1.717063,0.968376 -3.669101,1.548791 -5.856215,1.741051 1.570323,-1.054306 2.726778,-2.481477 3.28458,-4.028302 l 1.49e-4,-4.42e-4 0.139247,-0.385994 c 0.861358,-0.460813 1.622332,-1.061382 2.282926,-1.801711 1.138906,-1.266129 1.910107,-2.878926 2.313552,-4.838337 0.745392,0.235075 1.437004,0.07971 1.758009,-0.02163 0.544235,-0.171768 1.017142,-0.473201 1.3964,-0.762205 l 6.87e-4,-5.4e-4 z M 26.543765,36.356076 c -1.360169,-0.167229 -2.774757,-0.08416 -4.096286,0.300754 V 18.578504 h 8.768616 c 1.834254,0 3.524377,0.274896 5.070316,0.824687 l -1.158374,3.213204 c -1.116735,-0.433876 -2.385126,-0.657448 -3.805218,-0.67067 h -4.779054 z"
     fill="#2f2f2f"
     id="path4-5"
     style="fill:#2f2f2f;fill-opacity:1;stroke-width:0.0491587;stroke:none;stroke-opacity:1"
     sodipodi:nodetypes="ccsccccccccccccccscccccccccccsccccc" />
  <path
     fill-rule="evenodd"
     clip-rule="evenodd"
     d="m 43.271425,36.960324 c 0.421437,-0.321645 0.809298,-0.651991 1.164469,-0.990694 -0.179048,2.240158 -0.72622,4.245878 -1.641502,6.017258 -1.12367,2.202061 -2.737989,3.892773 -4.843009,5.072039 -1.717063,0.968375 -3.669101,1.54879 -5.856215,1.74105 1.570322,-1.054306 2.726778,-2.481477 3.28458,-4.028301 l 1.48e-4,-4.43e-4 0.139248,-0.385994 c 0.861358,-0.460813 1.622332,-1.061382 2.282925,-1.801711 1.138907,-1.266129 1.910108,-2.878926 2.313553,-4.838337 0.745392,0.235076 1.437003,0.07971 1.758009,-0.02163 0.544234,-0.171768 1.017142,-0.4732 1.3964,-0.762205 l 6.87e-4,-5.39e-4 z M 26.131834,35.618637 c -1.36017,-0.167229 -2.774758,-0.08416 -4.096287,0.300754 V 17.841066 h 8.768616 c 1.834255,0 3.524378,0.274895 5.070317,0.824686 l -1.158374,3.213204 C 33.599371,21.44508 32.33098,21.221508 30.910888,21.208286 h -4.779054 z"
     fill="#ffffff"
     id="path4"
     style="fill-opacity:1;stroke-width:0.0491587;fill:#ffffff;stroke:none"
     sodipodi:nodetypes="cccccscccccccccccsccccc" />
  <path
     fill-rule="evenodd"
     clip-rule="evenodd"
     d="m 41.0137,35.281118 c -0.426646,0.536122 -0.224457,1.125978 0.852214,0.30729 4.88489,-3.719831 3.206469,-7.859774 1.729794,-11.502032 -0.849952,-2.096417 -1.63305,-4.027959 -1.059271,-5.619566 L 39.25859,17.285086 30.747616,40.892719 c 0,0 -0.86657,-1.048308 -3.043068,-1.832975 -3.397499,-1.224886 -7.307621,-0.277846 -8.551383,3.172106 -0.956185,2.652205 0.733643,4.863801 3.449361,5.842892 5.347815,1.927951 9.566608,-0.861553 10.539212,-3.559328 l 6.771547,-18.772541 c 4.328513,2.371804 2.233916,8.120068 1.100415,9.538245 z"
     fill="#f1e183"
     id="path4-7"
     style="fill:#f1d483;fill-opacity:1;stroke-width:0.0491587;fill-rule:nonzero;stroke:none"
     sodipodi:nodetypes="ccsccccccccc" />
</svg>
