<svg width="200" height="200" viewBox="0 0 200 200" fill="none" xmlns="http://www.w3.org/2000/svg">
<rect width="200" height="200" rx="100" fill="#212121"/>
<path fill-rule="evenodd" clip-rule="evenodd" d="M139.422 110.688C137.698 112.853 138.515 115.236 142.866 111.929C162.604 96.9045 155.822 80.183 149.855 65.4718C146.421 57.0042 143.256 49.2027 145.575 42.774L132.33 38.001L97.9394 133.354C97.9394 133.354 94.4378 129.119 85.6432 125.95C71.9148 121.003 56.1151 124.828 51.0893 138.762C47.2257 149.475 54.0539 158.408 65.0273 162.362C86.6364 170.149 103.683 158.882 107.613 147.986L134.976 72.1624C152.466 81.7423 144.002 104.96 139.422 110.688ZM148.644 118.182L148.641 118.184C147.108 119.351 145.198 120.569 142.998 121.262C141.701 121.672 138.907 122.299 135.895 121.35C134.265 129.264 131.149 135.778 126.547 140.892C123.877 143.883 120.802 146.309 117.321 148.17L116.759 149.728L116.758 149.73C114.504 155.978 109.831 161.743 103.486 166.001C112.324 165.224 120.212 162.88 127.15 158.969C135.656 154.205 142.179 147.377 146.719 138.482C150.418 131.328 152.629 123.226 153.352 114.178C151.917 115.546 150.35 116.88 148.646 118.18L148.644 118.182ZM118.757 44.2869L114.077 57.2651C109.564 55.5128 104.439 54.6098 98.7012 54.5563H79.3905V112.761C73.8944 112.085 68.1784 112.421 62.8384 113.975V40.956H98.2701C105.682 40.956 112.511 42.0663 118.757 44.2869ZM146.981 115.201L146.961 115.226L146.961 115.226L146.981 115.201Z" fill="white"/>
</svg>
