<svg width="1000" height="1000" viewBox="0 0 1000 1000" fill="none" xmlns="http://www.w3.org/2000/svg">
<rect width="1000" height="1000" rx="500" fill="#212121"/>
<path fill-rule="evenodd" clip-rule="evenodd" d="M682.545 536.198C673.866 547.104 677.979 559.103 699.881 542.449C799.251 466.779 765.108 382.563 735.069 308.471C717.779 265.825 701.849 226.533 713.521 194.156L646.842 170.117L473.709 650.351C473.709 650.351 456.081 629.026 411.806 613.064C342.693 588.147 263.152 607.412 237.851 677.592C218.4 731.544 252.775 776.533 308.019 796.45C416.806 835.669 502.626 778.924 522.411 724.045L660.16 342.168C748.212 390.416 705.603 507.349 682.545 536.198ZM720.503 559.053L720.503 559.054C720.536 559.012 720.57 558.969 720.605 558.925L720.503 559.053ZM728.987 573.93C737.56 567.387 745.45 560.667 752.675 553.777C749.033 599.347 737.902 640.148 719.283 676.182C696.425 720.977 663.586 755.37 620.765 779.359C585.836 799.058 546.127 810.865 501.636 814.776C533.58 793.329 557.105 764.297 568.452 732.831L568.455 732.822L571.288 724.97C588.81 715.596 604.29 703.379 617.728 688.319C640.896 662.563 656.584 629.755 664.791 589.896C679.954 594.678 694.023 591.517 700.553 589.456C711.624 585.962 721.244 579.83 728.959 573.951L728.973 573.94L728.987 573.93ZM380.328 546.637C352.659 543.235 323.883 544.925 297 552.755V185H475.374C512.687 185 547.068 190.592 578.516 201.776L554.952 267.14C532.235 258.314 506.433 253.766 477.545 253.497H380.328V546.637Z" fill="white"/>
</svg>
