<svg width="16" height="16" viewBox="0 0 16 16" fill="none" xmlns="http://www.w3.org/2000/svg">
<path d="M0.5 2.75C0.5 2.15326 0.737053 1.58097 1.15901 1.15901C1.58097 0.737053 2.15326 0.5 2.75 0.5H13.25C13.8467 0.5 14.419 0.737053 14.841 1.15901C15.2629 1.58097 15.5 2.15326 15.5 2.75V13.25C15.5 13.8467 15.2629 14.419 14.841 14.841C14.419 15.2629 13.8467 15.5 13.25 15.5H2.75C2.15326 15.5 1.58097 15.2629 1.15901 14.841C0.737053 14.419 0.5 13.8467 0.5 13.25V2.75ZM12.281 6.281C12.4218 6.14017 12.5009 5.94916 12.5009 5.75C12.5009 5.55084 12.4218 5.35983 12.281 5.219C12.1402 5.07817 11.9492 4.99905 11.75 4.99905C11.5508 4.99905 11.3598 5.07817 11.219 5.219L6.5 9.9395L4.781 8.219C4.64017 8.07817 4.44916 7.99905 4.25 7.99905C4.05084 7.99905 3.85983 8.07817 3.719 8.219C3.57817 8.35983 3.49905 8.55084 3.49905 8.75C3.49905 8.94916 3.57817 9.14017 3.719 9.281L5.969 11.531C6.03867 11.6008 6.12143 11.6563 6.21255 11.6941C6.30367 11.7319 6.40135 11.7513 6.5 11.7513C6.59865 11.7513 6.69633 11.7319 6.78745 11.6941C6.87857 11.6563 6.96133 11.6008 7.031 11.531L12.281 6.281Z" fill="#FCE165"/>
</svg>
