<?xml version="1.0" encoding="UTF-8" standalone="no"?>
<svg
   width="16"
   height="16"
   viewBox="0 0 16 16"
   fill="none"
   version="1.1"
   id="svg4"
   sodipodi:docname="checkbox.svg"
   inkscape:version="1.1 (c4e8f9ed74, 2021-05-24)"
   xmlns:inkscape="http://www.inkscape.org/namespaces/inkscape"
   xmlns:sodipodi="http://sodipodi.sourceforge.net/DTD/sodipodi-0.dtd"
   xmlns="http://www.w3.org/2000/svg"
   xmlns:svg="http://www.w3.org/2000/svg">
  <defs
     id="defs8" />
  <sodipodi:namedview
     id="namedview6"
     pagecolor="#505050"
     bordercolor="#ffffff"
     borderopacity="1"
     inkscape:pageshadow="0"
     inkscape:pageopacity="0"
     inkscape:pagecheckerboard="1"
     showgrid="false"
     width="16px"
     inkscape:zoom="45.4375"
     inkscape:cx="7.8349381"
     inkscape:cy="7.7028886"
     inkscape:window-width="1872"
     inkscape:window-height="1022"
     inkscape:window-x="48"
     inkscape:window-y="34"
     inkscape:window-maximized="1"
     inkscape:current-layer="svg4" />
  <path
     d="M 0,2.4 C 0,1.76348 0.252856,1.15303 0.70294,0.702944 1.15303,0.252856 1.76348,0 2.4,0 h 11.2 c 0.6365,0 1.247,0.252856 1.6971,0.702944 C 15.7471,1.15303 16,1.76348 16,2.4 v 11.2 c 0,0.6365 -0.2529,1.247 -0.7029,1.6971 C 14.847,15.7471 14.2365,16 13.6,16 H 2.4 C 1.76348,16 1.15303,15.7471 0.70294,15.2971 0.252856,14.847 0,14.2365 0,13.6 Z M 12.5664,6.1664 C 12.7166,6.01618 12.801,5.81244 12.801,5.6 12.801,5.38756 12.7166,5.18382 12.5664,5.0336 12.4162,4.88338 12.2124,4.79899 12,4.79899 c -0.2124,0 -0.4162,0.08439 -0.5664,0.23461 L 6.4,10.0688 4.5664,8.2336 C 4.41618,8.08338 4.21244,7.99899 4,7.99899 3.78756,7.99899 3.58382,8.08338 3.4336,8.2336 3.28338,8.38382 3.19899,8.58756 3.19899,8.8 c 0,0.21244 0.08439,0.41618 0.23461,0.5664 l 2.4,2.4 c 0.07431,0.0745 0.16259,0.1336 0.25979,0.1739 0.09719,0.0404 0.20138,0.0611 0.30661,0.0611 0.10523,0 0.20942,-0.0207 0.30661,-0.0611 C 6.80381,11.9 6.89209,11.8409 6.9664,11.7664 Z"
     fill="#fce165"
     id="path2" />
</svg>
