<svg width="25" height="30" viewBox="0 0 25 30" fill="none" xmlns="http://www.w3.org/2000/svg">
<path fill-rule="evenodd" clip-rule="evenodd" d="M20.9496 17.036C20.5457 17.5435 20.7371 18.1019 21.7563 17.3269C26.3807 13.8055 24.7917 9.88641 23.3938 6.43847C22.5892 4.45389 21.8479 2.6254 22.3911 1.11869L19.2881 0L11.2311 22.3482C11.2311 22.3482 10.4108 21.3559 8.35041 20.613C5.13416 19.4535 1.43264 20.35 0.25521 23.6159C-0.649947 26.1267 0.94974 28.2203 3.52057 29.1471C8.5831 30.9723 12.5768 28.3316 13.4976 25.7777L19.9079 8.00657C24.0055 10.2519 22.0226 15.6935 20.9496 17.036ZM23.1103 18.7926L23.1097 18.7931C22.7507 19.0667 22.303 19.3521 21.7878 19.5147C21.4838 19.6106 20.8291 19.7577 20.1234 19.5351C19.7414 21.3898 19.0114 22.9165 17.9333 24.115C17.308 24.8157 16.5877 25.3842 15.7725 25.8204L15.6404 26.1864L15.6403 26.1868C15.1124 27.6509 14.0179 29.0017 12.5318 29.9997C14.6018 29.8176 16.4494 29.2682 18.0746 28.3516C20.0673 27.2352 21.5956 25.6347 22.6593 23.5501C23.5257 21.8734 24.0436 19.9749 24.2132 17.8545C23.877 18.1751 23.5099 18.4877 23.111 18.7922L23.1103 18.7926ZM16.1088 1.4732L15.0122 4.51496C13.955 4.10418 12.7542 3.89252 11.4097 3.87997H6.88563V17.522C5.59802 17.3637 4.25888 17.4424 3.00784 17.8068V0.692399H11.3087C13.0452 0.692399 14.6452 0.952666 16.1088 1.4732ZM22.7209 18.0939L22.7162 18.0999L22.7161 18.0999L22.7209 18.0939Z" fill="white"/>
</svg>
