<svg width="16" height="14" viewBox="0 0 16 14" fill="none" xmlns="http://www.w3.org/2000/svg">
<path d="M8 14C7.89473 14.0006 7.79037 13.9798 7.69292 13.9389C7.59546 13.8979 7.50682 13.8375 7.43208 13.7612L1.21691 7.35393C0.4373 6.54287 0 5.44787 0 4.30679C0 3.1657 0.4373 2.0707 1.21691 1.25965C2.00261 0.452986 3.06692 0 4.17651 0C5.2861 0 6.35041 0.452986 7.13612 1.25965L8 2.14908L8.86388 1.25965C9.64959 0.452986 10.7139 0 11.8235 0C12.9331 0 13.9974 0.452986 14.7831 1.25965C15.5627 2.0707 16 3.1657 16 4.30679C16 5.44787 15.5627 6.54287 14.7831 7.35393L8.56792 13.7612C8.49318 13.8375 8.40454 13.8979 8.30708 13.9389C8.20963 13.9798 8.10527 14.0006 8 14Z" fill="#C0C0C0"/>
</svg>
