<svg width="16" height="14" viewBox="0 0 16 14" fill="none" xmlns="http://www.w3.org/2000/svg">
<path d="M8 14C7.89473 14.0006 7.79037 13.9798 7.69292 13.9389C7.59546 13.8979 7.50682 13.8375 7.43208 13.7612L1.21691 7.35393C0.4373 6.54287 0 5.44787 0 4.30679C0 3.1657 0.4373 2.0707 1.21691 1.25965C2.00261 0.452986 3.06692 0 4.17651 0C5.2861 0 6.35041 0.452986 7.13612 1.25965L8 2.14908L8.86388 1.25965C9.64959 0.452986 10.7139 0 11.8235 0C12.9331 0 13.9974 0.452986 14.7831 1.25965C15.5627 2.0707 16 3.1657 16 4.30679C16 5.44787 15.5627 6.54287 14.7831 7.35393L8.56792 13.7612C8.49318 13.8375 8.40454 13.8979 8.30708 13.9389C8.20963 13.9798 8.10527 14.0006 8 14ZM4.17651 1.64671C3.8379 1.64514 3.50234 1.71275 3.18929 1.84563C2.87623 1.97852 2.5919 2.17403 2.35276 2.42085C1.86967 2.92085 1.59848 3.59742 1.59848 4.30267C1.59848 5.00792 1.86967 5.68449 2.35276 6.18448L8 12.007L13.6472 6.18448C14.1303 5.68449 14.4015 5.00792 14.4015 4.30267C14.4015 3.59742 14.1303 2.92085 13.6472 2.42085C13.1542 1.94131 12.5017 1.67414 11.8235 1.67414C11.1453 1.67414 10.4927 1.94131 9.99973 2.42085L8.56792 3.90325C8.49356 3.98044 8.40509 4.0417 8.30762 4.08351C8.21015 4.12532 8.10559 4.14685 8 4.14685C7.8944 4.14685 7.78985 4.12532 7.69238 4.08351C7.5949 4.0417 7.50644 3.98044 7.43208 3.90325L6.00027 2.42085C5.76112 2.17403 5.47679 1.97852 5.16373 1.84563C4.85068 1.71275 4.51512 1.64514 4.17651 1.64671Z" fill="#C0C0C0"/>
</svg>
