<svg width="80" height="29" viewBox="0 0 80 29" fill="none" xmlns="http://www.w3.org/2000/svg">
<path d="M75.5966 25.3289C77.5658 25.3289 78.9607 24.9805 80 24.2302V20.827C78.9333 21.5505 77.6479 22.0061 75.8427 22.0061C72.8068 22.0061 71.5487 19.7016 71.5487 16.0572C71.5487 12.2253 73.0803 10.2692 75.8701 10.2692C77.5111 10.2692 79.1248 10.8319 79.9727 11.3678V7.83069C79.0701 7.34836 77.5111 7 75.3778 7C69.935 7 67.118 10.8319 67.118 16.1912C67.1453 22.0597 69.9077 25.3289 75.5966 25.3289ZM48.9846 23.7747V20.3715C47.6718 21.2558 45.4291 22.0329 43.3778 22.0329C40.2598 22.0329 39.0838 20.5859 38.8923 17.6382H49.1761V15.4409C49.1761 9.30451 46.4137 7 42.1744 7C36.9778 7 34.5162 10.8855 34.5162 16.218C34.5162 22.3544 37.6068 25.3289 43.0222 25.3289C45.7299 25.3289 47.7265 24.6054 48.9846 23.7747ZM9.95556 7.32156V14.2887H4.26667V7.32156H0V24.9805H4.26667V17.6114H9.95556V24.9805H14.2222V7.32156H9.95556ZM33.4496 21.6577H31.5624V7.32156H19.1453V8.82217C19.1453 13.1364 18.8718 18.7101 17.3675 21.6577H16V29H19.9385V24.9805H29.4838V29H33.4222V21.6577H33.4496ZM62.5778 24.9805H67.4188L60.5812 15.4677L66.5983 7.32156H62.3043L56.2872 15.4677V7.32156H52.0205V24.9805H56.2872V16.2984L62.5778 24.9805ZM42.065 10.2692C44.1709 10.2692 44.8274 11.9842 44.8274 14.2083V14.5566H38.8923C39.0017 11.743 40.041 10.2692 42.065 10.2692ZM27.2957 21.6577H21.2786C22.4547 19.0049 22.7829 14.1815 22.7829 11.1267V10.5907H27.2957V21.6577Z" fill="black"/>
</svg>
