<svg width="83" height="25" viewBox="0 0 83 25" fill="none" xmlns="http://www.w3.org/2000/svg">
<path d="M40.878 24.875C42.7879 24.875 44.3528 23.9773 45.4669 22.3139L45.6791 24.5318H49.4457V0.875H45.3873V9.42946C44.3794 7.8981 42.8409 7.07962 41.0637 7.07962C37.138 7.07962 34.3794 10.38 34.3794 16.1093C34.3794 21.7331 37.0584 24.875 40.878 24.875ZM65.9178 23.3965V20.0961C64.6446 20.941 62.5226 21.7067 60.5332 21.7067C57.5624 21.7067 56.4218 20.3073 56.2627 17.4559H66.077V15.2908C66.077 9.32384 63.451 7.07962 59.3661 7.07962C54.4059 7.07962 52.0451 10.8552 52.0451 16.0301C52.0451 21.9971 54.9894 24.875 60.1884 24.875C62.7878 24.875 64.6977 24.2149 65.9178 23.3965ZM22.0717 12.2545C22.8409 11.3304 24.008 10.5648 25.4934 10.5648C26.9258 10.5648 27.5624 11.172 27.5624 12.4658V24.5582H31.6208V12.0433C31.6208 8.63738 30.268 7.13243 26.9258 7.13243C24.512 7.13243 23.0531 8.03012 22.2308 8.82219H22.0186L21.9125 7.39645H17.9338V24.5318H21.9921L22.0717 12.2545ZM14.6712 12.8618C14.6712 8.71658 12.5491 7.13243 8.22554 7.13243C5.5465 7.13243 3.39796 8.26774 2.1778 9.13903V12.6506C3.47754 11.5945 5.46692 10.38 7.74809 10.38C9.68443 10.38 10.5863 11.0664 10.5863 12.9146V13.9971H9.94968C3.71626 13.9971 0.957642 16.0037 0.957642 19.5945C0.957642 22.8948 3.07966 24.7958 6.23615 24.7958C8.62342 24.7958 9.6579 24.0037 10.4537 23.1852H10.6128C10.6393 23.6341 10.772 24.1885 10.9046 24.5318H14.8834C14.7507 23.1324 14.6712 21.7331 14.6712 20.3337V12.8618ZM78.4112 24.5582H83L77.3767 15.7397L82.2308 7.44926H78.1724L75.2282 12.6242L71.939 7.44926H67.3237L72.5226 15.6605L67.1115 24.5846H71.2494L74.6977 18.8024L78.4112 24.5582ZM42.0982 10.2743C44.2998 10.2743 45.3873 12.0169 45.3873 15.9509C45.3873 19.9377 44.2202 21.6803 41.9391 21.6803C39.7109 21.6803 38.6234 19.9905 38.6234 16.0829C38.5969 12.0433 39.764 10.2743 42.0982 10.2743ZM59.3131 10.2743C61.329 10.2743 61.939 11.9377 61.939 14.0763V14.4196H56.2627C56.3422 11.7001 57.3502 10.2743 59.3131 10.2743ZM10.6128 20.4658C10.1088 21.2314 9.1274 21.8123 7.69504 21.8123C5.99743 21.8123 5.1221 20.8354 5.1221 19.3304C5.1221 17.3502 6.52793 16.6638 10.0027 16.6638H10.5863L10.6128 20.4658Z" fill="black"/>
</svg>
