<svg width="20" height="20" viewBox="0 0 20 20" fill="none" xmlns="http://www.w3.org/2000/svg">
<path d="M8.75027 14C8.65527 14 8.5662 13.985 8.48308 13.9549C8.39995 13.9253 8.32277 13.8747 8.25151 13.8031L5.18775 10.7248C5.05712 10.5936 4.99466 10.4234 5.00036 10.2144C5.00653 10.0058 5.07493 9.83594 5.20556 9.7047C5.33618 9.57345 5.50244 9.50783 5.70431 9.50783C5.90619 9.50783 6.07244 9.57345 6.20306 9.7047L8.75027 12.264L14.7887 6.19687C14.9194 6.06562 15.0887 6 15.2968 6C15.5043 6 15.6734 6.06562 15.8041 6.19687C15.9347 6.32811 16 6.49802 16 6.70658C16 6.91562 15.9347 7.08576 15.8041 7.217L9.24902 13.8031C9.17777 13.8747 9.10058 13.9253 9.01746 13.9549C8.93433 13.985 8.84527 14 8.75027 14Z" fill="#DDDDDD"/>
</svg>
