<svg width="24" height="19" viewBox="0 0 24 19" fill="none" xmlns="http://www.w3.org/2000/svg">
<path d="M20.222 0.649141C20.6328 0.237686 21.1911 0.0043257 21.7749 5.95326e-05C22.3586 -0.00420664 22.9203 0.220968 23.3372 0.626374C23.7541 1.03178 23.9923 1.58445 23.9998 2.1636C24.0073 2.74275 23.7834 3.30129 23.3771 3.71715L11.6205 18.2998C11.4185 18.5156 11.1748 18.6888 10.9039 18.809C10.633 18.9292 10.3404 18.9941 10.0437 18.9996C9.74698 19.0052 9.45217 18.9513 9.17688 18.8413C8.90158 18.7313 8.65146 18.5674 8.44143 18.3594L0.646697 10.6283C0.232483 10.2172 -0.000140548 9.65955 6.37081e-08 9.07819C0.000140675 8.49683 0.233034 7.93933 0.647447 7.52835C1.06186 7.11736 1.62384 6.88655 2.20977 6.88669C2.7957 6.88683 3.35757 7.11791 3.77179 7.52909L9.93649 13.6472L20.1635 0.717584C20.1821 0.694057 20.2021 0.671696 20.2235 0.650629L20.222 0.649141Z" fill="white"/>
</svg>
