<svg width="14" height="14" viewBox="0 0 14 14" fill="none" xmlns="http://www.w3.org/2000/svg">
<path d="M10.6751 3.33096C10.6212 3.27689 10.5571 3.23398 10.4865 3.20471C10.4159 3.17544 10.3403 3.16037 10.2639 3.16037C10.1875 3.16037 10.1118 3.17544 10.0413 3.20471C9.9707 3.23398 9.9066 3.27689 9.85263 3.33096L7.00013 6.17763L4.14763 3.32513C4.09362 3.27112 4.02951 3.22828 3.95895 3.19906C3.88838 3.16983 3.81276 3.15479 3.73638 3.15479C3.66 3.15479 3.58438 3.16983 3.51381 3.19906C3.44325 3.22828 3.37914 3.27112 3.32513 3.32513C3.27112 3.37914 3.22828 3.44325 3.19906 3.51381C3.16983 3.58438 3.15479 3.66 3.15479 3.73638C3.15479 3.81276 3.16983 3.88838 3.19906 3.95895C3.22828 4.02951 3.27112 4.09362 3.32513 4.14763L6.17763 7.00013L3.32513 9.85263C3.27112 9.90664 3.22828 9.97075 3.19906 10.0413C3.16983 10.1119 3.15479 10.1875 3.15479 10.2639C3.15479 10.3403 3.16983 10.4159 3.19906 10.4864C3.22828 10.557 3.27112 10.6211 3.32513 10.6751C3.37914 10.7291 3.44325 10.772 3.51381 10.8012C3.58438 10.8304 3.66 10.8455 3.73638 10.8455C3.81276 10.8455 3.88838 10.8304 3.95895 10.8012C4.02951 10.772 4.09362 10.7291 4.14763 10.6751L7.00013 7.82263L9.85263 10.6751C9.90664 10.7291 9.97075 10.772 10.0413 10.8012C10.1119 10.8304 10.1875 10.8455 10.2639 10.8455C10.3403 10.8455 10.4159 10.8304 10.4864 10.8012C10.557 10.772 10.6211 10.7291 10.6751 10.6751C10.7291 10.6211 10.772 10.557 10.8012 10.4864C10.8304 10.4159 10.8455 10.3403 10.8455 10.2639C10.8455 10.1875 10.8304 10.1119 10.8012 10.0413C10.772 9.97075 10.7291 9.90664 10.6751 9.85263L7.82263 7.00013L10.6751 4.14763C10.8968 3.92596 10.8968 3.55263 10.6751 3.33096Z" fill="#707070"/>
</svg>
