<svg width="16" height="16" viewBox="0 0 16 16" fill="none" xmlns="http://www.w3.org/2000/svg">
<path fill-rule="evenodd" clip-rule="evenodd" d="M4 11.1113C3.75453 11.3568 3.75453 11.7547 4 12.0002C4.24546 12.2457 4.64343 12.2457 4.8889 12.0002L8.00008 8.88902L11.1112 12.0001C11.3567 12.2456 11.7546 12.2456 12.0001 12.0001C12.2456 11.7547 12.2456 11.3567 12.0001 11.1112L8.88898 8.00012L12.0001 4.889C12.2456 4.64354 12.2456 4.24556 12.0001 4.0001C11.7546 3.75464 11.3567 3.75464 11.1112 4.0001L8.00008 7.11122L4.88888 4.00002C4.64342 3.75455 4.24545 3.75455 3.99998 4.00002C3.75452 4.24548 3.75452 4.64345 3.99998 4.88892L7.11118 8.00012L4 11.1113Z" fill="#DDDDDD"/>
</svg>
