<svg width="8" height="8" viewBox="0 0 8 8" fill="none" xmlns="http://www.w3.org/2000/svg">
<path fill-rule="evenodd" clip-rule="evenodd" d="M7.00006 1L2.77783 0.999999L2.77783 1.77778H1.77783V0.999999C1.77783 0.447714 2.22555 0 2.77783 0H7.00006C7.55234 0 8.00005 0.447715 8.00005 1V5.22222C8.00005 5.77451 7.55234 6.22222 7.00005 6.22222H6.22228V5.22222L7.00005 5.22222L7.00006 1ZM1 3H5V7H1L1 3ZM0 3C0 2.44772 0.447715 2 1 2H5C5.55228 2 6 2.44772 6 3V7C6 7.55228 5.55228 8 5 8H1C0.447715 8 0 7.55228 0 7V3Z" fill="#C4C4C4"/>
</svg>
