<svg width="13" height="12" viewBox="0 0 13 12" fill="none" xmlns="http://www.w3.org/2000/svg">
<path d="M0.894701 3.52629H9.84171C10.3338 3.52629 10.7364 3.923 10.7364 4.40786C10.7364 4.89273 10.3338 5.28944 9.84171 5.28944H0.894701C0.402615 5.28944 0 4.89273 0 4.40786C0 3.923 0.402615 3.52629 0.894701 3.52629ZM0.894701 0H9.84171C10.3338 0 10.7364 0.396708 10.7364 0.881573C10.7364 1.36644 10.3338 1.76315 9.84171 1.76315H0.894701C0.402615 1.76315 0 1.36644 0 0.881573C0 0.396708 0.402615 0 0.894701 0ZM0.894701 7.05258H6.2629C6.75499 7.05258 7.1576 7.44929 7.1576 7.93415C7.1576 8.41902 6.75499 8.81573 6.2629 8.81573H0.894701C0.402615 8.81573 0 8.41902 0 7.93415C0 7.44929 0.402615 7.05258 0.894701 7.05258ZM8.94701 7.82836V11.5574C8.94701 11.9012 9.32278 12.1128 9.62698 11.9365L12.7853 10.0676C13.0716 9.90006 13.0716 9.48572 12.7853 9.30941L9.62698 7.44047C9.55793 7.4016 9.47973 7.38126 9.40021 7.38149C9.32068 7.38171 9.24261 7.40249 9.17379 7.44175C9.10496 7.48101 9.0478 7.53738 9.008 7.60522C8.96821 7.67306 8.94718 7.75001 8.94701 7.82836V7.82836Z" fill="#DDDDDD"/>
</svg>
