<svg width="15" height="13" viewBox="0 0 15 13" fill="none" xmlns="http://www.w3.org/2000/svg">
<path fill-rule="evenodd" clip-rule="evenodd" d="M11.8603 0.0317268C11.9464 0.0592233 12.0264 0.103911 12.0958 0.16324C12.7991 0.734963 13.3705 1.46011 13.7689 2.28647C14.1673 3.11282 14.3827 4.01984 14.3997 4.94221C14.3827 5.86458 14.1673 6.77159 13.7689 7.59795C13.3705 8.42431 12.7991 9.14946 12.0958 9.72118C11.9557 9.841 11.7752 9.89864 11.5939 9.88143C11.4126 9.86422 11.2453 9.77357 11.1289 9.62941C11.0125 9.48525 10.9565 9.2994 10.9733 9.11274C10.99 8.92608 11.078 8.75391 11.2181 8.63409C11.7655 8.19413 12.2117 7.63501 12.5246 6.99676C12.8376 6.3585 13.0096 5.65691 13.0283 4.94221C13.0096 4.22751 12.8376 3.52592 12.5246 2.88766C12.2117 2.24941 11.7655 1.69029 11.2181 1.25033C11.1487 1.191 11.0914 1.1182 11.0494 1.03607C11.0074 0.953941 10.9815 0.8641 10.9733 0.771675C10.965 0.679251 10.9745 0.586053 11.0012 0.497403C11.0279 0.408753 11.0713 0.326387 11.1289 0.255007C11.1866 0.183628 11.2573 0.124633 11.3371 0.0813909C11.4168 0.0381489 11.5041 0.0115064 11.5939 0.00298505C11.6837 -0.00553635 11.7742 0.0042302 11.8603 0.0317268ZM7.19986 2.8245C6.71406 2.82375 6.24367 3.00003 5.87202 3.32211C5.50037 3.64418 5.25143 4.09127 5.1693 4.58419C5.08717 5.07711 5.17715 5.58405 5.4233 6.01522C5.66945 6.44639 6.05588 6.77396 6.51416 6.93992C6.51085 6.97985 6.51085 7.01999 6.51416 7.05992V11.2953C6.51416 11.4826 6.5864 11.6621 6.715 11.7945C6.84359 11.9269 7.018 12.0013 7.19986 12.0013C7.38172 12.0013 7.55613 11.9269 7.68472 11.7945C7.81332 11.6621 7.88556 11.4826 7.88556 11.2953V7.05992C7.88887 7.01999 7.88887 6.97985 7.88556 6.93992C8.34384 6.77396 8.73027 6.44639 8.97642 6.01522C9.22257 5.58405 9.31255 5.07711 9.23042 4.58419C9.14829 4.09127 8.89935 3.64418 8.5277 3.32211C8.15605 3.00003 7.68566 2.82375 7.19986 2.8245ZM1.3714 4.94221C1.39013 4.22751 1.56213 3.52592 1.87509 2.88766C2.18805 2.24941 2.63422 1.69029 3.18165 1.25033C3.32168 1.13051 3.40974 0.958337 3.42646 0.771677C3.44318 0.585018 3.38718 0.399167 3.27079 0.255009C3.21316 0.18363 3.14244 0.124635 3.06266 0.0813929C2.98289 0.0381509 2.89562 0.0115084 2.80584 0.00298703C2.62452 -0.0142227 2.44399 0.0434227 2.30396 0.163242C1.60066 0.734965 1.02924 1.46011 0.630852 2.28647C0.232462 3.11283 0.0170072 4.01984 0 4.94221C0.0170072 5.86458 0.232462 6.7716 0.630852 7.59796C1.02924 8.42431 1.60066 9.14946 2.30396 9.72118C2.37329 9.78051 2.4533 9.8252 2.53941 9.85269C2.62553 9.88019 2.71606 9.88996 2.80584 9.88144C2.89562 9.87291 2.98289 9.84627 3.06266 9.80303C3.14244 9.75979 3.21316 9.70079 3.27079 9.62941C3.32842 9.55803 3.37183 9.47567 3.39854 9.38702C3.42525 9.29837 3.43474 9.20517 3.42646 9.11275C3.41818 9.02032 3.3923 8.93048 3.3503 8.84835C3.3083 8.76622 3.25099 8.69342 3.18165 8.63409C2.63422 8.19413 2.18805 7.63501 1.87509 6.99676C1.56213 6.35851 1.39013 5.65691 1.3714 4.94221ZM10.3815 1.58209C10.2412 1.48613 10.0716 1.44667 9.90483 1.47124C9.7381 1.49581 9.58599 1.5827 9.4775 1.71532C9.36901 1.84795 9.31173 2.01704 9.31658 2.19036C9.32144 2.36368 9.38808 2.52909 9.50381 2.65506C9.84267 2.92811 10.1191 3.27452 10.3134 3.66976C10.5077 4.065 10.6153 4.49941 10.6284 4.94219C10.6153 5.38498 10.5077 5.81938 10.3134 6.21462C10.1191 6.60987 9.84267 6.95628 9.50381 7.22932C9.39771 7.32272 9.32182 7.44722 9.2863 7.58621C9.25077 7.72519 9.2573 7.87202 9.30501 8.00708C9.35272 8.14214 9.43933 8.25899 9.55328 8.34202C9.66722 8.42505 9.80307 8.47029 9.94266 8.47171C10.1037 8.47006 10.2591 8.41008 10.3815 8.3023C10.8763 7.90067 11.2781 7.39085 11.558 6.80973C11.8378 6.22861 11.9887 5.59072 11.9998 4.94219C11.9887 4.29367 11.8378 3.65577 11.558 3.07465C11.2781 2.49353 10.8763 1.98372 10.3815 1.58209ZM4.97819 1.6668C4.86114 1.52556 4.69476 1.43747 4.51508 1.42162C4.3354 1.40576 4.15689 1.46342 4.0182 1.58209C3.52346 1.98372 3.12162 2.49353 2.84175 3.07465C2.56187 3.65577 2.41097 4.29367 2.39995 4.94219C2.41097 5.59072 2.56187 6.22861 2.84175 6.80973C3.12162 7.39085 3.52346 7.90067 4.0182 8.3023C4.15689 8.42097 4.3354 8.47862 4.51508 8.46277C4.69476 8.44691 4.86114 8.35883 4.97819 8.21759C5.09346 8.07482 5.14947 7.89104 5.13407 7.70607C5.11866 7.52109 5.0331 7.34981 4.8959 7.22932C4.55704 6.95628 4.28066 6.60987 4.08632 6.21462C3.89199 5.81938 3.78446 5.38498 3.77135 4.94219C3.78446 4.49941 3.89199 4.065 4.08632 3.66976C4.28066 3.27452 4.55704 2.92811 4.8959 2.65506C5.0331 2.53457 5.11866 2.36329 5.13407 2.17832C5.14947 1.99334 5.09346 1.80957 4.97819 1.6668Z" fill="#DDDDDD"/>
</svg>
