<svg width="12" height="12" viewBox="0 0 12 12" fill="none" xmlns="http://www.w3.org/2000/svg">
<path d="M10.8 3.6H1.2V2.4H10.8V3.6ZM9.6 0H2.4V1.2H9.6V0ZM12 6V10.8C12 11.1183 11.8736 11.4235 11.6485 11.6485C11.4235 11.8736 11.1183 12 10.8 12H1.2C0.88174 12 0.576515 11.8736 0.351472 11.6485C0.126428 11.4235 0 11.1183 0 10.8V6C0 5.68174 0.126428 5.37652 0.351472 5.15147C0.576515 4.92643 0.88174 4.8 1.2 4.8H10.8C11.1183 4.8 11.4235 4.92643 11.6485 5.15147C11.8736 5.37652 12 5.68174 12 6ZM8.4 8.4L4.8 6.438V10.356L8.4 8.4Z" fill="#DDDDDD"/>
</svg>
