<svg width="23" height="21" viewBox="0 0 23 21" fill="none" xmlns="http://www.w3.org/2000/svg">
<path d="M22.4108 14.2781L22.6748 12.7806L18.66 12.1441V9.03666V8.86444L22.5894 7.8461L22.1933 6.40095L18.4425 7.36688C18.1871 6.43604 17.7278 5.56878 17.0956 4.82351C16.4633 4.07824 15.6728 3.47227 14.7772 3.0464V0.800049H13.224V2.46984C12.2023 2.24019 11.1395 2.24019 10.1178 2.46984V0.800049H8.56467V3.0464C7.66635 3.4771 6.87472 4.08924 6.24359 4.84121C5.61246 5.59318 5.15662 6.46736 4.90707 7.40432L1.15627 6.40095L0.799055 7.8461L4.68186 8.86444V12.1441L0.674805 12.7806L0.923305 14.2781L4.68186 13.6641C4.6996 14.5881 4.91646 15.4985 5.31865 16.3373L1.80082 19.7368L2.90354 20.8L6.15733 17.6552C6.81084 18.4641 7.64717 19.1185 8.60264 19.5687C9.5581 20.0188 10.6075 20.2528 11.6709 20.2528C12.7343 20.2528 13.7837 20.0188 14.7392 19.5687C15.6947 19.1185 16.531 18.4641 17.1845 17.6552L20.4383 20.8L21.541 19.7368L18.0154 16.3373C18.4203 15.499 18.6398 14.5887 18.66 13.6641L22.4108 14.2781ZM10.8944 18.7109C9.6017 18.531 8.41942 17.9084 7.56383 16.9569C6.70823 16.0054 6.23652 14.7887 6.23499 13.5294V9.03666H10.8944V18.7109ZM6.46019 7.5391C6.79389 6.45633 7.48142 5.50647 8.42037 4.83102C9.35932 4.15557 10.4995 3.79066 11.6709 3.79066C12.8424 3.79066 13.9825 4.15557 14.9215 4.83102C15.8604 5.50647 16.548 6.45633 16.8817 7.5391H6.46019ZM17.1069 13.5294C17.1053 14.7887 16.6336 16.0054 15.778 16.9569C14.9224 17.9084 13.7401 18.531 12.4475 18.7109V9.03666H17.1069V13.5294Z" fill="#C1C1C1"/>
</svg>
