<svg width="13" height="13" viewBox="0 0 13 13" fill="none" xmlns="http://www.w3.org/2000/svg">
<path d="M6.5 0C10.0906 0 13 2.91005 13 6.5C13 10.0899 10.0906 13 6.5 13C2.9107 13 0 10.0899 0 6.5C0 2.91005 2.9107 0 6.5 0V0ZM6.5 0.975C5.03468 0.975 3.62937 1.5571 2.59324 2.59324C1.5571 3.62937 0.975 5.03468 0.975 6.5C0.975 7.96532 1.5571 9.37063 2.59324 10.4068C3.62937 11.4429 5.03468 12.025 6.5 12.025C7.96532 12.025 9.37063 11.4429 10.4068 10.4068C11.4429 9.37063 12.025 7.96532 12.025 6.5C12.025 5.03468 11.4429 3.62937 10.4068 2.59324C9.37063 1.5571 7.96532 0.975 6.5 0.975V0.975ZM3.7375 6.0125H9.2625C9.38524 6.01365 9.50303 6.06106 9.59235 6.14526C9.68166 6.22947 9.73592 6.34427 9.7443 6.46673C9.75267 6.58919 9.71453 6.7103 9.63751 6.80588C9.56049 6.90145 9.45024 6.96446 9.3288 6.9823L9.2625 6.98685H3.7375C3.61398 6.98681 3.49509 6.93989 3.40484 6.85557C3.31458 6.77124 3.2597 6.65581 3.25128 6.53258C3.24286 6.40935 3.28153 6.28752 3.35948 6.19171C3.43743 6.09589 3.54884 6.03324 3.6712 6.0164L3.7375 6.01185H9.2625H3.7375V6.0125Z" fill="#C1C1C1"/>
</svg>
