<svg width="18" height="18" viewBox="0 0 18 18" fill="none" xmlns="http://www.w3.org/2000/svg">
<path d="M9 0C13.9716 0 18 4.0293 18 9C18 13.9707 13.9716 18 9 18C4.0302 18 0 13.9707 0 9C0 4.0293 4.0302 0 9 0V0ZM9 1.35C6.97109 1.35 5.02529 2.15598 3.59063 3.59063C2.15598 5.02529 1.35 6.97109 1.35 9C1.35 11.0289 2.15598 12.9747 3.59063 14.4094C5.02529 15.844 6.97109 16.65 9 16.65C11.0289 16.65 12.9747 15.844 14.4094 14.4094C15.844 12.9747 16.65 11.0289 16.65 9C16.65 6.97109 15.844 5.02529 14.4094 3.59063C12.9747 2.15598 11.0289 1.35 9 1.35V1.35ZM5.175 8.325H12.825C12.995 8.32659 13.158 8.39224 13.2817 8.50883C13.4054 8.62542 13.4805 8.78437 13.4921 8.95393C13.5037 9.12349 13.4509 9.29119 13.3442 9.42353C13.2376 9.55586 13.085 9.64309 12.9168 9.6678L12.825 9.6741H5.175C5.00398 9.67405 4.83935 9.60908 4.71439 9.49232C4.58942 9.37557 4.51343 9.21573 4.50178 9.04511C4.49012 8.87448 4.54366 8.7058 4.65159 8.57313C4.75951 8.44046 4.91377 8.35371 5.0832 8.3304L5.175 8.3241H12.825H5.175V8.325Z" fill="#C1C1C1"/>
</svg>
