<svg width="12" height="12" viewBox="0 0 12 12" fill="none" xmlns="http://www.w3.org/2000/svg">
<path d="M0.823965 0L11.5291 10.9805L10.7057 11.825L8.52382 9.5871L6.17654 12L1.23857 6.92813C0.664621 6.26777 0.34911 5.413 0.352765 4.52836C0.35642 3.64371 0.678984 2.79172 1.25837 2.13637L0 0.845113L0.823965 0ZM2.08874 6.10989L6.17654 10.3092L7.70044 8.74258L2.08408 2.98208C1.7182 3.41696 1.5173 3.97247 1.51816 4.54688C1.51901 5.12129 1.72157 5.67616 2.08874 6.10989ZM10.9765 2.00916C11.6073 2.6561 11.973 3.52603 11.9986 4.44062C12.0241 5.35522 11.7076 6.2452 11.1139 6.92813L10.1618 7.90524L9.33847 7.06072L10.2643 6.10989C10.6512 5.65334 10.8547 5.06325 10.8338 4.45877C10.813 3.85429 10.5693 3.28044 10.1519 2.85308C9.73128 2.42193 9.1657 2.17226 8.57123 2.15526C7.97677 2.13827 7.39851 2.35525 6.95508 2.7617L6.1777 3.4772L5.39974 2.76229C5.20161 2.57951 4.97404 2.4334 4.72717 2.33048L3.41698 0.986661C3.91209 0.923323 4.41468 0.969668 4.89084 1.12257C5.36699 1.27547 5.80562 1.53137 6.17712 1.87298C6.84244 1.26211 7.71062 0.935817 8.60324 0.961143C9.49586 0.98647 10.3451 1.3615 10.9765 2.00916Z" fill="#575757"/>
</svg>
