<?xml version="1.0" encoding="UTF-8" standalone="no"?>
<svg
   width="14"
   height="18"
   viewBox="0 0 14 18"
   fill="none"
   version="1.1"
   id="svg4"
   sodipodi:docname="download.svg"
   inkscape:version="1.1.1 (3bf5ae0d25, 2021-09-20, custom)"
   xmlns:inkscape="http://www.inkscape.org/namespaces/inkscape"
   xmlns:sodipodi="http://sodipodi.sourceforge.net/DTD/sodipodi-0.dtd"
   xmlns="http://www.w3.org/2000/svg"
   xmlns:svg="http://www.w3.org/2000/svg">
  <defs
     id="defs8" />
  <sodipodi:namedview
     id="namedview6"
     pagecolor="#505050"
     bordercolor="#ffffff"
     borderopacity="1"
     inkscape:pageshadow="0"
     inkscape:pageopacity="0"
     inkscape:pagecheckerboard="1"
     showgrid="false"
     inkscape:snap-page="false"
     inkscape:zoom="35.277778"
     inkscape:cx="2.4519685"
     inkscape:cy="8.9999999"
     inkscape:window-width="1920"
     inkscape:window-height="1012"
     inkscape:window-x="0"
     inkscape:window-y="0"
     inkscape:window-maximized="1"
     inkscape:current-layer="svg4"
     width="14px" />
  <path
     d="m 7,7.1720846 v 2.7418693 2.7419091 m 0,0 L 4.331889,9.9139539 M 7,12.655863 9.668111,9.9139539 m 1.778778,7.3116411 H 2.5531446 c -0.4717534,0 -0.9241848,-0.192582 -1.2577637,-0.535384 C 0.96180193,16.34741 0.77440006,15.882458 0.77440006,15.397661 V 2.6023128 c 0,-0.4847961 0.18740187,-0.9497275 0.52098084,-1.2925293 C 1.6289598,0.96698183 2.0813912,0.77440006 2.5531446,0.77440006 h 4.9680288 c 0.2358596,5.142e-5 0.46203,0.0963729 0.6287854,0.26778424 L 12.96503,5.9903439 c 0.166734,0.1713598 0.26057,0.4037843 0.26057,0.6461618 v 8.7611553 c 0,0.484797 -0.187447,0.949749 -0.521026,1.29255 -0.333579,0.342802 -0.786011,0.535384 -1.257685,0.535384 z"
     stroke="#c1c1c1"
     stroke-width="1.41517"
     stroke-linecap="round"
     stroke-linejoin="round"
     id="path2"
     style="stroke-width:1.5488;stroke-miterlimit:4;stroke-dasharray:none" />
</svg>
