<?xml version="1.0" encoding="UTF-8" standalone="no"?>
<svg
   width="14"
   height="18"
   viewBox="0 0 14 18"
   fill="none"
   version="1.1"
   id="svg4"
   sodipodi:docname="downloaded.svg"
   inkscape:version="1.1.1 (3bf5ae0d25, 2021-09-20, custom)"
   xmlns:inkscape="http://www.inkscape.org/namespaces/inkscape"
   xmlns:sodipodi="http://sodipodi.sourceforge.net/DTD/sodipodi-0.dtd"
   xmlns="http://www.w3.org/2000/svg"
   xmlns:svg="http://www.w3.org/2000/svg">
  <defs
     id="defs8" />
  <sodipodi:namedview
     id="namedview6"
     pagecolor="#505050"
     bordercolor="#ffffff"
     borderopacity="1"
     inkscape:pageshadow="0"
     inkscape:pageopacity="0"
     inkscape:pagecheckerboard="1"
     showgrid="false"
     inkscape:zoom="35.277778"
     inkscape:cx="6.5055118"
     inkscape:cy="8.9999999"
     inkscape:window-width="1920"
     inkscape:window-height="1012"
     inkscape:window-x="0"
     inkscape:window-y="0"
     inkscape:window-maximized="1"
     inkscape:current-layer="svg4" />
  <path
     d="M 4.6363981,9.9999886 6.4090995,12.124964 9.3636019,7.8750365 M 11.642727,17.499922 H 2.3571756 c -0.4925276,0 -0.9648933,-0.199005 -1.3131699,-0.553237 C 0.69572893,16.592451 0.50006998,16.111996 0.50006998,15.611033 V 2.3889391 c 0,-0.500963 0.19565895,-0.9813986 0.54393572,-1.3356319 C 1.3922823,0.69907387 1.864648,0.50006998 2.3571756,0.50006998 h 5.1869241 c 0.246252,5.312e-5 0.4823996,0.0995975 0.6564906,0.27672473 L 13.227759,5.889952 c 0.174198,0.1770742 0.272051,0.41726 0.272167,0.6677204 v 9.0533606 c 0,0.500963 -0.195706,0.981418 -0.543981,1.335652 -0.348278,0.354232 -0.820643,0.553237 -1.313218,0.553237 z"
     stroke="#fce165"
     stroke-width="1.45814"
     stroke-linecap="round"
     stroke-linejoin="round"
     id="path2"
     style="stroke-width:1.00014;stroke-miterlimit:4;stroke-dasharray:none"
     sodipodi:nodetypes="cccsssssssccccsss" />
</svg>
