<svg width="13" height="18" viewBox="0 0 13 18" fill="none" xmlns="http://www.w3.org/2000/svg">
<path d="M6.5 7.22222V12.5556V7.22222ZM6.5 12.5556L4.14286 9.88889L6.5 12.5556ZM6.5 12.5556L8.85714 9.88889L6.5 12.5556ZM10.4286 17H2.57143C2.15466 17 1.75496 16.8127 1.46026 16.4793C1.16556 16.1459 1 15.6937 1 15.2222V2.77778C1 2.30628 1.16556 1.8541 1.46026 1.5207C1.75496 1.1873 2.15466 1 2.57143 1H6.96043C7.1688 1.00005 7.36861 1.09373 7.51593 1.26044L11.7698 6.07289C11.9171 6.23955 12 6.4656 12 6.70133V15.2222C12 15.6937 11.8344 16.1459 11.5397 16.4793C11.245 16.8127 10.8453 17 10.4286 17Z" stroke="#C1C1C1" stroke-width="1.4" stroke-linecap="round" stroke-linejoin="round"/>
</svg>
