<?xml version="1.0" encoding="UTF-8" standalone="no"?>
<svg
   width="13"
   height="18"
   viewBox="0 0 13 18"
   fill="none"
   version="1.1"
   id="svg4"
   sodipodi:docname="downloaded.svg"
   inkscape:version="1.1.1 (3bf5ae0d25, 2021-09-20, custom)"
   xmlns:inkscape="http://www.inkscape.org/namespaces/inkscape"
   xmlns:sodipodi="http://sodipodi.sourceforge.net/DTD/sodipodi-0.dtd"
   xmlns="http://www.w3.org/2000/svg"
   xmlns:svg="http://www.w3.org/2000/svg">
  <defs
     id="defs8" />
  <sodipodi:namedview
     id="namedview6"
     pagecolor="#505050"
     bordercolor="#ffffff"
     borderopacity="1"
     inkscape:pageshadow="0"
     inkscape:pageopacity="0"
     inkscape:pagecheckerboard="1"
     showgrid="false"
     inkscape:zoom="35.277778"
     inkscape:cx="6.5055118"
     inkscape:cy="8.9999999"
     inkscape:window-width="1920"
     inkscape:window-height="1012"
     inkscape:window-x="0"
     inkscape:window-y="0"
     inkscape:window-maximized="1"
     inkscape:current-layer="svg4" />
  <path
     d="M 4.4408039,10.282535 6.0146876,12.350261 8.6378274,8.2148296 M 10.622023,17.270932 H 2.3778934 c -0.437288,0 -0.8566755,-0.193643 -1.1658912,-0.538332 C 0.90278648,16.38791 0.72907168,15.920397 0.72907168,15.432931 V 2.5670528 c 0,-0.4874665 0.1737148,-0.9549586 0.48293052,-1.2996487 C 1.5212179,0.92271423 1.9406054,0.72907168 2.3778934,0.72907168 h 4.605184 c 0.2186334,5.17e-5 0.4282958,0.0969143 0.5828617,0.26926963 L 12.029285,5.9737453 c 0.15466,0.1723036 0.241539,0.4060186 0.241643,0.6497312 v 8.8094545 c 0,0.487466 -0.173757,0.954979 -0.482972,1.299669 -0.309216,0.344689 -0.728604,0.538332 -1.165933,0.538332 z"
     stroke="#fce165"
     stroke-width="1.45814"
     stroke-linecap="round"
     stroke-linejoin="round"
     id="path2"
     style="stroke-width:1.5;stroke-miterlimit:4;stroke-dasharray:none" />
</svg>
