<svg width="14" height="18" viewBox="0 0 14 18" fill="none" xmlns="http://www.w3.org/2000/svg">
<path d="M7.1748 7.02227V12.3556V7.02227ZM7.1748 12.3556L4.81766 9.68894L7.1748 12.3556ZM7.1748 12.3556L9.53195 9.68894L7.1748 12.3556ZM11.1034 16.8H3.24623C2.82946 16.8 2.42977 16.6127 2.13507 16.2793C1.84037 15.946 1.6748 15.4938 1.6748 15.0223V2.57783C1.6748 2.10633 1.84037 1.65415 2.13507 1.32075C2.42977 0.98735 2.82946 0.800049 3.24623 0.800049H7.63523C7.8436 0.800099 8.04342 0.893783 8.19073 1.06049L12.4446 5.87294C12.592 6.0396 12.6748 6.26565 12.6748 6.50138V15.0223C12.6748 15.4938 12.5092 15.946 12.2145 16.2793C11.9198 16.6127 11.5201 16.8 11.1034 16.8Z" stroke="#C1C1C1" stroke-width="1.4" stroke-linecap="round" stroke-linejoin="round"/>
</svg>
