<?xml version="1.0" encoding="UTF-8" standalone="no"?>
<svg
   width="14"
   height="18"
   viewBox="0 0 14 18"
   fill="none"
   version="1.1"
   id="svg4"
   sodipodi:docname="downloaded.svg"
   inkscape:version="1.1.1 (3bf5ae0d25, 2021-09-20, custom)"
   xmlns:inkscape="http://www.inkscape.org/namespaces/inkscape"
   xmlns:sodipodi="http://sodipodi.sourceforge.net/DTD/sodipodi-0.dtd"
   xmlns="http://www.w3.org/2000/svg"
   xmlns:svg="http://www.w3.org/2000/svg">
  <defs
     id="defs8" />
  <sodipodi:namedview
     id="namedview6"
     pagecolor="#505050"
     bordercolor="#ffffff"
     borderopacity="1"
     inkscape:pageshadow="0"
     inkscape:pageopacity="0"
     inkscape:pagecheckerboard="1"
     showgrid="false"
     inkscape:zoom="35.277778"
     inkscape:cx="6.5055118"
     inkscape:cy="8.9999999"
     inkscape:window-width="1920"
     inkscape:window-height="1012"
     inkscape:window-x="0"
     inkscape:window-y="0"
     inkscape:window-maximized="1"
     inkscape:current-layer="svg4" />
  <path
     d="M 4.7793541,10.275162 6.4766373,12.331005 9.3054429,8.2193412 M 11.445208,17.223396 H 2.5547022 c -0.4715733,0 -0.9238427,-0.19253 -1.2573022,-0.535238 C 0.9639404,16.345449 0.77660559,15.880623 0.77660559,15.395959 V 2.6040234 C 0.77660559,2.1193585 0.9639404,1.6545531 1.2974,1.3118441 1.6308595,0.96913523 2.0831289,0.77660559 2.5547022,0.77660559 h 4.9662509 c 0.2357752,5.139e-5 0.4618762,0.0963573 0.6285607,0.26772201 l 4.8132922,4.9468093 c 0.166786,0.1713134 0.260476,0.4036851 0.260588,0.6459971 v 8.758825 c 0,0.484664 -0.18738,0.94949 -0.520838,1.292199 -0.333461,0.342708 -0.785731,0.535238 -1.257348,0.535238 z"
     stroke="#fce165"
     stroke-width="1.45814"
     stroke-linecap="round"
     stroke-linejoin="round"
     id="path2"
     style="stroke-width:1.55321;stroke-miterlimit:4;stroke-dasharray:none" />
</svg>
