<?xml version="1.0" encoding="UTF-8" standalone="no"?>
<svg
   width="14"
   height="18"
   viewBox="0 0 14 18"
   fill="none"
   version="1.1"
   id="svg4"
   sodipodi:docname="download.svg"
   inkscape:version="1.1.1 (3bf5ae0d25, 2021-09-20, custom)"
   xmlns:inkscape="http://www.inkscape.org/namespaces/inkscape"
   xmlns:sodipodi="http://sodipodi.sourceforge.net/DTD/sodipodi-0.dtd"
   xmlns="http://www.w3.org/2000/svg"
   xmlns:svg="http://www.w3.org/2000/svg">
  <defs
     id="defs8" />
  <sodipodi:namedview
     id="namedview6"
     pagecolor="#505050"
     bordercolor="#ffffff"
     borderopacity="1"
     inkscape:pageshadow="0"
     inkscape:pageopacity="0"
     inkscape:pagecheckerboard="1"
     showgrid="false"
     inkscape:snap-page="false"
     inkscape:zoom="22.627417"
     inkscape:cx="5.1486212"
     inkscape:cy="10.672893"
     inkscape:window-width="1920"
     inkscape:window-height="1012"
     inkscape:window-x="0"
     inkscape:window-y="0"
     inkscape:window-maximized="1"
     inkscape:current-layer="svg4"
     width="14px" />
  <path
     d="m 7.0000025,7.1666649 v 2.8333149 2.8333552 m 0,0 -2.785682,-2.8333553 M 7.0000025,12.833335 9.7856852,9.9999798 M 11.642844,17.499937 H 2.3571951 c -0.492541,0 -0.964909,-0.199005 -1.3131871,-0.553239 C 0.69572975,16.592463 0.50006998,16.112003 0.50006998,15.61104 V 2.3889463 c 0,-0.5009648 0.19565977,-0.9814023 0.54393802,-1.335637 C 1.3922861,0.69907463 1.8646541,0.50006998 2.3571951,0.50006998 h 5.1869463 c 0.2462529,5.312e-5 0.4823895,0.0995871 0.6564931,0.27671529 L 13.227882,5.8899734 c 0.174082,0.1770751 0.272053,0.4172511 0.272053,0.6677122 V 15.61104 c 0,0.500963 -0.195707,0.981423 -0.543986,1.335658 -0.348277,0.354234 -0.820645,0.553239 -1.313105,0.553239 z"
     stroke="#c1c1c1"
     stroke-width="1.41517"
     stroke-linecap="round"
     stroke-linejoin="round"
     id="path2"
     style="stroke-width:1.00014;stroke-miterlimit:4;stroke-dasharray:none"
     sodipodi:nodetypes="cccccccssssssscccssss" />
</svg>
