<?xml version="1.0" encoding="UTF-8" standalone="no"?>
<svg
   xmlns:dc="http://purl.org/dc/elements/1.1/"
   xmlns:cc="http://creativecommons.org/ns#"
   xmlns:rdf="http://www.w3.org/1999/02/22-rdf-syntax-ns#"
   xmlns:svg="http://www.w3.org/2000/svg"
   xmlns="http://www.w3.org/2000/svg"
   xmlns:sodipodi="http://sodipodi.sourceforge.net/DTD/sodipodi-0.dtd"
   xmlns:inkscape="http://www.inkscape.org/namespaces/inkscape"
   width="13"
   height="12"
   viewBox="0 0 13 12"
   fill="none"
   version="1.1"
   id="svg4"
   sodipodi:docname="like.svg"
   inkscape:version="1.0.2 (e86c870879, 2021-01-15)">
  <metadata
     id="metadata10">
    <rdf:RDF>
      <cc:Work
         rdf:about="">
        <dc:format>image/svg+xml</dc:format>
        <dc:type
           rdf:resource="http://purl.org/dc/dcmitype/StillImage" />
        <dc:title></dc:title>
      </cc:Work>
    </rdf:RDF>
  </metadata>
  <defs
     id="defs8" />
  <sodipodi:namedview
     pagecolor="#ffffff"
     bordercolor="#666666"
     borderopacity="1"
     objecttolerance="10"
     gridtolerance="10"
     guidetolerance="10"
     inkscape:pageopacity="0"
     inkscape:pageshadow="2"
     inkscape:window-width="1920"
     inkscape:window-height="1020"
     id="namedview6"
     showgrid="false"
     inkscape:zoom="29.663129"
     inkscape:cx="6.3311504"
     inkscape:cy="5.6378659"
     inkscape:window-x="0"
     inkscape:window-y="32"
     inkscape:window-maximized="1"
     inkscape:current-layer="svg4"
     inkscape:document-rotation="0" />
  <path
     d="M 6.5,10.99999 C 6.4276292,11.0004 6.3558817,10.9856 6.2888825,10.95632 6.2218742,10.92705 6.1609342,10.88392 6.109555,10.8294 L 1.8366233,6.2528 C 1.3006437,5.67348 1,4.89134 1,4.07628 1,3.26121 1.3006437,2.47907 1.8366233,1.899747 2.3767967,1.323561 3.1085075,1 3.8713483,1 4.6341892,1 5.3659092,1.323561 5.9060825,1.899747 L 6.5,2.53506 7.0939175,1.899747 C 7.6340908,1.323561 8.3658108,1 9.1286517,1 9.8914925,1 10.623167,1.323561 11.163358,1.899747 11.699333,2.47907 12,3.26121 12,4.07628 12,4.89134 11.699333,5.67348 11.163358,6.2528 L 6.890445,10.8294 C 6.8390658,10.88392 6.7781258,10.92705 6.7111175,10.95632 6.6441183,10.9856 6.5723708,11.0004 6.5,10.99999 Z M 3.8713483,2.17622 C 3.6385517,2.1751 3.4078633,2.22339 3.1926392,2.31831 2.977415,2.41322 2.7819358,2.55288 2.6175225,2.72918 2.2853958,3.08632 2.098955,3.56958 2.098955,4.07333 c 0,0.50375 0.1864408,0.98702 0.5185675,1.34416 L 6.5,9.57642 10.38245,5.41749 c 0.332108,-0.35714 0.518558,-0.84041 0.518558,-1.34416 0,-0.50375 -0.18645,-0.98701 -0.518558,-1.34415 C 10.04354,2.38665 9.5949325,2.19581 9.1286517,2.19581 c -0.4662809,0 -0.9148975,0.19084 -1.253835,0.53337 L 6.890445,3.78803 C 6.8393225,3.84317 6.7785017,3.88693 6.7114933,3.9168 6.6444758,3.94666 6.5726,3.96204 6.5,3.96204 6.4274,3.96204 6.3555242,3.94666 6.2885067,3.9168 6.2214983,3.88693 6.1606775,3.84317 6.109555,3.78803 L 5.1251833,2.72918 C 4.96077,2.55288 4.7652908,2.41322 4.5500667,2.31831 4.3348425,2.22339 4.104145,2.1751 3.8713483,2.17622 Z"
     fill="#c0c0c0"
     id="path2"
     style="stroke-width:0.957427" />
</svg>
