<?xml version="1.0" encoding="UTF-8" standalone="no"?>
<svg
   xmlns:dc="http://purl.org/dc/elements/1.1/"
   xmlns:cc="http://creativecommons.org/ns#"
   xmlns:rdf="http://www.w3.org/1999/02/22-rdf-syntax-ns#"
   xmlns:svg="http://www.w3.org/2000/svg"
   xmlns="http://www.w3.org/2000/svg"
   xmlns:sodipodi="http://sodipodi.sourceforge.net/DTD/sodipodi-0.dtd"
   xmlns:inkscape="http://www.inkscape.org/namespaces/inkscape"
   width="14"
   height="12"
   viewBox="0 0 14 12"
   fill="none"
   version="1.1"
   id="svg4"
   sodipodi:docname="like.svg"
   inkscape:version="1.0.2 (e86c870879, 2021-01-15)">
  <metadata
     id="metadata10">
    <rdf:RDF>
      <cc:Work
         rdf:about="">
        <dc:format>image/svg+xml</dc:format>
        <dc:type
           rdf:resource="http://purl.org/dc/dcmitype/StillImage" />
        <dc:title></dc:title>
      </cc:Work>
    </rdf:RDF>
  </metadata>
  <defs
     id="defs8" />
  <sodipodi:namedview
     pagecolor="#ffffff"
     bordercolor="#666666"
     borderopacity="1"
     objecttolerance="10"
     gridtolerance="10"
     guidetolerance="10"
     inkscape:pageopacity="0"
     inkscape:pageshadow="2"
     inkscape:window-width="1920"
     inkscape:window-height="1020"
     id="namedview6"
     showgrid="false"
     inkscape:zoom="29.663129"
     inkscape:cx="6.3311504"
     inkscape:cy="5.6378659"
     inkscape:window-x="0"
     inkscape:window-y="32"
     inkscape:window-maximized="1"
     inkscape:current-layer="svg4" />
  <path
     d="M 7,10.99999 C 6.92105,11.0004 6.84278,10.9856 6.76969,10.95632 6.69659,10.92705 6.63011,10.88392 6.57406,10.8294 L 1.91268,6.2528 C 1.327975,5.67348 1,4.89134 1,4.07628 1,3.26121 1.327975,2.47907 1.91268,1.899747 2.50196,1.323561 3.30019,1 4.13238,1 4.96457,1 5.76281,1.323561 6.35209,1.899747 L 7,2.53506 7.64791,1.899747 C 8.23719,1.323561 9.03543,1 9.86762,1 10.69981,1 11.498,1.323561 12.0873,1.899747 12.672,2.47907 13,3.26121 13,4.07628 13,4.89134 12.672,5.67348 12.0873,6.2528 L 7.42594,10.8294 C 7.36989,10.88392 7.30341,10.92705 7.23031,10.95632 7.15722,10.9856 7.07895,11.0004 7,10.99999 Z M 4.13238,2.17622 C 3.87842,2.1751 3.62676,2.22339 3.39197,2.31831 3.15718,2.41322 2.94393,2.55288 2.76457,2.72918 2.40225,3.08632 2.19886,3.56958 2.19886,4.07333 c 0,0.50375 0.20339,0.98702 0.56571,1.34416 L 7,9.57642 11.2354,5.41749 c 0.3623,-0.35714 0.5657,-0.84041 0.5657,-1.34416 0,-0.50375 -0.2034,-0.98701 -0.5657,-1.34415 C 10.86568,2.38665 10.37629,2.19581 9.86762,2.19581 9.35895,2.19581 8.86955,2.38665 8.4998,2.72918 L 7.42594,3.78803 C 7.37017,3.84317 7.30382,3.88693 7.23072,3.9168 7.15761,3.94666 7.0792,3.96204 7,3.96204 6.9208,3.96204 6.84239,3.94666 6.76928,3.9168 6.69618,3.88693 6.62983,3.84317 6.57406,3.78803 L 5.5002,2.72918 C 5.32084,2.55288 5.10759,2.41322 4.8728,2.31831 4.63801,2.22339 4.38634,2.1751 4.13238,2.17622 Z"
     fill="#c0c0c0"
     id="path2" />
</svg>
