<?xml version="1.0" encoding="UTF-8" standalone="no"?>
<svg
   xmlns:dc="http://purl.org/dc/elements/1.1/"
   xmlns:cc="http://creativecommons.org/ns#"
   xmlns:rdf="http://www.w3.org/1999/02/22-rdf-syntax-ns#"
   xmlns:svg="http://www.w3.org/2000/svg"
   xmlns="http://www.w3.org/2000/svg"
   xmlns:sodipodi="http://sodipodi.sourceforge.net/DTD/sodipodi-0.dtd"
   xmlns:inkscape="http://www.inkscape.org/namespaces/inkscape"
   width="13"
   height="12"
   viewBox="0 0 13 12"
   fill="none"
   version="1.1"
   id="svg4"
   sodipodi:docname="liked.svg"
   inkscape:version="1.0.2 (e86c870879, 2021-01-15)">
  <metadata
     id="metadata10">
    <rdf:RDF>
      <cc:Work
         rdf:about="">
        <dc:format>image/svg+xml</dc:format>
        <dc:type
           rdf:resource="http://purl.org/dc/dcmitype/StillImage" />
        <dc:title></dc:title>
      </cc:Work>
    </rdf:RDF>
  </metadata>
  <defs
     id="defs8" />
  <sodipodi:namedview
     pagecolor="#ffffff"
     bordercolor="#666666"
     borderopacity="1"
     objecttolerance="10"
     gridtolerance="10"
     guidetolerance="10"
     inkscape:pageopacity="0"
     inkscape:pageshadow="2"
     inkscape:window-width="1920"
     inkscape:window-height="1020"
     id="namedview6"
     showgrid="false"
     inkscape:zoom="41.95"
     inkscape:cx="5.646783"
     inkscape:cy="5.1277348"
     inkscape:window-x="0"
     inkscape:window-y="32"
     inkscape:window-maximized="1"
     inkscape:current-layer="svg4"
     inkscape:document-rotation="0" />
  <path
     d="M 6.5,10.99999 C 6.4276292,11.0004 6.3558817,10.9856 6.2888825,10.95632 6.2218742,10.92705 6.1609342,10.88392 6.109555,10.8294 L 1.8366233,6.2528 C 1.3006437,5.67348 1,4.89134 1,4.07628 1,3.26121 1.3006437,2.47907 1.8366233,1.899747 2.3767967,1.323561 3.1085075,1 3.8713483,1 4.6341892,1 5.3659092,1.323561 5.9060825,1.899747 L 6.5,2.53506 7.0939175,1.899747 C 7.6340908,1.323561 8.3658108,1 9.1286517,1 9.8914925,1 10.623167,1.323561 11.163358,1.899747 11.699333,2.47907 12,3.26121 12,4.07628 12,4.89134 11.699333,5.67348 11.163358,6.2528 L 6.890445,10.8294 C 6.8390658,10.88392 6.7781258,10.92705 6.7111175,10.95632 6.6441183,10.9856 6.5723708,11.0004 6.5,10.99999 Z"
     fill="#c1c1c1"
     id="path2"
     style="stroke-width:0.957427" />
</svg>
