<svg width="17" height="16" viewBox="0 0 17 16" fill="none" xmlns="http://www.w3.org/2000/svg">
<path d="M3.99553 2.08163L3.9955 2.08166L2.93656 3.14514H10.5088C11.814 3.14514 13.0657 3.66632 13.9885 4.59388C14.9113 5.52141 15.4296 6.77931 15.4296 8.09082C15.4296 8.25997 15.3628 8.4223 15.2436 8.54206C15.1244 8.66184 14.9627 8.72923 14.794 8.72923C14.6252 8.72923 14.4635 8.66184 14.3443 8.54206C14.2252 8.4223 14.1583 8.25997 14.1583 8.09082C14.1583 7.11761 13.7737 6.18437 13.0892 5.49636C12.4048 4.80837 11.4765 4.42196 10.5088 4.42196H2.93656L3.9955 5.48543L3.99553 5.48546C4.05459 5.54483 4.10142 5.61528 4.13335 5.69278C4.16529 5.77028 4.18172 5.85333 4.18172 5.93718C4.18172 6.02104 4.16529 6.10408 4.13335 6.18158C4.10142 6.25909 4.05459 6.32954 3.99553 6.38891C3.93646 6.44828 3.86632 6.4954 3.78908 6.52755C3.71184 6.55971 3.62903 6.57627 3.5454 6.57627C3.46176 6.57627 3.37896 6.55971 3.30172 6.52755C3.22448 6.4954 3.15433 6.44828 3.09527 6.38891L0.952774 4.23536L0.952685 4.23527L1.02358 4.16474C0.973694 4.11473 0.934118 4.05531 0.907114 3.9899C0.880111 3.92449 0.866211 3.85437 0.866211 3.78355C0.866211 3.71273 0.880111 3.6426 0.907114 3.57719C0.934118 3.51178 0.973694 3.45237 1.02358 3.40235L3.16616 1.24872C3.21596 1.19866 3.27509 1.15895 3.34016 1.13186C3.40523 1.10476 3.47497 1.09082 3.5454 1.09082C3.61583 1.09082 3.68557 1.10476 3.75064 1.13186C3.81571 1.15895 3.87483 1.19866 3.92464 1.24872C3.97444 1.29878 4.01394 1.3582 4.0409 1.42361C4.06785 1.48901 4.08172 1.55912 4.08172 1.62991C4.08172 1.7007 4.06785 1.7708 4.0409 1.83621C4.01394 1.90162 3.97444 1.96104 3.92464 2.0111L3.99553 2.08163ZM3.99553 2.08163C4.05459 2.02226 4.10142 1.95181 4.13335 1.87431C4.16529 1.79681 4.18172 1.71376 4.18172 1.62991C4.18172 1.54605 4.16529 1.46301 4.13335 1.38551C4.10142 1.30801 4.05459 1.23756 3.99553 1.17819C3.93646 1.11882 3.86632 1.0717 3.78908 1.03954C3.71184 1.00738 3.62903 0.99082 3.5454 0.99082C3.46176 0.99082 3.37896 1.00738 3.30172 1.03954C3.22448 1.0717 3.15433 1.11882 3.09527 1.17819L0.952774 3.33173L3.99553 2.08163ZM12.7369 14.1L12.7369 14.1L13.7959 13.0365H6.22363C4.91838 13.0365 3.6667 12.5153 2.74391 11.5878C1.82113 10.6602 1.30281 9.40233 1.30281 8.09082C1.30281 7.92167 1.36966 7.75934 1.48881 7.63958C1.60798 7.5198 1.76971 7.45241 1.93846 7.45241C2.10721 7.45241 2.26894 7.5198 2.38811 7.63958C2.50726 7.75934 2.57411 7.92167 2.57411 8.09082C2.57411 9.06403 2.95873 9.99727 3.64321 10.6853C4.32767 11.3733 5.25588 11.7597 6.22363 11.7597H13.7959L12.7369 10.6962L12.7369 10.6962C12.6176 10.5763 12.5507 10.4138 12.5507 10.2445C12.5507 10.0751 12.6176 9.91263 12.7369 9.79274C12.8562 9.67283 13.0181 9.60537 13.187 9.60537C13.356 9.60537 13.5179 9.67283 13.6372 9.79274L15.7796 11.9463M12.7369 14.1L15.7796 11.9463M12.7369 14.1C12.6176 14.2199 12.5507 14.3824 12.5507 14.5517C12.5507 14.7211 12.6176 14.8836 12.7369 15.0035C12.8562 15.1234 13.0181 15.1908 13.187 15.1908C13.356 15.1908 13.5179 15.1234 13.6372 15.0035L15.7796 12.8499M12.7369 14.1L15.7796 12.8499M15.7796 11.9463L15.7797 11.9464M15.7796 11.9463C15.7797 11.9463 15.7797 11.9463 15.7797 11.9464M15.7797 11.9464C15.8389 12.0057 15.8858 12.0761 15.9177 12.1536C15.9497 12.2311 15.9662 12.3142 15.9662 12.3981C15.9662 12.482 15.9497 12.5651 15.9177 12.6426C15.8857 12.7201 15.8388 12.7906 15.7796 12.8499M15.7797 11.9464L15.7796 12.8499" fill="#C1C1C1" stroke="#C1C1C1" stroke-width="0.2"/>
</svg>
