<svg width="17" height="16" viewBox="0 0 17 16" fill="none" xmlns="http://www.w3.org/2000/svg">
<path d="M4.12932 1.99081L4.12929 1.99084L3.07035 3.05432H10.6426C11.9478 3.05432 13.1995 3.5755 14.1223 4.50306C15.0451 5.43059 15.5634 6.68849 15.5634 8C15.5634 8.16915 15.4966 8.33148 15.3774 8.45124C15.2582 8.57102 15.0965 8.63841 14.9278 8.63841C14.759 8.63841 14.5973 8.57102 14.4781 8.45124C14.359 8.33148 14.2921 8.16915 14.2921 8C14.2921 7.02679 13.9075 6.09355 13.223 5.40554C12.5385 4.71755 11.6103 4.33114 10.6426 4.33114H3.07035L4.12929 5.39461L4.12932 5.39464C4.18838 5.45401 4.2352 5.52446 4.26714 5.60196C4.29908 5.67946 4.31551 5.76251 4.31551 5.84636C4.31551 5.93022 4.29908 6.01327 4.26714 6.09076C4.2352 6.16827 4.18838 6.23872 4.12932 6.29809C4.07025 6.35746 4.0001 6.40458 3.92287 6.43674C3.84563 6.46889 3.76282 6.48545 3.67919 6.48545C3.59555 6.48545 3.51275 6.46889 3.43551 6.43674C3.35827 6.40458 3.28812 6.35746 3.22906 6.29809L1.08656 4.14454L1.08647 4.14445L1.15737 4.07392C1.10748 4.02391 1.06791 3.96449 1.0409 3.89908C1.0139 3.83367 1 3.76355 1 3.69273C1 3.62191 1.0139 3.55178 1.0409 3.48637C1.06791 3.42096 1.10748 3.36155 1.15737 3.31153L4.12932 1.99081ZM4.12932 1.99081C4.18838 1.93144 4.2352 1.86099 4.26714 1.78349C4.29908 1.70599 4.31551 1.62294 4.31551 1.53909C4.31551 1.45523 4.29908 1.37219 4.26714 1.29469C4.2352 1.21719 4.18838 1.14674 4.12932 1.08737C4.07025 1.028 4.0001 0.980876 3.92287 0.948718C3.84563 0.916559 3.76282 0.9 3.67919 0.9C3.59555 0.9 3.51275 0.916559 3.43551 0.948718C3.35827 0.980876 3.28812 1.028 3.22906 1.08737L1.08656 3.24091L4.12932 1.99081ZM12.8707 10.6054L12.8707 10.6054C12.7514 10.4855 12.6845 10.323 12.6845 10.1536C12.6845 9.98431 12.7514 9.82181 12.8707 9.70192C12.99 9.58201 13.1519 9.51455 13.3208 9.51455C13.4897 9.51455 13.6517 9.58201 13.7709 9.70192L15.9134 11.8555L15.9135 11.8556M12.8707 10.6054L15.8426 12.6885C15.8925 12.6385 15.9321 12.579 15.9591 12.5136C15.9861 12.4482 16 12.3781 16 12.3073C16 12.2365 15.9861 12.1663 15.9591 12.1009C15.9321 12.0355 15.8925 11.9761 15.8426 11.9261L15.9135 11.8556M12.8707 10.6054L13.9297 11.6689H6.35742C5.38967 11.6689 4.46146 11.2825 3.777 10.5945C3.09252 9.90646 2.7079 8.97321 2.7079 8C2.7079 7.83085 2.64105 7.66852 2.5219 7.54876C2.40273 7.42898 2.241 7.36159 2.07225 7.36159C1.9035 7.36159 1.74176 7.42898 1.6226 7.54876C1.50345 7.66852 1.4366 7.83085 1.4366 8C1.4366 9.31151 1.95492 10.5694 2.87769 11.4969C3.80049 12.4245 5.05217 12.9457 6.35742 12.9457H13.9297L12.8707 14.0092L12.8707 14.0092C12.7514 14.1291 12.6845 14.2916 12.6845 14.4609C12.6845 14.6302 12.7514 14.7927 12.8707 14.9126C12.99 15.0325 13.1519 15.1 13.3208 15.1C13.4897 15.1 13.6517 15.0325 13.7709 14.9126L15.9134 12.7591L15.9135 12.759M12.8707 10.6054L15.9135 12.759M15.9135 11.8556C15.9727 11.9149 16.0195 11.9853 16.0515 12.0628C16.0835 12.1403 16.1 12.2234 16.1 12.3073C16.1 12.3912 16.0835 12.4743 16.0515 12.5518C16.0195 12.6293 15.9727 12.6997 15.9135 12.759M15.9135 11.8556V12.759M8.2826 9.1688C8.99261 9.1688 9.56989 8.59864 9.56989 7.89324C9.56989 7.18783 8.99261 6.61767 8.2826 6.61767C7.57259 6.61767 6.99531 7.18783 6.99531 7.89324C6.99531 8.59864 7.57259 9.1688 8.2826 9.1688Z" fill="#C1C1C1" stroke="#C1C1C1" stroke-width="0.2"/>
</svg>
