<svg id="Слой_1" data-name="Слой 1" xmlns="http://www.w3.org/2000/svg" viewBox="0 0 13.9 14.09"><defs><style>.cls-1{fill:#c1c1c1;stroke:#c1c1c1;stroke-width:0.2px;}</style></defs><path class="cls-1" d="M12.9,11.44H5.83a3.3,3.3,0,0,1-2.4-1.07,3.84,3.84,0,0,1-1-2.6.66.66,0,0,0-.17-.45.57.57,0,0,0-.85,0,.67.67,0,0,0-.18.45,5.13,5.13,0,0,0,1.35,3.49,4.43,4.43,0,0,0,3.25,1.45H12.9l-1,1.07h0a.65.65,0,0,0,0,.9.57.57,0,0,0,.42.19.59.59,0,0,0,.43-.19l2-2.15a.74.74,0,0,0,.13-.21.67.67,0,0,0,0-.24.69.69,0,0,0,0-.25.86.86,0,0,0-.13-.2l-2-2.16a.59.59,0,0,0-.43-.19.57.57,0,0,0-.42.19.64.64,0,0,0-.18.45.63.63,0,0,0,.18.45h0Z" transform="translate(-1.13 -0.88)"/><circle class="cls-1" cx="6.95" cy="6.89" r="1.1"/><path class="cls-1" d="M3.27,4.41h7.06a3.26,3.26,0,0,1,2.4,1.08,3.79,3.79,0,0,1,1,2.59.63.63,0,0,0,.18.45.57.57,0,0,0,.42.19.59.59,0,0,0,.43-.19.66.66,0,0,0,.17-.45,5.14,5.14,0,0,0-1.34-3.49,4.43,4.43,0,0,0-3.26-1.45H3.27l1-1.07h0a.68.68,0,0,0,0-.9.57.57,0,0,0-.85,0l-2,2.16a.63.63,0,0,0-.13.2.7.7,0,0,0-.05.25A.69.69,0,0,0,1.28,4a.53.53,0,0,0,.13.2l2,2.16a.57.57,0,0,0,.85,0,.68.68,0,0,0,0-.9h0Z" transform="translate(-1.13 -0.88)"/></svg>