<svg width="11" height="12" viewBox="0 0 11 12" fill="none" xmlns="http://www.w3.org/2000/svg">
<path fill-rule="evenodd" clip-rule="evenodd" d="M10.7575 0.509423C10.8649 0.616753 10.9252 0.762324 10.9252 0.914111V10.4527C10.9252 10.6045 10.8649 10.7501 10.7575 10.8574C10.6502 10.9647 10.5046 11.025 10.3528 11.025C10.2011 11.025 10.0555 10.9647 9.94815 10.8574C9.84083 10.7501 9.78053 10.6045 9.78053 10.4527V0.914111C9.78053 0.762324 9.84083 0.616753 9.94815 0.509423C10.0555 0.402093 10.2011 0.341797 10.3528 0.341797C10.5046 0.341797 10.6502 0.402093 10.7575 0.509423ZM0.377814 0.921568C0.289105 1.06963 0.242231 1.23898 0.242188 1.41158V9.95664C0.242093 10.1293 0.288866 10.2988 0.37752 10.4469C0.466174 10.5951 0.593382 10.7164 0.745578 10.798C0.897774 10.8795 1.06925 10.9182 1.24172 10.9099C1.41418 10.9017 1.58117 10.8467 1.72487 10.751L8.13328 6.47772C8.26392 6.39061 8.37103 6.2726 8.44512 6.13416C8.5192 5.99571 8.55796 5.84113 8.55796 5.68411C8.55796 5.52709 8.5192 5.3725 8.44512 5.23406C8.37103 5.09562 8.26392 4.97761 8.13328 4.8905L1.72487 0.617966C1.58122 0.522277 1.4143 0.467357 1.24191 0.459059C1.06951 0.450761 0.898086 0.489396 0.745915 0.570847C0.593743 0.652297 0.466524 0.773511 0.377814 0.921568Z" fill="#C1C1C1"/>
</svg>
