<svg width="700" height="700" viewBox="0 0 700 700" fill="none" xmlns="http://www.w3.org/2000/svg">
<rect width="700" height="700" fill="#505050"/>
<path fill-rule="evenodd" clip-rule="evenodd" d="M490.311 380.787C483.655 388.586 486.809 397.166 503.609 385.257C579.832 331.145 553.642 270.921 530.6 217.938C517.338 187.441 505.119 159.344 514.072 136.19L462.925 119L330.123 462.418C330.123 462.418 316.601 447.169 282.64 435.754C229.626 417.936 168.614 431.712 149.207 481.899C134.287 520.48 160.655 552.652 203.029 566.894C286.475 594.941 352.304 554.362 367.48 515.117L473.141 242.034C540.682 276.537 507.999 360.157 490.311 380.787ZM525.925 407.776L525.914 407.784C519.996 411.988 512.617 416.373 504.125 418.872C499.116 420.346 488.324 422.607 476.694 419.187C470.398 447.69 458.365 471.152 440.593 489.57C430.285 500.34 418.411 509.076 404.971 515.779L402.798 521.394L402.796 521.4C394.092 543.902 376.047 564.663 351.545 580C385.671 577.203 416.131 568.76 442.923 554.673C475.769 537.518 500.958 512.924 518.492 480.89C532.774 455.122 541.311 425.945 544.105 393.358C538.563 398.285 532.511 403.09 525.935 407.769L525.925 407.776ZM410.516 141.64L392.44 188.382C375.016 182.07 355.224 178.818 333.065 178.625H258.495V388.252C237.271 385.819 215.198 387.028 194.577 392.627V129.643H331.4C360.022 129.643 386.393 133.642 410.516 141.64ZM519.459 397.094L519.428 397.131L519.427 397.131L519.459 397.094Z" fill="white"/>
</svg>
