<svg width="10" height="9" viewBox="0 0 10 9" fill="none" xmlns="http://www.w3.org/2000/svg">
<path d="M5.61797 2.75H5.618H9C9.0663 2.75 9.12989 2.77634 9.17678 2.82322C9.22366 2.87011 9.25 2.9337 9.25 3V8C9.25 8.0663 9.22366 8.12989 9.17678 8.17678C9.12989 8.22366 9.0663 8.25 9 8.25H1C0.933696 8.25 0.870108 8.22366 0.823223 8.17678C0.776339 8.12989 0.75 8.0663 0.75 8V1C0.75 0.933696 0.776339 0.870107 0.823223 0.823223C0.870107 0.776339 0.933696 0.75 1 0.75L3.3815 0.75L3.38185 0.75C3.42831 0.749978 3.47385 0.762903 3.51337 0.787322C3.5529 0.811743 3.58483 0.846692 3.6056 0.88825L3.60568 0.88841L4.0526 1.78225C4.05263 1.7823 4.05265 1.78236 4.05268 1.78241C4.19798 2.07311 4.42137 2.31762 4.6978 2.48851C4.97429 2.65944 5.29292 2.74999 5.61797 2.75Z" stroke="#C5C5C5" stroke-width="1.5" stroke-linecap="round" stroke-linejoin="round"/>
</svg>
