<?xml version="1.0" encoding="UTF-8" standalone="no"?>
<svg
   width="16"
   height="14"
   viewBox="0 0 16 14"
   fill="none"
   version="1.1"
   id="svg4"
   sodipodi:docname="open-folder.svg"
   inkscape:version="1.1.1 (3bf5ae0d25, 2021-09-20, custom)"
   xmlns:inkscape="http://www.inkscape.org/namespaces/inkscape"
   xmlns:sodipodi="http://sodipodi.sourceforge.net/DTD/sodipodi-0.dtd"
   xmlns="http://www.w3.org/2000/svg"
   xmlns:svg="http://www.w3.org/2000/svg">
  <defs
     id="defs8" />
  <sodipodi:namedview
     id="namedview6"
     pagecolor="#505050"
     bordercolor="#ffffff"
     borderopacity="1"
     inkscape:pageshadow="0"
     inkscape:pageopacity="0"
     inkscape:pagecheckerboard="1"
     showgrid="false"
     inkscape:zoom="32"
     inkscape:cx="6.328125"
     inkscape:cy="5.078125"
     inkscape:window-width="1920"
     inkscape:window-height="1012"
     inkscape:window-x="0"
     inkscape:window-y="0"
     inkscape:window-maximized="1"
     inkscape:current-layer="svg4"
     inkscape:snap-object-midpoints="true"
     inkscape:snap-text-baseline="true"
     inkscape:snap-center="true"
     inkscape:snap-page="true"
     inkscape:snap-midpoints="true"
     inkscape:snap-smooth-nodes="true"
     inkscape:snap-intersection-paths="true"
     inkscape:object-paths="true" />
  <path
     d="m 8.9654299,4.0145809 h 3.24e-5 5.2833507 c 0.459259,0 0.751011,0.3531531 0.751011,0.7246121 v 7.536063 c 0,0 -0.02728,0.724569 -0.751011,0.724569 H 1.7512268 c 0,0 -0.7510518,-0.0119 -0.7510518,-0.724569 V 1.7247867 c 0,0 -0.0129659,-0.7246116 0.7510518,-0.7246116 h 3.7203799 3.788e-4 c 0.4506512,0.0024 0.6722846,0.4008821 0.672198,0.4007154 l 8.66e-5,1.667e-4 0.6982087,1.3472687 c 3.25e-5,5.23e-5 6.49e-5,1.147e-4 8.63e-5,1.668e-4 0.4369695,0.7568534 1.032009,1.2660882 2.1228648,1.2660882 z"
     stroke="#c5c5c5"
     stroke-width="1.63813"
     stroke-linecap="round"
     stroke-linejoin="round"
     id="path2"
     sodipodi:nodetypes="ccccccccccccccccc"
     style="stroke-width:2.00035;stroke-miterlimit:4;stroke-dasharray:none" />
</svg>
