<svg width="13" height="14" viewBox="0 0 13 14" fill="none" xmlns="http://www.w3.org/2000/svg">
<path d="M2.4375 0C3.08397 0 3.70395 0.245833 4.16107 0.683418C4.61819 1.121 4.875 1.71449 4.875 2.33333V11.6667C4.875 12.2855 4.61819 12.879 4.16107 13.3166C3.70395 13.7542 3.08397 14 2.4375 14C1.79103 14 1.17105 13.7542 0.713927 13.3166C0.256807 12.879 1.36232e-08 12.2855 0 11.6667V2.33333C0 1.71449 0.256807 1.121 0.713927 0.683418C1.17105 0.245833 1.79103 0 2.4375 0V0ZM10.5625 0C11.209 0 11.829 0.245833 12.2861 0.683418C12.7432 1.121 13 1.71449 13 2.33333V11.6667C13 12.2855 12.7432 12.879 12.2861 13.3166C11.829 13.7542 11.209 14 10.5625 14C9.91603 14 9.29605 13.7542 8.83893 13.3166C8.38181 12.879 8.125 12.2855 8.125 11.6667V2.33333C8.125 1.71449 8.38181 1.121 8.83893 0.683418C9.29605 0.245833 9.91603 0 10.5625 0Z" fill="#C1C1C1"/>
</svg>
