<svg width="11" height="12" viewBox="0 0 11 12" fill="none" xmlns="http://www.w3.org/2000/svg">
<path fill-rule="evenodd" clip-rule="evenodd" d="M0.173975 0.509423C0.0666447 0.616753 0.00634766 0.762324 0.00634766 0.914111V10.4527C0.00634766 10.6045 0.0666447 10.7501 0.173975 10.8574C0.281305 10.9647 0.426876 11.025 0.578664 11.025C0.730452 11.025 0.876022 10.9647 0.983353 10.8574C1.09068 10.7501 1.15098 10.6045 1.15098 10.4527V0.914111C1.15098 0.762324 1.09068 0.616753 0.983353 0.509423C0.876022 0.402093 0.730452 0.341797 0.578664 0.341797C0.426876 0.341797 0.281305 0.402093 0.173975 0.509423ZM10.5538 0.921568C10.6425 1.06963 10.6894 1.23898 10.6895 1.41158V9.95664C10.6895 10.1293 10.6428 10.2988 10.5541 10.4469C10.4655 10.5951 10.3383 10.7164 10.1861 10.798C10.0339 10.8795 9.86239 10.9182 9.68993 10.9099C9.51746 10.9017 9.35047 10.8467 9.20677 10.751L2.79836 6.47772C2.66772 6.39061 2.56061 6.2726 2.48652 6.13416C2.41244 5.99571 2.37368 5.84113 2.37368 5.68411C2.37368 5.52709 2.41244 5.3725 2.48652 5.23406C2.56061 5.09562 2.66772 4.97761 2.79836 4.8905L9.20677 0.617966C9.35042 0.522277 9.51734 0.467357 9.68973 0.459059C9.86213 0.450761 10.0336 0.489396 10.1857 0.570847C10.3379 0.652297 10.4651 0.773511 10.5538 0.921568Z" fill="#C1C1C1"/>
</svg>
