<svg width="20" height="20" viewBox="0 0 20 20" fill="none" xmlns="http://www.w3.org/2000/svg">
<path fill-rule="evenodd" clip-rule="evenodd" d="M9.99985 6.74604C9.52754 6.74531 9.07023 6.91669 8.7089 7.22982C8.34757 7.54295 8.10555 7.97762 8.0257 8.45685C7.94585 8.93607 8.03333 9.42893 8.27264 9.84812C8.51195 10.2673 8.88765 10.5858 9.3332 10.7471C9.32998 10.786 9.32998 10.825 9.3332 10.8638V14.9816C9.3332 15.1636 9.40344 15.3381 9.52846 15.4669C9.65348 15.5956 9.82304 15.6679 9.99985 15.6679C10.1767 15.6679 10.3462 15.5956 10.4712 15.4669C10.5963 15.3381 10.6665 15.1636 10.6665 14.9816V10.8638C10.6697 10.825 10.6697 10.786 10.6665 10.7471C11.1121 10.5858 11.4877 10.2673 11.7271 9.84812C11.9664 9.42893 12.0538 8.93607 11.974 8.45685C11.8942 7.97762 11.6521 7.54295 11.2908 7.22982C10.9295 6.91669 10.4722 6.74531 9.99985 6.74604ZM4.33331 8.80492C4.35151 8.11007 4.51874 7.42797 4.823 6.80745C5.12726 6.18692 5.56104 5.64333 6.09327 5.2156C6.22941 5.09911 6.31502 4.93171 6.33128 4.75024C6.34753 4.56877 6.29309 4.38808 6.17993 4.24793C6.1239 4.17853 6.05514 4.12117 5.97758 4.07913C5.90002 4.03709 5.81518 4.01119 5.72789 4.0029C5.55161 3.98617 5.37609 4.04222 5.23995 4.15871C4.55619 4.71455 4.00065 5.41955 3.61333 6.22295C3.226 7.02635 3.01653 7.90817 3 8.80492C3.01653 9.70167 3.226 10.5835 3.61333 11.3869C4.00065 12.1903 4.55619 12.8953 5.23995 13.4511C5.30736 13.5088 5.38515 13.5523 5.46887 13.579C5.55259 13.6057 5.64061 13.6152 5.72789 13.6069C5.81518 13.5986 5.90002 13.5727 5.97758 13.5307C6.05514 13.4887 6.1239 13.4313 6.17993 13.3619C6.23596 13.2925 6.27817 13.2124 6.30413 13.1263C6.3301 13.0401 6.33932 12.9495 6.33128 12.8596C6.32323 12.7697 6.29807 12.6824 6.25723 12.6025C6.21639 12.5227 6.16068 12.4519 6.09327 12.3942C5.56104 11.9665 5.12726 11.4229 4.823 10.8024C4.51874 10.1819 4.35151 9.49976 4.33331 8.80492ZM13.0931 5.53805C12.9567 5.44475 12.7917 5.40639 12.6296 5.43028C12.4675 5.45417 12.3196 5.53864 12.2142 5.66758C12.1087 5.79653 12.053 5.96092 12.0577 6.12942C12.0624 6.29792 12.1272 6.45874 12.2398 6.58122C12.5692 6.84668 12.8379 7.18347 13.0268 7.56773C13.2158 7.95199 13.3203 8.37433 13.3331 8.80481C13.3203 9.2353 13.2158 9.65763 13.0268 10.0419C12.8379 10.4262 12.5692 10.7629 12.2398 11.0284C12.1366 11.1192 12.0628 11.2403 12.0283 11.3754C11.9937 11.5105 12.0001 11.6533 12.0465 11.7846C12.0929 11.9159 12.1771 12.0295 12.2878 12.1102C12.3986 12.1909 12.5307 12.2349 12.6664 12.2363C12.823 12.2347 12.9741 12.1764 13.0931 12.0716C13.5741 11.6811 13.9647 11.1854 14.2368 10.6205C14.5089 10.0555 14.6557 9.43532 14.6664 8.80481C14.6557 8.1743 14.5089 7.55413 14.2368 6.98915C13.9647 6.42418 13.5741 5.92852 13.0931 5.53805ZM7.83985 5.62041C7.72606 5.48309 7.5643 5.39745 7.38961 5.38204C7.21492 5.36662 7.04137 5.42267 6.90653 5.53805C6.42553 5.92852 6.03486 6.42418 5.76276 6.98915C5.49066 7.55413 5.34395 8.1743 5.33323 8.80481C5.34395 9.43532 5.49066 10.0555 5.76276 10.6205C6.03486 11.1854 6.42553 11.6811 6.90653 12.0716C7.04137 12.1869 7.21492 12.243 7.38961 12.2276C7.5643 12.2122 7.72606 12.1265 7.83985 11.9892C7.95192 11.8504 8.00637 11.6717 7.9914 11.4919C7.97642 11.3121 7.89324 11.1455 7.75985 11.0284C7.43041 10.7629 7.1617 10.4262 6.97276 10.0419C6.78382 9.65763 6.67928 9.2353 6.66654 8.80481C6.67928 8.37433 6.78382 7.95199 6.97276 7.56773C7.1617 7.18347 7.43041 6.84668 7.75985 6.58122C7.89324 6.46407 7.97642 6.29755 7.9914 6.11771C8.00637 5.93788 7.95192 5.75921 7.83985 5.62041ZM14.5307 4.03085C14.6144 4.05758 14.6922 4.10103 14.7596 4.15871C15.4434 4.71455 15.9989 5.41955 16.3862 6.22295C16.7736 7.02635 16.983 7.90817 16.9996 8.80492C16.983 9.70166 16.7736 10.5835 16.3862 11.3869C15.9989 12.1903 15.4434 12.8953 14.7596 13.4511C14.6235 13.5676 14.448 13.6237 14.2717 13.6069C14.0954 13.5902 13.9328 13.5021 13.8196 13.3619C13.7065 13.2218 13.652 13.0411 13.6683 12.8596C13.6845 12.6781 13.7702 12.5107 13.9063 12.3942C14.4385 11.9665 14.8723 11.4229 15.1766 10.8024C15.4808 10.1819 15.6481 9.49976 15.6663 8.80492C15.6481 8.11007 15.4808 7.42797 15.1766 6.80744C14.8723 6.18692 14.4385 5.64333 13.9063 5.2156C13.8389 5.15792 13.7832 5.08713 13.7423 5.00729C13.7015 4.92744 13.6763 4.8401 13.6683 4.75024C13.6602 4.66038 13.6695 4.56977 13.6954 4.48359C13.7214 4.3974 13.7636 4.31732 13.8196 4.24792C13.8757 4.17853 13.9444 4.12117 14.022 4.07913C14.0995 4.03709 14.1844 4.01119 14.2717 4.0029C14.359 3.99462 14.447 4.00411 14.5307 4.03085Z" fill="#C1C1C1"/>
</svg>
