<svg width="18" height="18" viewBox="0 0 18 18" fill="none" xmlns="http://www.w3.org/2000/svg">
<path d="M5.6295 6.3C6.4989 6.3 7.2045 7.0047 7.2045 7.875V16.425C7.2045 16.8427 7.03856 17.2433 6.74319 17.5387C6.44782 17.8341 6.04722 18 5.6295 18H1.575C1.15728 18 0.756677 17.8341 0.461307 17.5387C0.165937 17.2433 0 16.8427 0 16.425V7.875C0 7.0047 0.7056 6.3 1.575 6.3H5.6295V6.3ZM5.6295 7.65H1.575C1.51533 7.65 1.4581 7.6737 1.4159 7.7159C1.37371 7.7581 1.35 7.81533 1.35 7.875V16.425C1.35 16.5492 1.4508 16.65 1.575 16.65H5.6295C5.68917 16.65 5.7464 16.6263 5.7886 16.5841C5.83079 16.5419 5.8545 16.4847 5.8545 16.425V7.875C5.8545 7.81533 5.83079 7.7581 5.7886 7.7159C5.7464 7.6737 5.68917 7.65 5.6295 7.65V7.65ZM3.825 14.4C3.99602 14.4001 4.16065 14.465 4.28561 14.5818C4.41058 14.6985 4.48657 14.8584 4.49822 15.029C4.50988 15.1996 4.45634 15.3683 4.34841 15.501C4.24048 15.6336 4.08623 15.7204 3.9168 15.7437L3.825 15.75H3.375C3.20398 15.7499 3.03935 15.685 2.91439 15.5682C2.78942 15.4515 2.71343 15.2916 2.70178 15.121C2.69012 14.9504 2.74366 14.7817 2.85159 14.649C2.95951 14.5164 3.11377 14.4296 3.2832 14.4063L3.375 14.4H3.825ZM15.975 1.52988e-08C16.4881 -6.30197e-05 16.9821 0.194666 17.3572 0.544832C17.7322 0.894999 17.9604 1.37449 17.9955 1.8864L18 2.025V10.125C18.0001 10.6381 17.8053 11.1321 17.4552 11.5072C17.105 11.8822 16.6255 12.1104 16.1136 12.1455L15.975 12.15H12.6036V13.95H13.725C13.896 13.9501 14.0606 14.015 14.1856 14.1318C14.3106 14.2485 14.3866 14.4084 14.3982 14.579C14.4099 14.7496 14.3563 14.9183 14.2484 15.051C14.1405 15.1836 13.9862 15.2704 13.8168 15.2937L13.725 15.3H8.1V13.95H11.2536V12.15H8.1V10.8H15.975C16.1381 10.8 16.2957 10.7409 16.4186 10.6337C16.5416 10.5265 16.6215 10.3784 16.6437 10.2168L16.65 10.125V2.025C16.65 1.84598 16.5789 1.67429 16.4523 1.5477C16.3257 1.42112 16.154 1.35 15.975 1.35H3.825C3.66189 1.35001 3.50429 1.40908 3.38136 1.51629C3.25843 1.6235 3.17848 1.7716 3.1563 1.9332L3.15 2.025V5.4H1.8V2.025C1.79994 1.51189 1.99467 1.01788 2.34483 0.642822C2.695 0.267763 3.17449 0.0396199 3.6864 0.00450012L3.825 1.52988e-08H15.975Z" fill="#C1C1C1"/>
</svg>
