<svg width="20" height="20" viewBox="0 0 20 20" fill="none" xmlns="http://www.w3.org/2000/svg">
<path fill-rule="evenodd" clip-rule="evenodd" d="M12.8972 5.13057C12.3836 5.13057 11.9672 5.54695 11.9672 6.06058C11.9672 6.2197 12.0072 6.36948 12.0776 6.50045C12.0834 6.50932 12.089 6.5184 12.0944 6.52768C12.0999 6.53703 12.1051 6.54646 12.11 6.55598C12.2747 6.81711 12.5657 6.99059 12.8972 6.99059C13.4108 6.99059 13.8272 6.57421 13.8272 6.06058C13.8272 5.54695 13.4108 5.13057 12.8972 5.13057ZM11.4336 7.60806C11.8152 7.96915 12.3303 8.19059 12.8972 8.19059C14.0736 8.19059 15.0272 7.23695 15.0272 6.06058C15.0272 4.8842 14.0736 3.93057 12.8972 3.93057C11.7208 3.93057 10.7672 4.8842 10.7672 6.06058C10.7672 6.23671 10.7886 6.40785 10.8289 6.57154L8.24047 8.08208C7.85889 7.72129 7.34397 7.50007 6.77737 7.50007C5.601 7.50007 4.64736 8.4537 4.64736 9.63008C4.64736 10.8064 5.601 11.7601 6.77737 11.7601C7.34417 11.7601 7.85926 11.5387 8.24089 11.1777L10.8297 12.6862C10.7888 12.8509 10.7672 13.0231 10.7672 13.2004C10.7672 14.3767 11.7208 15.3304 12.8972 15.3304C14.0736 15.3304 15.0272 14.3767 15.0272 13.2004C15.0272 12.024 14.0736 11.0704 12.8972 11.0704C12.3315 11.0704 11.8173 11.2909 11.4359 11.6506L8.84566 10.1412C8.88599 9.97748 8.90738 9.80628 8.90738 9.63008C8.90738 9.45368 8.88594 9.28229 8.84552 9.11837L11.4336 7.60806ZM7.56464 9.13474C7.56943 9.14401 7.57448 9.15321 7.5798 9.16233C7.58517 9.17154 7.59076 9.18055 7.59654 9.18937C7.66725 9.32053 7.70739 9.47062 7.70739 9.63008C7.70739 9.78898 7.66753 9.93858 7.59728 10.0694C7.59116 10.0787 7.58527 10.0882 7.57961 10.0979C7.5741 10.1074 7.56887 10.1169 7.56394 10.1265C7.39914 10.3871 7.10846 10.5601 6.77737 10.5601C6.26374 10.5601 5.84736 10.1437 5.84736 9.63008C5.84736 9.11645 6.26374 8.70007 6.77737 8.70007C7.10893 8.70007 7.39997 8.87357 7.56464 9.13474ZM11.9672 13.2004C11.9672 13.0512 12.0023 12.9103 12.0647 12.7854C12.0772 12.7684 12.0889 12.7505 12.0997 12.7319C12.11 12.7142 12.1193 12.6962 12.1276 12.678C12.295 12.432 12.5772 12.2704 12.8972 12.2704C13.4108 12.2704 13.8272 12.6867 13.8272 13.2004C13.8272 13.714 13.4108 14.1304 12.8972 14.1304C12.3836 14.1304 11.9672 13.714 11.9672 13.2004Z" fill="#C1C1C1"/>
</svg>
