<svg width="17" height="19" viewBox="0 0 17 19" fill="none" xmlns="http://www.w3.org/2000/svg">
<path fill-rule="evenodd" clip-rule="evenodd" d="M13.559 2.2C12.6316 2.2 11.8798 2.95178 11.8798 3.87914C11.8798 4.17124 11.9544 4.44593 12.0856 4.68518C12.0939 4.6976 12.1019 4.71036 12.1096 4.72346C12.1172 4.73651 12.1244 4.74971 12.131 4.76304C12.4271 5.24038 12.9559 5.55827 13.559 5.55827C14.4863 5.55827 15.2381 4.8065 15.2381 3.87914C15.2381 2.95178 14.4863 2.2 13.559 2.2ZM11.3211 5.99409C11.8824 6.58782 12.6774 6.95827 13.559 6.95827C15.2595 6.95827 16.6381 5.5797 16.6381 3.87914C16.6381 2.17858 15.2595 0.8 13.559 0.8C11.8584 0.8 10.4798 2.17858 10.4798 3.87914C10.4798 4.19442 10.5272 4.49863 10.6153 4.78504L6.27994 7.31503C5.71863 6.72141 4.92368 6.35103 4.04222 6.35103C2.34166 6.35103 0.963086 7.7296 0.963086 9.43016C0.963086 11.1307 2.34166 12.5093 4.04222 12.5093C4.92396 12.5093 5.71914 12.1387 6.28047 11.5447L10.6166 14.0715C10.5277 14.3591 10.4798 14.6648 10.4798 14.9817C10.4798 16.6822 11.8584 18.0608 13.559 18.0608C15.2595 18.0608 16.6381 16.6822 16.6381 14.9817C16.6381 13.2811 15.2595 11.9025 13.559 11.9025C12.679 11.9025 11.8853 12.2716 11.3242 12.8635L6.9861 10.3356C7.07403 10.0493 7.12136 9.74526 7.12136 9.43016C7.12136 9.1148 7.07395 8.81051 6.98587 8.52403L11.3211 5.99409ZM5.47267 8.55033C5.4787 8.56213 5.48509 8.57383 5.49185 8.58542C5.49867 8.5971 5.50576 8.6085 5.51314 8.61963C5.64584 8.85994 5.72136 9.13623 5.72136 9.43016C5.72136 9.72309 5.64635 9.9985 5.5145 10.2382C5.50656 10.2501 5.49893 10.2623 5.49163 10.2749C5.4845 10.2871 5.47778 10.2995 5.47147 10.312C5.17561 10.7905 4.64615 11.1093 4.04222 11.1093C3.11486 11.1093 2.36309 10.3575 2.36309 9.43016C2.36309 8.5028 3.11486 7.75103 4.04222 7.75103C4.64697 7.75103 5.17705 8.07072 5.47267 8.55033ZM11.8798 14.9817C11.8798 14.7049 11.9468 14.4438 12.0654 14.2136C12.0843 14.1893 12.1018 14.1634 12.1177 14.1361C12.133 14.1099 12.1464 14.0831 12.1579 14.0558C12.4585 13.6019 12.9738 13.3025 13.559 13.3025C14.4863 13.3025 15.2381 14.0543 15.2381 14.9817C15.2381 15.909 14.4863 16.6608 13.559 16.6608C12.6316 16.6608 11.8798 15.909 11.8798 14.9817Z" fill="#C1C1C1"/>
</svg>
