<svg width="14" height="11" viewBox="0 0 14 11" fill="none" xmlns="http://www.w3.org/2000/svg">
<path d="M13.8495 1.71938C13.843 1.71112 13.837 1.70269 13.8301 1.69473C13.8144 1.6763 13.7978 1.65865 13.7803 1.64184L12.2804 0.20616C12.1393 0.0733334 11.9492 -0.000764759 11.7513 6.42987e-06C11.5535 0.000777619 11.364 0.0763554 11.2241 0.210277C11.0842 0.344199 11.0052 0.525615 11.0044 0.715007C11.0036 0.9044 11.081 1.08643 11.2198 1.22143L11.4394 1.43173H11.3086C10.5526 1.43245 9.80773 1.60554 9.13556 1.93666C8.4634 2.26777 7.8833 2.74739 7.44329 3.3358L4.83622 6.82967C4.53515 7.23226 4.13823 7.56041 3.67832 7.78696C3.21841 8.0135 2.70874 8.13192 2.19151 8.13241H0.750005C0.551091 8.13241 0.360324 8.20805 0.219671 8.34269C0.0790181 8.47733 0 8.65994 0 8.85034C0 9.04075 0.0790181 9.22336 0.219671 9.358C0.360324 9.49263 0.551091 9.56827 0.750005 9.56827H2.19151C2.94746 9.56755 3.69235 9.39446 4.36452 9.06335C5.03668 8.73223 5.61678 8.25261 6.05679 7.6642L8.66387 4.17033C8.96493 3.76774 9.36185 3.43959 9.82176 3.21304C10.2817 2.9865 10.7913 2.86808 11.3086 2.86759H11.4394L11.2198 3.07788C11.081 3.21289 11.0036 3.39492 11.0044 3.58431C11.0052 3.7737 11.0842 3.95512 11.2241 4.08904C11.364 4.22296 11.5535 4.29854 11.7513 4.29931C11.9492 4.30008 12.1393 4.22598 12.2804 4.09316L13.7803 2.65747C13.7978 2.64072 13.8144 2.62301 13.8301 2.60459C13.837 2.59663 13.843 2.58819 13.8495 2.57994C13.8577 2.56947 13.8661 2.55918 13.8738 2.54823C13.8809 2.53812 13.887 2.52765 13.8935 2.5173C13.8995 2.50755 13.906 2.49803 13.9115 2.48798C13.9175 2.47733 13.9225 2.46639 13.9279 2.4555C13.933 2.44515 13.9384 2.43498 13.9429 2.42439C13.9476 2.41374 13.9513 2.40279 13.9554 2.3919C13.9596 2.38071 13.9641 2.36958 13.9677 2.35816C13.9712 2.34715 13.9738 2.3359 13.9766 2.32477C13.9797 2.31323 13.9831 2.3018 13.9855 2.29007C13.9883 2.27691 13.9899 2.26375 13.9918 2.25059C13.9933 2.24054 13.9953 2.23072 13.9963 2.22067C14.0012 2.17347 14.0012 2.12591 13.9963 2.0787C13.9953 2.06853 13.9933 2.05872 13.9918 2.04879C13.9899 2.03557 13.9883 2.02235 13.9856 2.00924C13.9831 1.99752 13.9797 1.98609 13.9766 1.97454C13.9738 1.96341 13.9712 1.95217 13.9677 1.94116C13.9641 1.92967 13.9596 1.9186 13.9553 1.90736C13.9513 1.89653 13.9476 1.88558 13.943 1.87493C13.9384 1.86428 13.933 1.85417 13.9279 1.84382C13.9225 1.83293 13.9175 1.82192 13.9115 1.81127C13.9059 1.80128 13.8995 1.79177 13.8934 1.78202C13.887 1.77167 13.8809 1.7612 13.8738 1.75109C13.8661 1.74014 13.8577 1.72985 13.8494 1.71938H13.8495ZM7.80424 7.00221C7.87837 6.94014 7.96455 6.89265 8.05786 6.86246C8.15117 6.83227 8.24977 6.81997 8.34805 6.82626C8.44632 6.83255 8.54234 6.8573 8.63062 6.89911C8.7189 6.94092 8.79771 6.99897 8.86255 7.06993C9.16758 7.40371 9.54364 7.67119 9.9655 7.85443C10.3874 8.03768 10.8453 8.13246 11.3086 8.13241H11.4394L11.2198 7.92212C11.081 7.78711 11.0036 7.60509 11.0044 7.41569C11.0052 7.2263 11.0842 7.04488 11.2241 6.91096C11.364 6.77704 11.5535 6.70146 11.7513 6.70069C11.9492 6.69992 12.1393 6.77402 12.2804 6.90684L13.7804 8.34271C13.7823 8.3445 13.7838 8.34642 13.7856 8.34821C13.801 8.36329 13.816 8.37884 13.83 8.39517C13.8377 8.40415 13.8445 8.41366 13.8516 8.42293C13.859 8.43239 13.8667 8.44166 13.8736 8.45147C13.8811 8.46224 13.8877 8.47343 13.8946 8.4845C13.9002 8.49359 13.9061 8.50245 13.9114 8.51178C13.9176 8.52291 13.9229 8.53433 13.9285 8.5457C13.9333 8.55557 13.9385 8.56532 13.9428 8.57544C13.9476 8.5865 13.9516 8.59781 13.9557 8.609C13.9598 8.61989 13.9641 8.6306 13.9676 8.64172C13.9713 8.65309 13.9739 8.66458 13.9769 8.67601C13.9798 8.68731 13.9831 8.69838 13.9855 8.70987C13.9883 8.72309 13.9899 8.73649 13.9919 8.74983C13.9933 8.7597 13.9953 8.7694 13.9963 8.77933C14.0012 8.82654 14.0012 8.87409 13.9963 8.9213C13.9953 8.93129 13.9933 8.94104 13.9919 8.95085C13.9899 8.96419 13.9883 8.97754 13.9855 8.99082C13.9831 9.0023 13.9798 9.01337 13.9769 9.02468C13.9739 9.03611 13.9713 9.04765 13.9676 9.05896C13.9641 9.07009 13.9598 9.0808 13.9558 9.09169C13.9515 9.10287 13.9476 9.11418 13.9428 9.12519C13.9385 9.13536 13.9333 9.14511 13.9285 9.15498C13.9228 9.16635 13.9176 9.17778 13.9113 9.18891C13.9061 9.19824 13.9001 9.20709 13.8945 9.21619C13.8876 9.22726 13.8811 9.23838 13.8736 9.24915C13.8667 9.25902 13.859 9.2683 13.8516 9.27775C13.8445 9.28702 13.8377 9.29654 13.83 9.30551C13.8159 9.32178 13.8011 9.33745 13.7856 9.35248C13.7838 9.35427 13.7823 9.35624 13.7804 9.35798L12.2804 10.7938C12.1393 10.9267 11.9492 11.0008 11.7513 11C11.5535 10.9992 11.364 10.9236 11.2241 10.7897C11.0842 10.6558 11.0052 10.4744 11.0044 10.285C11.0036 10.0956 11.081 9.91358 11.2198 9.77857L11.4394 9.56827H11.3086C10.6315 9.56832 9.96217 9.42977 9.34558 9.16192C8.72899 8.89407 8.17936 8.50311 7.73355 8.01527C7.6687 7.94431 7.61908 7.86182 7.58754 7.7725C7.556 7.68319 7.54314 7.5888 7.5497 7.49473C7.55627 7.40065 7.58212 7.30874 7.6258 7.22424C7.66947 7.13973 7.7301 7.06428 7.80424 7.00221V7.00221ZM5.69585 3.99779C5.62171 4.05986 5.53553 4.10735 5.44222 4.13754C5.34892 4.16773 5.25031 4.18003 5.15203 4.17374C5.05376 4.16745 4.95774 4.1427 4.86946 4.10089C4.78118 4.05908 4.70237 4.00103 4.63753 3.93007C4.33251 3.59629 3.95645 3.32881 3.53458 3.14556C3.11271 2.96232 2.65478 2.86754 2.19151 2.86759H0.750005C0.551091 2.86759 0.360324 2.79195 0.219671 2.65731C0.0790181 2.52267 0 2.34007 0 2.14966C0 1.95925 0.0790181 1.77664 0.219671 1.642C0.360324 1.50737 0.551091 1.43173 0.750005 1.43173H2.19151C2.86863 1.43166 3.53793 1.5702 4.15452 1.83805C4.77111 2.1059 5.32074 2.49687 5.76654 2.98473C5.83138 3.05569 5.881 3.13819 5.91254 3.2275C5.94409 3.31682 5.95694 3.4112 5.95038 3.50527C5.94382 3.59935 5.91796 3.69126 5.87429 3.77577C5.83061 3.86027 5.76998 3.93572 5.69585 3.99779Z" fill="#C1C1C1"/>
</svg>
