<svg width="15" height="14" viewBox="0 0 15 14" fill="none" xmlns="http://www.w3.org/2000/svg">
<path d="M14.8387 2.62281C14.8317 2.61306 14.8254 2.60309 14.818 2.59368C14.8011 2.5719 14.7834 2.55105 14.7646 2.53118L13.1576 0.834464C13.0064 0.677487 12.8027 0.589916 12.5907 0.590828C12.3787 0.591739 12.1757 0.681058 12.0258 0.83933C11.8759 0.997601 11.7913 1.212 11.7904 1.43583C11.7896 1.65966 11.8725 1.87478 12.0212 2.03433L12.2565 2.28286H12.1163C11.3064 2.28372 10.5083 2.48828 9.7881 2.8796C9.06793 3.27091 8.44639 3.83773 7.97496 4.53313L5.18166 8.66225C4.85909 9.13803 4.43382 9.52585 3.94106 9.79359C3.4483 10.0613 2.90222 10.2013 2.34805 10.2019H0.803576C0.590455 10.2019 0.386062 10.2912 0.235362 10.4504C0.0846623 10.6095 0 10.8253 0 11.0503C0 11.2753 0.0846623 11.4912 0.235362 11.6503C0.386062 11.8094 0.590455 11.8988 0.803576 11.8988H2.34805C3.15799 11.8979 3.95609 11.6934 4.67627 11.302C5.39645 10.9107 6.01798 10.3439 6.48941 9.64851L9.28271 5.5194C9.60529 5.04361 10.0306 4.65579 10.5233 4.38805C11.0161 4.12032 11.5621 3.98037 12.1163 3.97979H12.2565L12.0212 4.22832C11.8725 4.38787 11.7896 4.60299 11.7904 4.82682C11.7913 5.05065 11.8759 5.26505 12.0258 5.42332C12.1757 5.58159 12.3787 5.67091 12.5907 5.67182C12.8027 5.67273 13.0064 5.58516 13.1576 5.42819L14.7646 3.73147C14.7833 3.71167 14.8011 3.69075 14.818 3.66897C14.8254 3.65956 14.8317 3.64959 14.8387 3.63984C14.8475 3.62746 14.8566 3.6153 14.8648 3.60236C14.8724 3.59041 14.8789 3.57804 14.8858 3.56581C14.8923 3.55428 14.8992 3.54304 14.9052 3.53116C14.9116 3.51858 14.917 3.50564 14.9227 3.49277C14.9282 3.48054 14.934 3.46852 14.9388 3.456C14.9438 3.44342 14.9479 3.43048 14.9522 3.41761C14.9567 3.40439 14.9615 3.39124 14.9654 3.37773C14.9692 3.36472 14.9719 3.35143 14.975 3.33828C14.9783 3.32463 14.9819 3.31113 14.9845 3.29727C14.9874 3.28172 14.9892 3.26616 14.9913 3.2506C14.9929 3.23873 14.9949 3.22713 14.9961 3.21525C15.0013 3.15946 15.0013 3.10326 14.9961 3.04747C14.9949 3.03545 14.9929 3.02385 14.9913 3.01212C14.9892 2.99649 14.9874 2.98086 14.9846 2.96538C14.9819 2.95152 14.9783 2.93802 14.975 2.92437C14.9719 2.91122 14.9692 2.89793 14.9654 2.88492C14.9615 2.87134 14.9567 2.85826 14.9521 2.84497C14.9479 2.83217 14.9438 2.81923 14.9389 2.80665C14.934 2.79406 14.9282 2.78211 14.9227 2.76988C14.917 2.75701 14.9116 2.744 14.9052 2.73142C14.8992 2.71961 14.8923 2.70837 14.8858 2.69684C14.8789 2.68461 14.8724 2.67224 14.8648 2.66029C14.8566 2.64735 14.8475 2.63519 14.8386 2.62281H14.8387ZM8.36168 8.86616C8.44111 8.7928 8.53345 8.73668 8.63342 8.701C8.73339 8.66532 8.83904 8.65078 8.94434 8.65821C9.04963 8.66565 9.15251 8.6949 9.24709 8.74432C9.34168 8.79373 9.42612 8.86233 9.49559 8.9462C9.82241 9.34065 10.2253 9.65677 10.6773 9.87333C11.1293 10.0899 11.62 10.2019 12.1163 10.2019H12.2565L12.0212 9.95332C11.8725 9.79377 11.7896 9.57865 11.7904 9.35482C11.7913 9.13099 11.8759 8.91659 12.0258 8.75832C12.1757 8.60005 12.3787 8.51073 12.5907 8.50982C12.8027 8.50891 13.0064 8.59648 13.1576 8.75345L14.7647 10.4504C14.7667 10.4525 14.7684 10.4548 14.7703 10.4569C14.7868 10.4747 14.8028 10.4931 14.8178 10.5124C14.8261 10.523 14.8333 10.5342 14.8411 10.5452C14.849 10.5564 14.8572 10.5673 14.8646 10.5789C14.8727 10.5917 14.8797 10.6049 14.8871 10.618C14.8931 10.6287 14.8994 10.6392 14.9051 10.6502C14.9118 10.6633 14.9174 10.6769 14.9234 10.6903C14.9286 10.702 14.9341 10.7135 14.9388 10.7254C14.9439 10.7385 14.9481 10.7519 14.9525 10.7651C14.9569 10.778 14.9616 10.7906 14.9653 10.8038C14.9692 10.8172 14.972 10.8308 14.9752 10.8443C14.9784 10.8576 14.9819 10.8707 14.9845 10.8843C14.9874 10.8999 14.9892 10.9158 14.9913 10.9315C14.9929 10.9432 14.995 10.9547 14.9961 10.9664C15.0013 11.0222 15.0013 11.0784 14.9961 11.1342C14.995 11.146 14.9929 11.1575 14.9913 11.1691C14.9892 11.1849 14.9874 11.2006 14.9845 11.2163C14.9819 11.2299 14.9784 11.243 14.9752 11.2564C14.972 11.2699 14.9692 11.2835 14.9653 11.2969C14.9616 11.31 14.9569 11.3227 14.9526 11.3355C14.9481 11.3488 14.9439 11.3621 14.9388 11.3751C14.9341 11.3872 14.9286 11.3987 14.9234 11.4103C14.9173 11.4238 14.9117 11.4373 14.905 11.4504C14.8994 11.4615 14.893 11.4719 14.887 11.4827C14.8796 11.4958 14.8727 11.5089 14.8646 11.5216C14.8572 11.5333 14.849 11.5443 14.8411 11.5554C14.8333 11.5664 14.8261 11.5776 14.8178 11.5882C14.8027 11.6075 14.7869 11.626 14.7703 11.6437C14.7683 11.6459 14.7667 11.6482 14.7647 11.6503L13.1576 13.3472C13.0064 13.5042 12.8027 13.5917 12.5907 13.5908C12.3787 13.5899 12.1757 13.5006 12.0258 13.3423C11.8759 13.184 11.7913 12.9696 11.7904 12.7458C11.7896 12.522 11.8725 12.3069 12.0212 12.1473L12.2565 11.8988H12.1163C11.3908 11.8988 10.6737 11.7351 10.0131 11.4185C9.35249 11.102 8.7636 10.64 8.28594 10.0634C8.21646 9.97955 8.1633 9.88206 8.12951 9.7765C8.09571 9.67095 8.08193 9.5594 8.08897 9.44822C8.096 9.33705 8.1237 9.22842 8.1705 9.12855C8.21729 9.02868 8.28225 8.93952 8.36168 8.86616V8.86616ZM6.10269 5.31548C6.02326 5.38884 5.93093 5.44496 5.83095 5.48064C5.73098 5.51632 5.62533 5.53086 5.52004 5.52343C5.41474 5.51599 5.31187 5.48674 5.21728 5.43732C5.1227 5.38791 5.03826 5.31931 4.96878 5.23544C4.64197 4.84098 4.23905 4.52487 3.78705 4.3083C3.33505 4.09174 2.84441 3.97973 2.34805 3.97979H0.803576C0.590455 3.97979 0.386062 3.8904 0.235362 3.73128C0.0846623 3.57216 0 3.35635 0 3.13133C0 2.9063 0.0846623 2.69049 0.235362 2.53137C0.386062 2.37225 0.590455 2.28286 0.803576 2.28286H2.34805C3.07353 2.28278 3.79064 2.44651 4.45127 2.76306C5.11191 3.07961 5.70079 3.54167 6.17843 4.11823C6.24791 4.20209 6.30107 4.29958 6.33487 4.40514C6.36866 4.51069 6.38244 4.62224 6.37541 4.73342C6.36837 4.84459 6.34067 4.95322 6.29388 5.05309C6.24709 5.15296 6.18212 5.24212 6.10269 5.31548Z" fill="#C1C1C1"/>
</svg>
