<svg width="24" height="17" viewBox="0 0 24 17" fill="none" xmlns="http://www.w3.org/2000/svg">
<path d="M12.2778 1.18252C12.2778 0.163466 11.0746 -0.375813 10.3134 0.30041L6.06996 4.07158C5.94044 4.18697 5.77308 4.25082 5.59962 4.25103H2.125C1.56142 4.25103 1.02091 4.47491 0.622399 4.87343C0.223884 5.27194 0 5.81245 0 6.37603V10.6232C0 11.1868 0.223884 11.7273 0.622399 12.1258C1.02091 12.5243 1.56142 12.7482 2.125 12.7482H5.60057C5.77403 12.7484 5.94138 12.8123 6.0709 12.9277L10.3124 16.6998C11.0736 17.376 12.2778 16.8358 12.2778 15.8177V1.18252ZM7.01251 5.13031L10.8611 1.70858V15.2916L7.01251 11.8689C6.62358 11.5229 6.12115 11.3317 5.60057 11.3315H2.125C1.93714 11.3315 1.75697 11.2569 1.62414 11.1241C1.4913 10.9912 1.41667 10.8111 1.41667 10.6232V6.37698C1.41667 6.18911 1.4913 6.00895 1.62414 5.87611C1.75697 5.74327 1.93714 5.66864 2.125 5.66864H5.60057C6.12115 5.66851 6.62358 5.47728 7.01251 5.13125V5.13031Z" fill="#C1C1C1"/>
<path d="M14.3018 5.0736C14.3836 5.02924 14.4733 5.00143 14.5659 4.99175C14.6584 4.98208 14.752 4.99073 14.8412 5.01722C14.9303 5.04371 15.0135 5.08751 15.0857 5.14612C15.158 5.20473 15.218 5.27701 15.2623 5.35882C15.7685 6.29382 16.0556 7.36577 16.0556 8.50194C16.0572 9.59938 15.7845 10.6798 15.2623 11.6451C15.1729 11.8104 15.0215 11.9334 14.8413 11.9871C14.6612 12.0407 14.4671 12.0206 14.3018 11.9312C14.1365 11.8418 14.0135 11.6904 13.9598 11.5102C13.9061 11.3301 13.9262 11.136 14.0156 10.9707C14.4123 10.2369 14.639 9.39727 14.639 8.50194C14.639 7.6066 14.4123 6.76699 14.0156 6.03315C13.9713 5.95131 13.9436 5.86153 13.934 5.76895C13.9244 5.67637 13.9331 5.5828 13.9597 5.4936C13.9862 5.40439 14.0301 5.3213 14.0888 5.24907C14.1476 5.17685 14.2199 5.1169 14.3018 5.07265V5.0736Z" fill="#C1C1C1"/>
</svg>
