<svg width="24" height="17" viewBox="0 0 24 17" fill="none" xmlns="http://www.w3.org/2000/svg">
<path d="M12.2778 1.18252C12.2778 0.163466 11.0746 -0.375813 10.3134 0.30041L6.06996 4.07158C5.94044 4.18697 5.77308 4.25082 5.59962 4.25103H2.125C1.56142 4.25103 1.02091 4.47491 0.622399 4.87343C0.223884 5.27194 0 5.81245 0 6.37603V10.6232C0 11.1868 0.223884 11.7273 0.622399 12.1258C1.02091 12.5243 1.56142 12.7482 2.125 12.7482H5.60057C5.77403 12.7484 5.94138 12.8123 6.0709 12.9277L10.3124 16.6998C11.0736 17.376 12.2778 16.8358 12.2778 15.8177V1.18252V1.18252ZM7.01251 5.13031L10.8611 1.70858V15.2916L7.01251 11.8689C6.62358 11.5229 6.12115 11.3317 5.60057 11.3315H2.125C1.93714 11.3315 1.75697 11.2569 1.62414 11.1241C1.4913 10.9912 1.41667 10.8111 1.41667 10.6232V6.37698C1.41667 6.18911 1.4913 6.00895 1.62414 5.87611C1.75697 5.74327 1.93714 5.66864 2.125 5.66864H5.60057C6.12115 5.66851 6.62358 5.47728 7.01251 5.13125V5.13031Z" fill="#C1C1C1"/>
<rect x="13.1211" y="6.82837" width="1.2" height="7" rx="0.6" transform="rotate(-45 13.1211 6.82837)" fill="#C4C4C4"/>
<rect x="13.8286" y="11.7781" width="1.2" height="7" rx="0.6" transform="rotate(-135 13.8286 11.7781)" fill="#C4C4C4"/>
</svg>
