<svg width="19" height="17" viewBox="0 0 19 17" fill="none" xmlns="http://www.w3.org/2000/svg">
<path d="M12.3891 1.18252C12.3891 0.163466 11.1859 -0.375813 10.4247 0.30041L6.18128 4.07158C6.05177 4.18697 5.88441 4.25082 5.71095 4.25103H2.23633C1.67275 4.25103 1.13224 4.47491 0.733727 4.87343C0.335212 5.27194 0.111328 5.81245 0.111328 6.37603V10.6232C0.111328 11.1868 0.335212 11.7273 0.733727 12.1258C1.13224 12.5243 1.67275 12.7482 2.23633 12.7482H5.71189C5.88535 12.7484 6.05271 12.8123 6.18223 12.9277L10.4237 16.6998C11.185 17.376 12.3891 16.8358 12.3891 15.8177V1.18252V1.18252ZM7.12384 5.13031L10.9725 1.70858V15.2916L7.12384 11.8689C6.73491 11.5229 6.23248 11.3317 5.71189 11.3315H2.23633C2.04847 11.3315 1.8683 11.2569 1.73546 11.1241C1.60263 10.9912 1.528 10.8111 1.528 10.6232V6.37698C1.528 6.18911 1.60263 6.00895 1.73546 5.87611C1.8683 5.74327 2.04847 5.66864 2.23633 5.66864H5.71189C6.23248 5.66851 6.73491 5.47728 7.12384 5.13125V5.13031Z" fill="#C1C1C1"/>
<path d="M16.1597 2.73798C16.2345 2.68266 16.3194 2.64261 16.4097 2.62013C16.5 2.59764 16.5938 2.59315 16.6858 2.60692C16.7778 2.62069 16.8661 2.65245 16.9459 2.70038C17.0256 2.7483 17.0951 2.81146 17.1504 2.88625C18.3548 4.5106 19.0035 6.47982 19.0006 8.50193C19.0032 10.5241 18.3541 12.4933 17.1495 14.1176C17.0354 14.2619 16.8696 14.3561 16.6873 14.3803C16.5049 14.4045 16.3203 14.3569 16.1725 14.2475C16.0247 14.138 15.9252 13.9754 15.8951 13.7939C15.8651 13.6125 15.9068 13.4264 16.0114 13.2752C17.0354 11.8947 17.5869 10.2207 17.5839 8.50193C17.5869 6.78312 17.0354 5.10919 16.0114 3.7287C15.9561 3.65391 15.9161 3.56896 15.8936 3.4787C15.8711 3.38843 15.8666 3.29463 15.8804 3.20263C15.8941 3.11063 15.9259 3.02225 15.9738 2.94252C16.0217 2.8628 16.0849 2.79329 16.1597 2.73798V2.73798Z" fill="#C1C1C1"/>
<path d="M14.4131 5.07348C14.4949 5.02912 14.5847 5.0013 14.6772 4.99163C14.7697 4.98196 14.8633 4.99061 14.9525 5.0171C15.0417 5.04359 15.1248 5.08739 15.197 5.146C15.2693 5.20461 15.3293 5.27689 15.3736 5.3587C15.8799 6.2937 16.167 7.36565 16.167 8.50182C16.1686 9.59926 15.8958 10.6797 15.3736 11.6449C15.2842 11.8103 15.1328 11.9333 14.9527 11.9869C14.7725 12.0406 14.5785 12.0205 14.4131 11.9311C14.2478 11.8417 14.1248 11.6902 14.0711 11.5101C14.0175 11.33 14.0376 11.1359 14.127 10.9706C14.5236 10.2368 14.7503 9.39715 14.7503 8.50182C14.7503 7.60648 14.5236 6.76687 14.127 6.03303C14.0826 5.95119 14.0549 5.86141 14.0453 5.76882C14.0357 5.67624 14.0444 5.58268 14.071 5.49347C14.0976 5.40427 14.1415 5.32118 14.2002 5.24895C14.2589 5.17672 14.3312 5.11678 14.4131 5.07253V5.07348Z" fill="#C1C1C1"/>
</svg>
