<svg width="24" height="17" viewBox="0 0 24 17" fill="none" xmlns="http://www.w3.org/2000/svg">
<path d="M12.2778 1.18252C12.2778 0.163466 11.0746 -0.375813 10.3134 0.30041L6.06996 4.07158C5.94044 4.18697 5.77308 4.25082 5.59962 4.25103H2.125C1.56142 4.25103 1.02091 4.47491 0.622399 4.87343C0.223884 5.27194 0 5.81245 0 6.37603V10.6232C0 11.1868 0.223884 11.7273 0.622399 12.1258C1.02091 12.5243 1.56142 12.7482 2.125 12.7482H5.60057C5.77403 12.7484 5.94138 12.8123 6.0709 12.9277L10.3124 16.6998C11.0736 17.376 12.2778 16.8358 12.2778 15.8177V1.18252ZM7.01251 5.13031L10.8611 1.70858V15.2916L7.01251 11.8689C6.62358 11.5229 6.12115 11.3317 5.60057 11.3315H2.125C1.93714 11.3315 1.75697 11.2569 1.62414 11.1241C1.4913 10.9912 1.41667 10.8111 1.41667 10.6232V6.37698C1.41667 6.18911 1.4913 6.00895 1.62414 5.87611C1.75697 5.74327 1.93714 5.66864 2.125 5.66864H5.60057C6.12115 5.66851 6.62358 5.47728 7.01251 5.13125V5.13031Z" fill="#C1C1C1"/>
<path d="M16.0484 2.73785C16.1232 2.68254 16.2081 2.64249 16.2984 2.62001C16.3886 2.59752 16.4824 2.59303 16.5744 2.6068C16.6664 2.62057 16.7548 2.65233 16.8345 2.70025C16.9143 2.74818 16.9838 2.81134 17.0391 2.88613C18.2434 4.51048 18.8922 6.4797 18.8893 8.50181C18.8919 10.524 18.2428 12.4932 17.0381 14.1175C16.924 14.2617 16.7583 14.3559 16.5759 14.3802C16.3936 14.4044 16.209 14.3568 16.0612 14.2473C15.9133 14.1379 15.8139 13.9753 15.7838 13.7938C15.7537 13.6123 15.7954 13.4263 15.9001 13.275C16.9241 11.8945 17.4755 10.2206 17.4726 8.50181C17.4755 6.783 16.9241 5.10907 15.9001 3.72858C15.8448 3.65379 15.8047 3.56884 15.7822 3.47858C15.7598 3.38831 15.7553 3.2945 15.769 3.20251C15.7828 3.11051 15.8146 3.02212 15.8625 2.9424C15.9104 2.86267 15.9736 2.79317 16.0484 2.73785Z" fill="#C1C1C1"/>
<path d="M14.3018 5.0736C14.3836 5.02924 14.4733 5.00143 14.5659 4.99175C14.6584 4.98208 14.752 4.99073 14.8412 5.01722C14.9303 5.04371 15.0135 5.08751 15.0857 5.14612C15.158 5.20473 15.218 5.27701 15.2623 5.35882C15.7685 6.29382 16.0556 7.36577 16.0556 8.50194C16.0572 9.59938 15.7845 10.6798 15.2623 11.6451C15.1729 11.8104 15.0215 11.9334 14.8413 11.9871C14.6612 12.0407 14.4671 12.0206 14.3018 11.9312C14.1365 11.8418 14.0135 11.6904 13.9598 11.5102C13.9061 11.3301 13.9262 11.136 14.0156 10.9707C14.4123 10.2369 14.639 9.39727 14.639 8.50194C14.639 7.6066 14.4123 6.76699 14.0156 6.03315C13.9713 5.95131 13.9436 5.86153 13.934 5.76895C13.9244 5.67637 13.9331 5.5828 13.9597 5.4936C13.9862 5.40439 14.0301 5.3213 14.0888 5.24907C14.1476 5.17685 14.2199 5.1169 14.3018 5.07265V5.0736Z" fill="#C1C1C1"/>
</svg>
