<svg width="12" height="12" viewBox="0 0 12 12" fill="none" xmlns="http://www.w3.org/2000/svg">
<path fill-rule="evenodd" clip-rule="evenodd" d="M1.23216 2.35774L0.320227 1.44586C0.294006 1.41957 0.260569 1.40166 0.224156 1.3944C0.187743 1.38714 0.149993 1.39085 0.115693 1.40507C0.0813932 1.41928 0.0520872 1.44337 0.0314905 1.47426C0.0108937 1.50515 -6.6132e-05 1.54146 3.00223e-07 1.57859V4.31274C3.00223e-07 4.41623 0.0839943 4.50022 0.187487 4.50022H2.92179C2.95892 4.50029 2.99523 4.48933 3.02613 4.46873C3.05702 4.44814 3.0811 4.41883 3.09532 4.38453C3.10954 4.35024 3.11325 4.31249 3.10599 4.27608C3.09873 4.23967 3.08082 4.20623 3.05453 4.18001L2.0361 3.16164C2.69998 2.23449 3.66792 1.56943 4.7715 1.28216C5.87509 0.994886 7.04446 1.1036 8.07617 1.58937C9.10788 2.07514 9.93662 2.90724 10.4182 3.94087C10.8998 4.9745 11.0037 6.14425 10.7119 7.24659C10.4201 8.34893 9.75106 9.31408 8.82115 9.97412C7.89125 10.6342 6.75935 10.9473 5.62241 10.8591C4.48546 10.7709 3.41543 10.2869 2.59849 9.49127C1.78155 8.69568 1.2694 7.63887 1.15117 6.50472C1.13585 6.35625 1.06218 6.21994 0.946363 6.12579C0.830545 6.03163 0.682065 5.98734 0.533587 6.00266C0.38511 6.01797 0.248797 6.09164 0.154637 6.20745C0.0604774 6.32326 0.0161829 6.47173 0.031498 6.6202C0.175779 8.00846 0.799558 9.30298 1.79545 10.2809C2.79134 11.2589 4.09704 11.859 5.48775 11.9781C6.87847 12.0972 8.2672 11.7277 9.41486 10.9333C10.5625 10.1389 11.3973 8.96928 11.7755 7.62577C12.1537 6.28225 12.0517 4.84892 11.487 3.57252C10.9223 2.29612 9.9302 1.25652 8.68158 0.632681C7.43295 0.00884615 6.00589 -0.16019 4.64606 0.154673C3.28624 0.469536 2.07873 1.2486 1.23141 2.35774H1.23216ZM5.81208 3.00041C5.96126 3.00041 6.10432 3.05967 6.2098 3.16514C6.31528 3.27062 6.37454 3.41367 6.37454 3.56284V5.80656L7.89543 6.41548C8.02946 6.4739 8.13547 6.58221 8.19099 6.71746C8.24652 6.85271 8.24719 7.00426 8.19287 7.13999C8.13856 7.27573 8.03352 7.38498 7.90002 7.4446C7.76652 7.50421 7.61505 7.5095 7.47771 7.45935L5.60285 6.70944C5.49858 6.66766 5.40922 6.59561 5.34626 6.50259C5.28331 6.40957 5.24965 6.29983 5.24962 6.18751V3.56284C5.24962 3.41367 5.30888 3.27062 5.41436 3.16514C5.51985 3.05967 5.66291 3.00041 5.81208 3.00041Z" fill="#DDDDDD"/>
</svg>
